SplineFontDB: 3.0
FontName: Crimson-Bold
FullName: Crimson Bold
FamilyName: Crimson
Weight: Bold
Copyright: Copyright (c) 2010, Sebastian Kosch (sebastian@aldusleaf.org),\nwith Reserved Font Name "Crimson".\nThis Font Software is licensed under the SIL Open Font License, Version 1.1.\nThis license is available with a FAQ at: http://scripts.sil.org/OFL
UComments: "2010-5-14: Created." 
Version: 0.12
ItalicAngle: 0
UnderlinePosition: -102
UnderlineWidth: 51
Ascent: 717
Descent: 307
LayerCount: 2
Layer: 0 0 "Back"  1
Layer: 1 0 "Fore"  0
XUID: [1021 85 519305545 5082149]
FSType: 0
OS2Version: 0
OS2_WeightWidthSlopeOnly: 0
OS2_UseTypoMetrics: 1
CreationTime: 1273891947
ModificationTime: 1311656948
PfmFamily: 17
TTFWeight: 700
TTFWidth: 5
LineGap: 0
VLineGap: 0
OS2TypoAscent: 1106
OS2TypoAOffset: 0
OS2TypoDescent: -740
OS2TypoDOffset: 0
OS2TypoLinegap: 0
OS2WinAscent: 1106
OS2WinAOffset: 0
OS2WinDescent: 740
OS2WinDOffset: 0
HheadAscent: 1106
HheadAOffset: 0
HheadDescent: -740
HheadDOffset: 0
OS2Vendor: 'PfEd'
Lookup: 1 0 0 "'onum' Oldstyle Figures in Latin lookup 3"  {"'onum' Oldstyle Figures in Latin lookup 3-1" ("oldstyle" ) } ['onum' ('DFLT' <'dflt' > 'latn' <'dflt' > ) ]
Lookup: 1 0 0 "'smcp' Lowercase to Small Capitals in Latin lookup 0"  {"'smcp' Lowercase to Small Capitals in Latin lookup 0 subtable" ("sc" ) } ['smcp' ('DFLT' <'dflt' > 'latn' <'dflt' > ) ]
Lookup: 1 0 0 "'c2sc' Capitals to Small Capitals in Latin lookup 0"  {"'c2sc' Capitals to Small Capitals in Latin lookup 0 subtable"  } ['c2sc' ('DFLT' <'dflt' > 'latn' <'dflt' > ) ]
Lookup: 4 0 1 "'liga' Standard Ligatures in Latin lookup 0"  {"'liga' Standard Ligatures in Latin lookup 0-1"  } ['liga' ('DFLT' <'dflt' > 'latn' <'dflt' > ) ]
MarkAttachClasses: 1
DEI: 91125
LangName: 1033 
GaspTable: 1 65535 15
Encoding: UnicodeBmp
UnicodeInterp: none
NameList: Adobe Glyph List
DisplaySize: -36
AntiAlias: 1
FitToEm: 1
WidthSeparation: 70
WinInfo: 60 12 11
BeginPrivate: 3

StartChar: exclam
Encoding: 33 33 1
Width: 209
Flags: W
HStem: -11 150<51.25 155.969> 622 20G<90 123.5>
VStem: 29 150<12.2802 116> 42 128<370.997 626.241>
LayerCount: 2
Fore
SplineSet
179 63 m 4xe0
 179 23 146 -11 105 -11 c 31
 63 -11 29 23 29 66 c 4
 29 106 63 139 104 139 c 31
 146 139 179 103 179 63 c 4xe0
108 642 m 4
 139 642 170 617 170 574 c 4
 170 546 141 309 128 221 c 5
 124 208 120 199 108 195 c 5
 103 195 91 202 85 212 c 5
 74 279 42 524 42 575 c 4xd0
 42 617 72 642 108 642 c 4
EndSplineSet
Validated: 1
Substitution2: "'smcp' Lowercase to Small Capitals in Latin lookup 0 subtable" exclam.sc
EndChar

StartChar: quotedbl
Encoding: 34 34 2
Width: 323
Flags: W
HStem: 434 264<62.0527 99.9451 225.42 260.945>
VStem: 28 103<522.226 678.189> 192 102<522.226 679.379>
LayerCount: 2
Back
SplineSet
112 698 m 2
 126 698 l 2
 142 698 156 692 156 633 c 0
 156 577 131 516 125 449 c 0
 124 439 116 434 109 434 c 0
 101 434 92 439 91 447 c 0
 82 537 57 594 57 635 c 0
 57 653 86 698 112 698 c 2
275 698 m 2
 290 698 l 2
 306 698 319 692 319 633 c 0
 319 577 292 516 286 449 c 0
 285 439 277 434 270 434 c 0
 263 434 256 439 255 447 c 0
 246 537 221 594 221 635 c 0
 221 653 249 698 275 698 c 2
EndSplineSet
Fore
SplineSet
83 698 m 2
 101 698 l 2
 117 698 131 692 131 633 c 0
 131 577 106 516 100 449 c 0
 99 439 87 434 80 434 c 0
 72 434 63 439 62 447 c 0
 53 537 28 594 28 635 c 0
 28 653 57 698 83 698 c 2
246 698 m 6
 265 698 l 6
 281 698 294 692 294 633 c 4
 294 577 267 516 261 449 c 4
 260 439 248 434 241 434 c 4
 234 434 227 439 226 447 c 4
 217 537 192 594 192 635 c 4
 192 653 220 698 246 698 c 6
EndSplineSet
Validated: 1
Substitution2: "'smcp' Lowercase to Small Capitals in Latin lookup 0 subtable" quotedbl.sc
EndChar

StartChar: numbersign
Encoding: 35 35 3
Width: 445
Flags: W
HStem: 148 67<41.1884 366.122> 339 67<68.2669 394.056>
LayerCount: 2
Fore
SplineSet
388 339 m 1
 229 339 229 339 59 339 c 1
 47 339 62 402 75 406 c 9
 401 406 l 17
 415 406 401 345 388 339 c 1
360 148 m 1
 201 148 201 148 31 148 c 1
 19 148 35 211 48 215 c 9
 374 215 l 17
 388 215 373 154 360 148 c 1
359 528 m 1
 280 36 l 2
 279 32 264 23 249 23 c 0
 239 23 238 27 238 27 c 1
 317 518 l 1
 320 527 327 531 346 531 c 0
 355 531 356 530 359 528 c 1
198 528 m 1
 118 36 l 2
 117 32 103 23 88 23 c 0
 78 23 77 27 77 27 c 1
 156 518 l 1
 159 527 166 531 185 531 c 0
 194 531 195 530 198 528 c 1
EndSplineSet
Validated: 37
Substitution2: "'smcp' Lowercase to Small Capitals in Latin lookup 0 subtable" numbersign.sc
EndChar

StartChar: dollar
Encoding: 36 36 4
Width: 464
Flags: W
HStem: -10 40<201.611 288.248> 450 21G<403.5 407> 601 40<192.095 258.092> 648 20G<263.738 271>
VStem: 33 40<131.239 189.022> 40 127<462.101 543.456> 153 39<-35.9908 4.01403> 267 39<624.049 664.779> 321 126<88.2504 184.301> 376 39<450.001 513.559>
LayerCount: 2
Fore
SplineSet
228 30 m 0xf980
 264 30 321 47 321 124 c 0xf980
 321 199 228 249 180 282 c 0
 110 329 40 368 40 468 c 0
 40 567 145 641 244 641 c 0
 300 641 347 626 405 614 c 1
 410 563 412 513 415 455 c 1
 412 451 409 450 405 450 c 0
 402 450 378 448 376 456 c 0
 368 510 323 601 249 601 c 0
 212 601 167 582 167 518 c 0xf540
 167 459 243 401 306 361 c 0
 370 320 447 294 447 167 c 0
 447 62 343 -10 238 -10 c 0
 182 -10 113 2 56 15 c 1
 46 57 35 151 33 178 c 1
 37 184 56 191 61 191 c 0
 68 191 72 189 73 183 c 0
 82 131 142 30 228 30 c 0xf980
267 668 m 17
 275 668 306 667 306 660 c 9
 192 -40 l 17
 183 -40 153 -38 153 -31 c 9xf3
 267 668 l 17
EndSplineSet
Validated: 5
Substitution2: "'smcp' Lowercase to Small Capitals in Latin lookup 0 subtable" dollar.sc
EndChar

StartChar: percent
Encoding: 37 37 5
Width: 685
Flags: W
HStem: 0 31<465.28 530.815> 274 30<449.791 515.192> 337 31<168.28 233.815> 611 30<152.791 218.192>
VStem: 37 95<408.108 565.734> 255 95<412.743 570.7> 334 95<71.1076 228.734> 552 95<75.7433 233.7>
LayerCount: 2
Fore
SplineSet
621 635 m 5xf9
 105 -5 l 6
 101 -11 81 -20 64 -20 c 4
 49 -20 49 -8 49 -8 c 5
 565 632 l 5
 573 639 588 645 605 645 c 4
 614 645 621 640 621 635 c 5xf9
482 274 m 3
 433 274 429 211 429 163 c 24xfb
 429 105 449 31 498 31 c 3
 547 31 552 93 552 140 c 24
 552 199 531 274 482 274 c 3
490 304 m 0
 582 304 647 240 647 155 c 0
 647 71 579 0 491 0 c 0
 398 0 334 66 334 150 c 0
 334 234 402 304 490 304 c 0
185 611 m 3
 136 611 132 548 132 500 c 24
 132 442 152 368 201 368 c 3
 250 368 255 430 255 477 c 24xfd
 255 536 234 611 185 611 c 3
193 641 m 0
 285 641 350 577 350 492 c 0
 350 408 282 337 194 337 c 0
 101 337 37 403 37 487 c 0
 37 571 105 641 193 641 c 0
EndSplineSet
Validated: 1
Substitution2: "'smcp' Lowercase to Small Capitals in Latin lookup 0 subtable" percent.sc
EndChar

StartChar: ampersand
Encoding: 38 38 6
Width: 671
Flags: W
HStem: -4 76<159.5 310.851> -3 83<456 537.669> 280 32<444.172 494.879 572.817 643.93> 606 39<237.652 310.641>
VStem: 20 130<137.885 247.308> 103 116<445.149 566.514> 333 103<452.463 587.477>
LayerCount: 2
Fore
SplineSet
346 95 m 1xba
 318 133 223 264 188 313 c 1
 166 294 150 266 150 220 c 0
 150 154 191 72 282 72 c 0
 316 72 333 84 346 95 c 1xba
276 606 m 0
 233 606 219 561 219 513 c 0x36
 219 469 251 430 268 407 c 1
 312 430 333 459 333 513 c 0
 333 545 321 606 276 606 c 0
277 645 m 0
 378 645 436 599 436 529 c 0
 436 439 364 397 294 366 c 1
 322 329 403 222 434 181 c 1
 458 209 495 250 495 262 c 0
 495 285 453 278 446 280 c 1
 442 286 442 310 447 312 c 1
 515 311 l 2
 550 310 598 312 643 314 c 1
 647 312 647 287 641 281 c 1
 634 280 589 280 572 266 c 0
 558 255 489 173 462 145 c 1
 469 137 514 80 536 80 c 0
 564 80 589 119 600 133 c 1
 609 133 620 125 625 115 c 1
 621 103 545 -3 483 -3 c 3x76
 429 -3 401 28 373 60 c 1
 328 17 268 -4 201 -4 c 3
 118 -4 20 55 20 156 c 0xba
 20 273 106 320 160 354 c 1
 139 385 103 423 103 490 c 0
 103 580 183 645 277 645 c 0
EndSplineSet
Validated: 33
Substitution2: "'smcp' Lowercase to Small Capitals in Latin lookup 0 subtable" ampersand.sc
EndChar

StartChar: quotesingle
Encoding: 39 39 7
Width: 171
Flags: W
HStem: 451 260<78.1421 115.807>
VStem: 28 111<531.556 686.937>
LayerCount: 2
Fore
SplineSet
101 711 m 0
 117 711 132 704 139 689 c 1
 134 626 128 539 116 470 c 1
 112 464 101 455 90 451 c 1
 86 451 81 453 78 457 c 1
 56 515 28 580 28 627 c 0
 28 671 59 711 101 711 c 0
EndSplineSet
Validated: 1
Substitution2: "'smcp' Lowercase to Small Capitals in Latin lookup 0 subtable" quotesingle.sc
EndChar

StartChar: parenleft
Encoding: 40 40 8
Width: 309
Flags: W
VStem: 36 111<147.177 462.823>
LayerCount: 2
Fore
SplineSet
36 305 m 0
 36 574 200 713 275 747 c 1
 280 744 285 723 284 720 c 1
 245 686 147 536 147 305 c 0
 147 74 245 -76 284 -110 c 1
 285 -113 280 -134 275 -137 c 1
 200 -103 36 36 36 305 c 0
EndSplineSet
Validated: 1
Substitution2: "'smcp' Lowercase to Small Capitals in Latin lookup 0 subtable" parenleft.sc
EndChar

StartChar: parenright
Encoding: 41 41 9
Width: 309
Flags: W
VStem: 159 111<147.177 462.823>
LayerCount: 2
Fore
SplineSet
270 305 m 0
 270 36 106 -103 31 -137 c 1
 26 -134 21 -113 22 -110 c 1
 61 -76 159 74 159 305 c 0
 159 536 61 686 22 720 c 1
 21 723 26 744 31 747 c 1
 106 713 270 574 270 305 c 0
EndSplineSet
Validated: 1
Substitution2: "'smcp' Lowercase to Small Capitals in Latin lookup 0 subtable" parenright.sc
EndChar

StartChar: asterisk
Encoding: 42 42 10
Width: 416
Flags: W
HStem: 424 89<34.75 136.237>
VStem: 147 91<309.181 407.934>
LayerCount: 2
Fore
SplineSet
112 593 m 0
 96 620 108 651 126 661 c 0
 146 671 175 666 191 639 c 0
 216 597 193 566 210 531 c 1
 210 531 215 521 220 520 c 0
 222 520 225 520 229 524 c 0
 255 552 248 582 280 618 c 0
 301 642 334 640 349 626 c 0
 365 610 369 581 348 557 c 0
 316 521 279 533 251 506 c 1
 251 506 244 498 244 493 c 0
 244 489 247 487 252 485 c 0
 287 469 314 485 358 466 c 0
 387 454 396 421 387 402 c 0
 377 382 350 370 321 382 c 0
 277 401 276 440 242 458 c 1
 242 458 232 464 228 461 c 0
 226 460 225 459 224 453 c 0
 220 415 243 395 238 347 c 0
 235 316 207 298 187 300 c 0
 165 304 144 325 147 356 c 0
 152 404 188 417 195 455 c 1
 195 455 196 465 193 469 c 0
 192 471 190 471 184 470 c 0
 147 462 134 435 87 424 c 0
 56 417 31 438 27 458 c 0
 24 480 37 506 68 513 c 0
 115 524 138 493 177 498 c 1
 177 498 189 499 190 504 c 0
 191 507 189 510 186 515 c 0
 167 548 137 551 112 593 c 0
EndSplineSet
Validated: 33
Substitution2: "'smcp' Lowercase to Small Capitals in Latin lookup 0 subtable" asterisk.sc
EndChar

StartChar: plus
Encoding: 43 43 11
Width: 532
Flags: W
HStem: 214 64<29.4231 233 297 502.937>
VStem: 233 64<11.3945 214 278 482.029>
LayerCount: 2
Fore
SplineSet
297 19 m 5
 285 11 254 8 244 8 c 4
 238 8 233 12 233 16 c 6
 233 214 l 5
 32 214 l 6
 27 214 26 220 26 230 c 4
 26 234 29 266 37 278 c 5
 233 278 l 5
 233 474 l 5
 244 483 277 485 281 485 c 4
 291 485 297 483 297 476 c 6
 297 278 l 5
 498 278 l 6
 504 278 507 270 507 264 c 4
 507 243 500 224 492 214 c 5
 297 214 l 5
 297 19 l 5
EndSplineSet
Validated: 1
Substitution2: "'smcp' Lowercase to Small Capitals in Latin lookup 0 subtable" plus.sc
EndChar

StartChar: comma
Encoding: 44 44 12
Width: 219
Flags: W
HStem: -157 296
VStem: 105 87<-35.4663 70>
LayerCount: 2
Fore
SplineSet
134 139 m 4
 151 139 167 131 178 123 c 5
 186 108 192 82 192 58 c 4
 192 -37 125 -122 55 -157 c 5
 44 -154 34 -139 34 -133 c 5
 53 -121 105 -76 105 -27 c 4
 105 6 57 3 57 68 c 4
 57 84 72 139 134 139 c 4
EndSplineSet
Validated: 1
Substitution2: "'smcp' Lowercase to Small Capitals in Latin lookup 0 subtable" comma.sc
EndChar

StartChar: hyphen
Encoding: 45 45 13
Width: 332
Flags: W
HStem: 210 69<52.344 291.262>
VStem: 35 263
LayerCount: 2
Fore
SplineSet
50 267 m 1
 50 267 258 278 291 279 c 0
 295 279 298 278 298 270 c 0
 298 253 291 227 283 210 c 1
 236 207 133 203 42 199 c 0
 37 199 35 201 35 210 c 0
 35 229 43 252 50 267 c 1
EndSplineSet
Validated: 1
Substitution2: "'smcp' Lowercase to Small Capitals in Latin lookup 0 subtable" hyphen.sc
EndChar

StartChar: period
Encoding: 46 46 14
Width: 204
Flags: W
HStem: -11 150<51.25 155.969>
VStem: 29 150<12.2802 116>
LayerCount: 2
Fore
SplineSet
179 63 m 4
 179 23 146 -11 105 -11 c 31
 63 -11 29 23 29 66 c 4
 29 106 63 139 104 139 c 31
 146 139 179 103 179 63 c 4
EndSplineSet
Validated: 1
Substitution2: "'smcp' Lowercase to Small Capitals in Latin lookup 0 subtable" period.sc
EndChar

StartChar: slash
Encoding: 47 47 15
Width: 425
Flags: W
LayerCount: 2
Fore
SplineSet
386 753 m 5
 90 -14 l 6
 88 -21 75 -35 40 -35 c 4
 25 -35 22 -28 22 -28 c 5
 318 739 l 5
 325 754 337 761 367 761 c 4
 381 761 382 755 386 753 c 5
EndSplineSet
Validated: 1
Substitution2: "'smcp' Lowercase to Small Capitals in Latin lookup 0 subtable" slash.sc
EndChar

StartChar: zero
Encoding: 48 48 16
Width: 515
Flags: W
HStem: -3 42<225.783 299.187> 583 42<221.243 299.139>
VStem: 37 130<168.111 441.573> 348 130<174 457.716>
LayerCount: 2
Back
SplineSet
128 320 m 0
 128 163 179 34 253 34 c 0
 342 34 388 168 388 325 c 0
 388 482 337 604 263 604 c 0
 179 604 128 477 128 320 c 0
40 319 m 0
 40 493 120 641 258 641 c 0
 398 641 476 493 476 319 c 0
 476 145 396 -3 258 -3 c 0
 122 -3 40 145 40 319 c 0
EndSplineSet
Fore
SplineSet
764 748 m 27,0,-1
167 302 m 0,1,-1
 167 145 210 39 261 39 c 0,4,-1
 326 39 348 171 348 328 c 0,7,-1
 348 485 316 583 261 583 c 0,10,-1
 196 583 167 459 167 302 c 0,1,-1
37 311 m 0,13,-1
 37 485 140 625 260 625 c 0,16,-1
 380 625 478 511 478 311 c 0,19,-1
 478 137 380 -3 260 -3 c 0,22,-1
 140 -3 37 111 37 311 c 0,13,-1
EndSplineSet
Validated: 1
Substitution2: "'smcp' Lowercase to Small Capitals in Latin lookup 0 subtable" zero.sc
Substitution2: "'c2sc' Capitals to Small Capitals in Latin lookup 0 subtable" zero.sc
Substitution2: "'onum' Oldstyle Figures in Latin lookup 3-1" zero.onum
EndChar

StartChar: one
Encoding: 49 49 17
Width: 352
Flags: W
HStem: -4 37<51.7205 117.998 264.001 330.279> 623 20G<249.5 256>
VStem: 126 130<41.2661 533.021>
LayerCount: 2
Fore
SplineSet
126 145 m 6
 126 482 l 6
 126 526 121 535 105 535 c 4
 96 535 54 524 33 512 c 5
 25 516 20 525 20 531 c 4
 20 533 19 542 22 543 c 4
 137 592 248 643 251 643 c 6
 253 643 l 6
 259 643 264 629 265 624 c 5
 265 624 256 595 256 530 c 6
 256 145 l 6
 256 102 256 71 264 51 c 4
 269 38 315 34 328 33 c 5
 333 26 332 2 328 -4 c 5
 289 0 233 3 191 3 c 4
 149 3 93 0 54 -4 c 5
 50 2 49 26 54 33 c 5
 67 34 113 38 118 51 c 4
 126 71 126 102 126 145 c 6
EndSplineSet
Validated: 33
Substitution2: "'smcp' Lowercase to Small Capitals in Latin lookup 0 subtable" one.sc
Substitution2: "'c2sc' Capitals to Small Capitals in Latin lookup 0 subtable" one.sc
Substitution2: "'onum' Oldstyle Figures in Latin lookup 3-1" one.onum
EndChar

StartChar: two
Encoding: 50 50 18
Width: 475
Flags: W
HStem: 0 102<152 379.012> 564 78<148.499 290>
VStem: 285 131<381.569 516.668> 418 34<155.14 197.879>
LayerCount: 2
Fore
SplineSet
452 192 m 1
 441 145 398 19 392 0 c 9
 28 0 l 1
 23 5 20 13 19 18 c 1
 96 103 157 161 227 271 c 0
 273 344 285 404 285 449 c 4
 285 515 232 564 178 564 c 4
 108 564 71 501 63 493 c 5
 58 493 42 502 42 517 c 5
 59 555 130 642 242 642 c 4
 338 642 416 582 416 474 c 4
 416 413 386 354 340 300 c 0
 285 236 221 165 152 102 c 1
 168 102 324 102 324 102 c 2
 384 102 402 155 418 191 c 0
 420 196 426 198 432 198 c 0
 439 198 447 196 452 192 c 1
EndSplineSet
Validated: 1
Substitution2: "'smcp' Lowercase to Small Capitals in Latin lookup 0 subtable" two.sc
Substitution2: "'c2sc' Capitals to Small Capitals in Latin lookup 0 subtable" two.sc
Substitution2: "'onum' Oldstyle Figures in Latin lookup 3-1" two.onum
EndChar

StartChar: three
Encoding: 51 51 19
Width: 456
Flags: W
HStem: -6 42<165.235 267.423> 313 33<134.165 193.352> 568 74<156.612 272>
VStem: 281 117<442.547 531.989> 306 133<129.219 265.223>
LayerCount: 2
Fore
SplineSet
248 642 m 4xf0
 296 642 398 614 398 514 c 4xf0
 398 430 315 382 290 372 c 5
 322 370 439 340 439 220 c 4
 439 79 300 -6 172 -6 c 4
 107 -6 57 15 37 31 c 5
 30 40 25 64 25 74 c 4
 25 98 43 127 77 127 c 4
 104 127 125 99 141 80 c 4
 159 59 186 36 212 36 c 4
 274 36 306 88 306 178 c 4xe8
 306 253 264 322 197 322 c 4
 191 322 168 320 142 313 c 5
 138 318 133 329 133 337 c 4
 133 341 133 343 134 346 c 5
 191 356 281 387 281 458 c 4
 281 519 247 568 187 568 c 4
 133 568 85 524 78 516 c 5
 71 518 66 535 66 544 c 5
 103 593 168 642 248 642 c 4xf0
EndSplineSet
Validated: 1
Substitution2: "'smcp' Lowercase to Small Capitals in Latin lookup 0 subtable" three.sc
Substitution2: "'c2sc' Capitals to Small Capitals in Latin lookup 0 subtable" three.sc
Substitution2: "'onum' Oldstyle Figures in Latin lookup 3-1" three.onum
EndChar

StartChar: four
Encoding: 52 52 20
Width: 492
Flags: W
HStem: -5 21G<329 367> 174 68<108.776 288 414 470.913> 624 20G<383 390>
VStem: 288 126<-1.13095 174 242 466>
LayerCount: 2
Fore
SplineSet
387 644 m 4
 393 644 414 628 414 616 c 14
 414 242 l 29
 459 242 l 6
 466 242 473 224 473 195 c 4
 473 180 464 174 464 174 c 13
 414 174 l 29
 414 4 l 21
 414 4 388 -5 346 -5 c 4
 312 -5 288 -1 288 8 c 6
 288 174 l 29
 34 174 l 21
 26 178 23 186 23 199 c 5
 143 348 261 498 367 630 c 4
 374 638 379 644 387 644 c 4
288 242 m 5
 288 315 288 466 288 466 c 21
 253 421 128 262 109 242 c 5
 102 242 238 242 288 242 c 5
EndSplineSet
Validated: 37
Substitution2: "'smcp' Lowercase to Small Capitals in Latin lookup 0 subtable" four.sc
Substitution2: "'c2sc' Capitals to Small Capitals in Latin lookup 0 subtable" four.sc
Substitution2: "'onum' Oldstyle Figures in Latin lookup 3-1" four.onum
EndChar

StartChar: five
Encoding: 53 53 21
Width: 456
Flags: W
HStem: -6 42<165.235 267.032> 328 95<128.819 283> 527 108<151 363.727> 626 20G<385 394.5>
VStem: 306 128<137.052 255.276>
LayerCount: 2
Fore
SplineSet
66 334 m 1xe8
 67 337 114 585 122 635 c 1
 165 635 236 635 300 635 c 0xe8
 342 635 378 643 392 646 c 1xd8
 397 644 405 643 405 632 c 0
 405 615 375 549 368 536 c 1
 277 528 175 527 151 527 c 1
 149 517 128 410 128 410 c 1
 153 416 197 423 234 423 c 0
 332 423 434 335 434 230 c 0
 434 89 300 -6 172 -6 c 0
 107 -6 57 15 37 31 c 1
 30 40 25 64 25 74 c 0
 25 98 43 127 77 127 c 0
 104 127 125 99 141 80 c 0
 159 59 186 36 212 36 c 0
 274 36 306 88 306 178 c 0
 306 269 225 328 168 328 c 0
 105 328 86 318 76 314 c 1
 70 314 66 328 66 334 c 1xe8
EndSplineSet
Validated: 1
Substitution2: "'smcp' Lowercase to Small Capitals in Latin lookup 0 subtable" five.sc
Substitution2: "'c2sc' Capitals to Small Capitals in Latin lookup 0 subtable" five.sc
Substitution2: "'onum' Oldstyle Figures in Latin lookup 3-1" five.onum
EndChar

StartChar: six
Encoding: 54 54 22
Width: 466
Flags: W
HStem: -6 42<205.975 283.478> 346 59<188.01 274.393> 619 26<385.02 410.755>
VStem: 33 131<132.653 330.882> 317 131<118.753 295.085>
LayerCount: 2
Fore
SplineSet
164 221 m 4
 164 137 184 36 248 36 c 4
 287 36 317 92 317 182 c 4
 317 267 292 346 221 346 c 4
 209 346 185 341 171 327 c 5
 164 292 164 269 164 221 c 4
412 619 m 5
 286 567 215 481 183 380 c 5
 209 395 240 405 265 405 c 4
 362 405 448 352 448 207 c 4
 448 90 343 -6 237 -6 c 4
 125 -6 33 112 33 242 c 7
 33 353 90 449 149 511 c 4
 235 602 337 636 405 645 c 5
 413 639 414 629 412 619 c 5
EndSplineSet
Validated: 1
Substitution2: "'smcp' Lowercase to Small Capitals in Latin lookup 0 subtable" six.sc
Substitution2: "'c2sc' Capitals to Small Capitals in Latin lookup 0 subtable" six.sc
Substitution2: "'onum' Oldstyle Figures in Latin lookup 3-1" six.onum
EndChar

StartChar: seven
Encoding: 55 55 23
Width: 470
Flags: W
HStem: -11 21G<139.5 144> 536 100<96.3025 376>
VStem: 30 36<446.097 495.277>
LayerCount: 2
Fore
SplineSet
362 637 m 2
 397 637 446 641 452 641 c 0
 458 641 459 631 459 626 c 0
 459 617 448 598 432 565 c 2
 160 -8 l 1
 156 -11 145 -11 143 -11 c 0
 136 -11 99 -6 99 13 c 1
 141 73 285 344 376 536 c 1
 315 536 145 536 145 536 c 2
 95 536 79 490 66 452 c 0
 65 449 64 447 54 446 c 0
 44 445 34 450 30 454 c 1
 43 503 67 605 74 636 c 1
 90 636 362 637 362 637 c 2
EndSplineSet
Validated: 1
Substitution2: "'smcp' Lowercase to Small Capitals in Latin lookup 0 subtable" seven.sc
Substitution2: "'c2sc' Capitals to Small Capitals in Latin lookup 0 subtable" seven.sc
Substitution2: "'onum' Oldstyle Figures in Latin lookup 3-1" seven.onum
EndChar

StartChar: eight
Encoding: 56 56 24
Width: 464
Flags: W
HStem: -6 42<186.792 285.823> 592 41<184.384 263.608>
VStem: 21 131<70.2294 227.187> 36 129<443.366 553.051> 290 125<420.964 558.947> 309 131<89.4662 186.982>
LayerCount: 2
Fore
SplineSet
234 36 m 3xe4
 283 36 309 73 309 118 c 3
 309 195 228 250 198 272 c 0
 193 276 191 277 189 277 c 0
 187 277 185 278 184 276 c 0
 162 249 152 204 152 156 c 27
 152 99 175 36 234 36 c 3xe4
226 592 m 3
 189 592 165 556 165 512 c 3
 165 443 226 396 251 383 c 0
 254 381 259 378 263 378 c 0
 266 378 268 380 269 381 c 0
 287 408 290 446 290 486 c 3xd8
 290 531 271 592 226 592 c 3
228 633 m 27
 320 633 415 584 415 489 c 3xd8
 415 426 361 375 304 351 c 0
 302 350 302 347 304 346 c 0
 341 324 440 257 440 167 c 3
 440 60 333 -6 226 -6 c 27
 125 -6 21 33 21 153 c 3xe4
 21 236 89 285 149 303 c 0
 151 304 151 305 147 308 c 0
 112 338 36 392 36 486 c 3
 36 574 134 633 228 633 c 27
EndSplineSet
Validated: 1
Substitution2: "'smcp' Lowercase to Small Capitals in Latin lookup 0 subtable" eight.sc
Substitution2: "'c2sc' Capitals to Small Capitals in Latin lookup 0 subtable" eight.sc
Substitution2: "'onum' Oldstyle Figures in Latin lookup 3-1" eight.onum
EndChar

StartChar: nine
Encoding: 57 57 25
Width: 466
Flags: W
HStem: -6 26<70.2447 95.9803> 234 59<206.607 292.99> 603 42<197.522 275.025>
VStem: 33 131<343.915 520.247> 317 131<308.118 506.347>
LayerCount: 2
Fore
SplineSet
317 418 m 0
 317 502 297 603 233 603 c 0
 194 603 164 547 164 457 c 0
 164 372 189 293 260 293 c 0
 272 293 296 298 310 312 c 1
 317 347 317 370 317 418 c 0
69 20 m 1
 195 72 266 158 298 259 c 1
 272 244 241 234 216 234 c 0
 119 234 33 287 33 432 c 0
 33 549 138 645 244 645 c 0
 356 645 448 527 448 397 c 3
 448 286 391 190 332 128 c 0
 246 37 144 3 76 -6 c 1
 68 0 67 10 69 20 c 1
EndSplineSet
Validated: 1
Substitution2: "'smcp' Lowercase to Small Capitals in Latin lookup 0 subtable" nine.sc
Substitution2: "'c2sc' Capitals to Small Capitals in Latin lookup 0 subtable" nine.sc
Substitution2: "'onum' Oldstyle Figures in Latin lookup 3-1" nine.onum
EndChar

StartChar: colon
Encoding: 58 58 26
Width: 202
Flags: W
HStem: -11 150<51.25 155.969> 281 150<51.25 155.969>
VStem: 29 150<12.2802 116 304.28 408>
LayerCount: 2
Fore
SplineSet
179 355 m 4
 179 315 146 281 105 281 c 31
 63 281 29 315 29 358 c 4
 29 398 63 431 104 431 c 31
 146 431 179 395 179 355 c 4
179 63 m 4
 179 23 146 -11 105 -11 c 31
 63 -11 29 23 29 66 c 4
 29 106 63 139 104 139 c 31
 146 139 179 103 179 63 c 4
EndSplineSet
Validated: 1
Substitution2: "'smcp' Lowercase to Small Capitals in Latin lookup 0 subtable" colon.sc
EndChar

StartChar: semicolon
Encoding: 59 59 27
Width: 215
Flags: W
HStem: 281 151<64.8889 164.448>
VStem: 40 147<305 409.243> 85 103<-43.687 88.6185>
LayerCount: 2
Fore
SplineSet
40 359 m 0xc0
 40 399 75 432 116 432 c 27
 156 432 187 399 187 359 c 0
 187 319 157 281 116 281 c 27
 74 281 40 319 40 359 c 0xc0
85 -18 m 0xa0
 85 15 54 14 54 62 c 0
 54 78 72 134 134 134 c 0
 142 134 163 134 174 126 c 1
 180 110 188 76 188 52 c 0
 188 30 178 -18 175 -25 c 0
 151 -87 76 -156 46 -168 c 0
 44 -168 l 0
 36 -168 22 -143 22 -134 c 0
 22 -127 85 -95 85 -18 c 0xa0
EndSplineSet
Validated: 1
Substitution2: "'smcp' Lowercase to Small Capitals in Latin lookup 0 subtable" semicolon.sc
EndChar

StartChar: less
Encoding: 60 60 28
Width: 464
Flags: W
LayerCount: 2
Fore
SplineSet
439 45 m 0
 439 38 429 -15 423 -15 c 0
 422 -15 420 -14 418 -13 c 2
 43 177 l 2
 28 185 25 200 25 217 c 0
 25 228 33 236 43 241 c 2
 416 428 l 2
 418 429 420 430 421 430 c 0
 424 430 431 410 438 373 c 0
 439 367 435 364 435 364 c 1
 117 209 l 1
 436 51 l 1
 436 51 439 50 439 45 c 0
EndSplineSet
Validated: 1
Substitution2: "'smcp' Lowercase to Small Capitals in Latin lookup 0 subtable" less.sc
EndChar

StartChar: equal
Encoding: 61 61 29
Width: 563
Flags: W
HStem: 134 59<77.9133 481.998> 278 59<77.9133 481.998>
LayerCount: 2
Fore
SplineSet
475 134 m 1
 314 134 241 134 69 134 c 1
 57 134 71 188 85 193 c 9
 488 193 l 17
 502 193 489 141 475 134 c 1
475 278 m 1
 314 278 241 278 69 278 c 1
 57 278 71 332 85 337 c 9
 488 337 l 17
 502 337 489 285 475 278 c 1
EndSplineSet
Validated: 33
Substitution2: "'smcp' Lowercase to Small Capitals in Latin lookup 0 subtable" equal.sc
EndChar

StartChar: greater
Encoding: 62 62 30
Width: 467
Flags: W
LayerCount: 2
Fore
SplineSet
27 45 m 0
 27 50 30 51 30 51 c 1
 349 209 l 1
 31 364 l 1
 31 364 27 367 28 373 c 0
 35 410 42 430 45 430 c 0
 46 430 48 429 50 428 c 2
 423 241 l 2
 433 236 441 228 441 217 c 0
 441 200 438 185 423 177 c 2
 48 -13 l 2
 46 -14 44 -15 43 -15 c 0
 37 -15 27 38 27 45 c 0
EndSplineSet
Validated: 1
Substitution2: "'smcp' Lowercase to Small Capitals in Latin lookup 0 subtable" greater.sc
EndChar

StartChar: question
Encoding: 63 63 31
Width: 386
Flags: W
HStem: -11 150<74.2891 175.25> 580 67<117.5 233.214>
VStem: 50 147<13.4641 117.875> 97 38<196.662 255.523> 263 85<427 549.841>
LayerCount: 2
Fore
SplineSet
50 66 m 4xe8
 50 108 84 139 122 139 c 4
 164 139 197 107 197 66 c 4
 197 25 166 -11 126 -11 c 4
 89 -11 50 21 50 66 c 4xe8
99 518 m 4
 61 518 37 551 37 584 c 4
 37 601 45 624 52 630 c 5
 66 638 93 647 142 647 c 4
 187 647 348 610 348 471 c 4
 348 383 275 349 222 316 c 4
 195 299 157 281 140 256 c 4
 133 246 135 224 135 214 c 5
 133 208 125 196 120 196 c 4
 112 196 101 204 97 208 c 5xd8
 90 224 77 268 77 308 c 4
 77 366 121 398 157 422 c 4
 207 455 263 498 263 532 c 4
 263 553 245 580 209 580 c 4
 173 580 141 518 99 518 c 4
EndSplineSet
Validated: 33
Substitution2: "'smcp' Lowercase to Small Capitals in Latin lookup 0 subtable" question.sc
EndChar

StartChar: at
Encoding: 64 64 32
Width: 819
Flags: W
HStem: -124 20<294.434 321> -7 62<515.5 618.258> -5 99<278.5 391> 389 54<423.77 531.5> 538 40<369.048 580.908>
VStem: 75 48<55.6187 284.93> 207 123<99.7792 218.188> 442 122<55.1974 162.287> 717 44<171.217 401.388>
LayerCount: 2
Back
SplineSet
452 578 m 0xdf80
 648 578 746 426 746 270 c 0
 746 117 657 -7 540 -7 c 0xdf80
 491 -7 457 18 457 79 c 0
 457 91 461 117 464 125 c 1
 445 88 381 -5 323 -5 c 3xbf80
 261 -5 228 60 228 130 c 3
 228 276 377 435 514 435 c 0
 549 435 568 429 587 422 c 9
 526 106 l 2
 525 102 523 86 523 81 c 0
 523 49 544 36 571 36 c 0
 634 36 706 142 706 267 c 0
 706 402 626 538 452 538 c 0
 248 538 123 344 123 170 c 0
 123 53 184 -36 256 -78 c 0
 292 -99 312 -103 331 -106 c 1
 331 -114 307 -124 295 -124 c 0
 283 -124 269 -123 256 -118 c 0
 164 -84 83 29 83 170 c 0
 83 366 220 578 452 578 c 0xdf80
472 389 m 3
 395 389 302 266 302 151 c 0
 302 89 318 53 353 53 c 3xbf80
 403 53 474 178 493 274 c 2
 513 376 l 17
 504 386 485 389 472 389 c 3
EndSplineSet
Fore
SplineSet
475 578 m 0xdf80
 671 578 761 446 761 290 c 0
 761 137 657 -7 540 -7 c 0xdf80
 491 -7 442 18 442 79 c 0
 442 87 443 100 446 108 c 1
 427 71 365 -5 304 -5 c 3xbf80
 253 -5 207 16 207 120 c 3
 207 266 372 443 514 443 c 0
 549 443 604 437 623 430 c 9
 567 127 l 2
 566 123 564 107 564 102 c 0
 564 88 560 55 587 55 c 0
 637 55 717 158 717 283 c 0
 717 418 649 538 475 538 c 0
 271 538 123 344 123 170 c 0
 123 53 186 -35 258 -77 c 0
 294 -98 316 -101 335 -104 c 1
 335 -112 311 -124 295 -124 c 0
 278 -124 263 -120 250 -115 c 0
 158 -81 75 24 75 165 c 0
 75 361 243 578 475 578 c 0xdf80
472 389 m 3
 389 389 330 263 330 148 c 0
 330 111 347 94 370 94 c 3xbf80
 412 94 456 164 478 274 c 2
 498 376 l 17
 489 386 485 389 472 389 c 3
EndSplineSet
Validated: 33
Substitution2: "'smcp' Lowercase to Small Capitals in Latin lookup 0 subtable" at.sc
EndChar

StartChar: A
Encoding: 65 65 33
Width: 720
Flags: W
HStem: -4 37<169.911 238.862 420.437 481.334 642.823 704.543> 4 29<176.694 235.364> 225 48<239 406.999> 642 20G<367.5 377.5>
LayerCount: 2
Fore
SplineSet
123 134 m 6xb0
 336 624 l 6
 342 637 362 662 373 662 c 0
 382 662 388 658 390 655 c 1
 595 148 l 2
 608 117 614 97 623 76 c 0
 640 35 694 33 702 33 c 1
 707 24 708 0 704 -4 c 1xb0
 664 -2 618 4 574 4 c 0x70
 528 4 459 -2 423 -4 c 1
 418 1 418 33 423 33 c 1
 440 33 468 39 482 51 c 0
 488 56 491 61 491 68 c 0
 491 77 431 220 431 220 c 1
 431 220 427 224 424 224 c 0
 386 226 353 225 328 225 c 0
 287 225 259 225 224 224 c 4
 221 224 218 221 217 219 c 5
 217 219 192 163 181 135 c 4
 171 110 159 74 159 67 c 4
 159 41 228 33 236 33 c 1
 242 26 240 0 237 -4 c 1xb0
 202 0 173 4 129 4 c 0x70
 83 4 55 0 20 -4 c 1
 16 0 14 21 18 32 c 1
 30 32 78 48 88 64 c 4
 105 92 111 106 123 134 c 6xb0
241 276 m 4
 261 274 301 273 324 273 c 0
 355 273 373 273 404 275 c 0
 406 275 407 280 407 280 c 1
 324 476 l 5
 239 280 l 5
 239 280 239 276 241 276 c 4
EndSplineSet
Validated: 33
Substitution2: "'c2sc' Capitals to Small Capitals in Latin lookup 0 subtable" a.sc
Substitution2: "'c2sc' Capitals to Small Capitals in Latin lookup 0 subtable" a.sc
EndChar

StartChar: B
Encoding: 66 66 34
Width: 605
Flags: W
HStem: -3 42<29.9366 97.6406 251.39 376.936> 332 39<243 345.994> 620 40<29.2383 97.3484 245.682 353.127>
VStem: 103 140<51.5828 332 371 616.164> 390 135<431.674 584.615> 428 150<118.079 264.355>
LayerCount: 2
Fore
SplineSet
243 547 m 2xf8
 243 371 l 1
 295 371 l 2
 345 371 390 415 390 490 c 0
 390 585 349 620 298 620 c 0
 275 620 253 619 248 608 c 0
 243 596 243 576 243 547 c 2xf8
327 660 m 0
 420 660 525 627 525 496 c 0xf8
 525 416 437 372 421 366 c 0
 413 363 415 360 416 360 c 0
 466 354 578 294 578 192 c 0xf4
 578 133 534 72 472 35 c 0
 413 0 338 -4 264 -3 c 0
 222 -3 70 -2 31 -3 c 1
 27 3 26 27 31 34 c 1
 44 35 90 38 95 51 c 0
 103 71 103 102 103 145 c 2
 103 513 l 2
 103 556 103 587 95 607 c 0
 90 620 44 622 31 623 c 1
 26 630 27 654 31 660 c 1
 76 657 132 657 174 657 c 0
 216 657 269 660 327 660 c 0
243 332 m 1
 243 109 l 2
 243 103 243 63 251 51 c 0
 259 40 288 39 314 39 c 0
 360 39 428 73 428 176 c 0xf4
 428 251 390 332 295 332 c 2
 243 332 l 1
EndSplineSet
Validated: 33
Substitution2: "'c2sc' Capitals to Small Capitals in Latin lookup 0 subtable" b.sc
Substitution2: "'c2sc' Capitals to Small Capitals in Latin lookup 0 subtable" b.sc
EndChar

StartChar: C
Encoding: 67 67 35
Width: 658
Flags: W
HStem: -7 44<311.782 491.021> 624 43<290.649 474.296>
VStem: 25 151<209.287 440.317> 591 35<160.241 196.828>
LayerCount: 2
Fore
SplineSet
626 192 m 1
 626 181 600 46 585 40 c 0
 522 17 458 -7 366 -7 c 0
 178 -7 25 140 25 322 c 0
 25 509 178 667 368 667 c 0
 434 667 517 660 576 648 c 1
 578 637 610 509 610 497 c 0
 610 491 596 482 584 482 c 3
 579 482 574 482 570 486 c 1
 560 525 518 624 377 624 c 0
 236 624 176 492 176 352 c 0
 176 196 246 37 397 37 c 0
 457 37 494 55 521 80 c 0
 563 118 589 196 591 204 c 1
 606 204 618 199 626 192 c 1
EndSplineSet
Validated: 1
Substitution2: "'c2sc' Capitals to Small Capitals in Latin lookup 0 subtable" c.sc
Substitution2: "'c2sc' Capitals to Small Capitals in Latin lookup 0 subtable" c.sc
EndChar

StartChar: D
Encoding: 68 68 36
Width: 751
Flags: W
HStem: -6 45<29.9366 98.1946 251.299 429.606> 620 40<29.2383 97.3484 245.682 400.199>
VStem: 103 140<49.4974 616.164> 564 156<214.685 455.811>
LayerCount: 2
Fore
SplineSet
243 547 m 2
 243 141 l 2
 243 135 243 82 251 62 c 0
 257 48 288 39 314 39 c 0
 477 39 564 130 564 325 c 0
 564 521 449 620 298 620 c 0
 275 620 253 619 248 608 c 0
 243 596 243 576 243 547 c 2
174 657 m 0
 216 657 268 659 327 660 c 0
 558 660 720 541 720 336 c 0
 720 102 520 -6 279 -6 c 0
 237 -6 70 -2 31 -3 c 1
 27 3 26 27 31 34 c 1
 44 35 90 38 95 51 c 0
 103 71 103 102 103 145 c 2
 103 513 l 2
 103 556 103 587 95 607 c 0
 90 620 44 622 31 623 c 1
 26 630 27 654 31 660 c 1
 76 657 132 657 174 657 c 0
EndSplineSet
Validated: 33
Substitution2: "'c2sc' Capitals to Small Capitals in Latin lookup 0 subtable" d.sc
Substitution2: "'c2sc' Capitals to Small Capitals in Latin lookup 0 subtable" d.sc
EndChar

StartChar: E
Encoding: 69 69 37
Width: 605
Flags: W
HStem: -3 37<28.7205 95.3692> -2 44<250.273 461.133> 310 47<243 390.427> 620 37<29.6465 96.7323 246.003 436.441>
VStem: 103 140<50.3979 306.897 358.474 616.164> 427 31<386.617 434.825>
LayerCount: 2
Fore
SplineSet
243 547 m 6xbc
 243 368 l 6
 243 362 264 357 286 357 c 6
 339 357 l 6
 398 357 411 369 427 427 c 4
 428 432 432 435 439 435 c 4
 446 435 455 433 458 430 c 5
 458 238 l 5
 456 236 447 234 440 234 c 4
 433 234 427 237 426 242 c 4
 414 290 400 299 391 303 c 4
 379 308 353 310 315 310 c 4
 287 310 243 308 243 296 c 6
 243 141 l 6
 243 135 243 82 251 62 c 4
 257 48 290 42 316 42 c 4
 382 42 l 6
 420 42 452 52 475 75 c 4
 496 96 512 125 529 170 c 4
 530 174 536 176 543 176 c 4
 553 176 570 173 573 170 c 5
 554 116 526 42 519 -2 c 5x7c
 477 -2 70 -2 31 -3 c 5
 27 3 26 27 31 34 c 5
 44 35 90 38 95 51 c 4
 103 71 103 102 103 145 c 6
 103 513 l 6
 103 556 103 587 95 607 c 4
 90 620 44 622 31 623 c 5
 26 630 27 654 31 660 c 5
 76 657 132 657 174 657 c 4
 216 657 440 663 499 664 c 5
 506 614 519 561 528 516 c 5
 525 513 512 511 505 511 c 4
 498 511 491 514 489 519 c 4
 468 574 442 620 381 620 c 6
 298 620 l 4
 275 620 253 619 248 608 c 4
 243 596 243 576 243 547 c 6xbc
EndSplineSet
Validated: 33
Substitution2: "'c2sc' Capitals to Small Capitals in Latin lookup 0 subtable" e.sc
Substitution2: "'c2sc' Capitals to Small Capitals in Latin lookup 0 subtable" e.sc
EndChar

StartChar: F
Encoding: 70 70 38
Width: 605
Flags: W
HStem: -4 37<28.7205 94.9985 251.001 317.279> 306 47<243 390.427> 620 37<29.6465 96.7323 246.003 436.441>
VStem: 103 140<41.2661 302.897 354.474 616.164> 427 31<382.617 430.825>
LayerCount: 2
Fore
SplineSet
243 547 m 2
 243 364 l 2
 243 358 264 353 286 353 c 2
 339 353 l 2
 398 353 411 365 427 423 c 0
 428 428 432 431 439 431 c 0
 446 431 455 429 458 426 c 1
 458 234 l 1
 456 232 447 230 440 230 c 0
 433 230 427 233 426 238 c 0
 414 286 400 295 391 299 c 0
 379 304 353 306 315 306 c 0
 287 306 243 304 243 292 c 2
 243 145 l 2
 243 102 243 71 251 51 c 0
 256 38 302 34 315 33 c 1
 320 26 319 2 315 -4 c 1
 276 0 214 3 172 3 c 0
 130 3 70 0 31 -4 c 1
 27 2 26 26 31 33 c 1
 44 34 90 38 95 51 c 0
 103 71 103 102 103 145 c 2
 103 513 l 2
 103 556 103 587 95 607 c 0
 90 620 44 622 31 623 c 1
 26 630 27 654 31 660 c 1
 76 657 132 657 174 657 c 0
 216 657 440 663 499 664 c 1
 506 614 519 561 528 516 c 1
 525 513 512 511 505 511 c 0
 498 511 491 514 489 519 c 0
 468 574 442 620 381 620 c 2
 298 620 l 0
 275 620 253 619 248 608 c 0
 243 596 243 576 243 547 c 2
EndSplineSet
Validated: 33
Substitution2: "'c2sc' Capitals to Small Capitals in Latin lookup 0 subtable" f.sc
Substitution2: "'c2sc' Capitals to Small Capitals in Latin lookup 0 subtable" f.sc
EndChar

StartChar: G
Encoding: 71 71 39
Width: 738
Flags: W
HStem: -7 43<335.353 505.289> 261 37<437.657 501.882 654.532 709.455> 624 43<313.068 499.806>
VStem: 48 151<206.867 440.781> 512 130<52.0952 247.801>
LayerCount: 2
Back
SplineSet
649 192 m 5
 649 181 623 46 608 40 c 4
 545 17 481 -7 389 -7 c 4
 201 -7 48 140 48 322 c 4
 48 509 201 667 391 667 c 4
 457 667 540 660 599 648 c 5
 601 637 633 509 633 497 c 4
 633 491 619 482 607 482 c 7
 602 482 597 482 593 486 c 5
 583 525 541 624 400 624 c 4
 259 624 199 492 199 352 c 4
 199 196 269 37 420 37 c 4
 480 37 516.734 55.3311 544 80 c 4
 586 118 612 196 614 204 c 5
 629 204 641 199 649 192 c 5
EndSplineSet
Fore
SplineSet
507 234 m 0
 500 259 453 261 441 261 c 0
 436 261 435 293 440 298 c 1
 491 296 534 292 585 292 c 0
 627 292 668 296 708 298 c 1
 712 285 710 261 707 261 c 1
 699 261 665 255 654 248 c 0
 648 244 642 224 642 205 c 0
 642 168 642 132 642 98 c 0
 642 89 648 74 648 69 c 0
 648 58 626 48 613 43 c 0
 550 19 481 -7 389 -7 c 0
 200 -7 48 140 48 322 c 0
 48 509 201 667 391 667 c 0
 457 667 540 660 599 648 c 1
 601 637 633 509 633 497 c 0
 633 491 619 482 607 482 c 3
 602 482 597 482 593 486 c 1
 583 525 543 624 402 624 c 0
 254 624 199 486 199 346 c 0
 199 190 276 36 417 36 c 0
 455 36 485 44 503 52 c 0
 507 54 512 58 512 67 c 0
 512 82 512 135 512 183 c 0
 512 203 513 212 507 234 c 0
EndSplineSet
Validated: 33
Substitution2: "'c2sc' Capitals to Small Capitals in Latin lookup 0 subtable" g.sc
Substitution2: "'c2sc' Capitals to Small Capitals in Latin lookup 0 subtable" g.sc
EndChar

StartChar: H
Encoding: 72 72 40
Width: 728
Flags: W
HStem: -4 37<27.7205 93.9985 250.001 316.279 408.721 474.999 631.002 697.279> 317 51<243.145 483> 625 37<27.7205 93.9985 250.001 316.279 408.721 474.999 631.002 697.279>
VStem: 102 140<41.2661 312.952 368.001 616.734> 483 140<41.2661 314.998 368.001 616.734>
LayerCount: 2
Fore
SplineSet
242 309 m 1
 242 145 l 2
 242 102 242 71 250 51 c 0
 255 38 301 34 314 33 c 1
 319 26 318 2 314 -4 c 1
 275 0 213 3 171 3 c 0
 129 3 69 0 30 -4 c 1
 26 2 25 26 30 33 c 1
 43 34 89 38 94 51 c 0
 102 71 102 102 102 145 c 2
 102 513 l 2
 102 556 102 587 94 607 c 0
 89 620 43 624 30 625 c 1
 25 632 26 656 30 662 c 1
 69 658 131 655 173 655 c 0
 215 655 275 658 314 662 c 1
 318 656 319 632 314 625 c 1
 301 624 255 620 250 607 c 0
 242 587 242 556 242 513 c 2
 242 371 l 1
 242 369 244 368 244 368 c 1
 283 367 320 365 365 365 c 0
 402 365 446 367 482 368 c 1
 482 368 484 370 484 372 c 0
 483 513 l 2
 483 556 483 587 475 607 c 0
 470 620 424 624 411 625 c 1
 406 632 407 656 411 662 c 1
 450 658 512 655 554 655 c 0
 596 655 656 658 695 662 c 1
 699 656 700 632 695 625 c 1
 682 624 636 620 631 607 c 0
 623 587 623 556 623 513 c 2
 623 145 l 2
 623 102 623 71 631 51 c 0
 636 38 682 34 695 33 c 1
 700 26 699 2 695 -4 c 1
 656 0 594 3 552 3 c 0
 510 3 450 0 411 -4 c 1
 407 2 406 26 411 33 c 1
 424 34 470 38 475 51 c 0
 483 71 483 102 483 145 c 2
 483 310 l 0
 483 312 481 315 481 315 c 1
 444 316 406 317 365 317 c 0
 254 317 246 315 243 313 c 1
 242 312 242 309 242 309 c 1
EndSplineSet
Validated: 33
Substitution2: "'c2sc' Capitals to Small Capitals in Latin lookup 0 subtable" h.sc
Substitution2: "'c2sc' Capitals to Small Capitals in Latin lookup 0 subtable" h.sc
EndChar

StartChar: I
Encoding: 73 73 41
Width: 322
Flags: W
HStem: -4 37<27.7205 93.9985 250.001 316.279> 625 37<27.7205 93.9985 250.001 316.279>
VStem: 102 140<41.2661 616.734>
LayerCount: 2
Fore
SplineSet
173 655 m 4
 215 655 275 658 314 662 c 5
 318 656 319 632 314 625 c 5
 301 624 255 620 250 607 c 4
 242 587 242 556 242 513 c 6
 242 145 l 6
 242 102 242 71 250 51 c 4
 255 38 301 34 314 33 c 5
 319 26 318 2 314 -4 c 5
 275 0 213 3 171 3 c 4
 129 3 69 0 30 -4 c 5
 26 2 25 26 30 33 c 5
 43 34 89 38 94 51 c 4
 102 71 102 102 102 145 c 6
 102 513 l 6
 102 556 102 587 94 607 c 4
 89 620 43 624 30 625 c 5
 25 632 26 656 30 662 c 5
 69 658 131 655 173 655 c 4
EndSplineSet
Validated: 33
Substitution2: "'c2sc' Capitals to Small Capitals in Latin lookup 0 subtable" i.sc
Substitution2: "'c2sc' Capitals to Small Capitals in Latin lookup 0 subtable" i.sc
EndChar

StartChar: J
Encoding: 74 74 42
Width: 406
Flags: W
HStem: -218 61<21.5 148.274> 625 37<112.721 178.999 335.001 401.279>
VStem: 187 140<-9.59375 616.734>
LayerCount: 2
Fore
SplineSet
187 513 m 2
 187 556 187 587 179 607 c 0
 174 620 128 624 115 625 c 1
 110 632 111 656 115 662 c 1
 154 658 216 655 258 655 c 0
 300 655 360 658 399 662 c 1
 403 656 404 632 399 625 c 1
 386 624 340 620 335 607 c 0
 327 587 327 556 327 513 c 2
 327 143 l 6
 327 -85 213 -218 31 -218 c 7
 12 -218 -17 -207 -26 -200 c 5
 -33 -189 -42 -178 -42 -157 c 7
 -42 -123 -14 -90 18 -90 c 7
 63 -90 91 -157 122 -157 c 7
 185 -157 187 -31 187 135 c 6
 187 513 l 2
EndSplineSet
Validated: 33
Substitution2: "'c2sc' Capitals to Small Capitals in Latin lookup 0 subtable" j.sc
Substitution2: "'c2sc' Capitals to Small Capitals in Latin lookup 0 subtable" j.sc
EndChar

StartChar: K
Encoding: 75 75 43
Width: 728
Flags: W
HStem: -4 37<28.6465 92.3225 250.818 315.354 654.752 722.721> 625 37<27.7205 93.9985 250.001 316.279 427.555 485.525 602.944 682.298>
VStem: 102 140<41.2661 305.999 337 616.734>
LayerCount: 2
Back
SplineSet
588 72 m 4
 613 49 642 30 697 26 c 5
 702 21 697 -1 696 -3 c 5
 629 -3 574 1 554 8 c 4
 540 13 514 23 486 51 c 4
 465 72 374 175 261 304 c 4
 259 307 256 307 252 307 c 4
 249 307 245 306 243 305 c 5
 243 116 l 6
 243 86 243 58 248 42 c 4
 251 31 305 26 317 26 c 5
 321 21 322 2 317 -3 c 5
 276 -1 239 2 200 2 c 4
 161 2 123 -1 82 -3 c 5
 77 2 78 21 82 26 c 5
 94 26 148 31 151 42 c 4
 156 58 156 86 156 116 c 6
 156 543 l 6
 156 573 156 601 151 617 c 4
 148 628 94 633 82 633 c 5
 78 638 77 657 82 662 c 5
 123 660 161 657 200 657 c 4
 239 657 276 660 317 662 c 5
 322 657 321 638 317 633 c 5
 305 633 251 628 248 617 c 4
 243 601 243 573 243 543 c 6
 243 340 l 5
 264 353 315 399 356 439 c 4
 434 516 436 515 483 576 c 4
 489 584 497 597 497 607 c 4
 497 632 450 632 441 632 c 5
 438 638 438 653 441 662 c 5
 478 660 519 656 556 656 c 4
 600 656 624 660 664 662 c 5
 666 656 667 632 662 632 c 4
 653 631 597 632 563 595 c 4
 477 501 421 450 334 366 c 4
 328 360 332 355 336 350 c 4
 432 238 511 145 588 72 c 4
EndSplineSet
Fore
SplineSet
173 655 m 0
 215 655 275 658 314 662 c 1
 318 656 319 632 314 625 c 1
 301 624 255 620 250 607 c 0
 242 587 242 556 242 513 c 2
 242 337 l 1
 286 372 322 403 346 428 c 0
 406 489 434 514 476 570 c 0
 486 583 486 596 486 603 c 0
 486 624 444 626 430 626 c 1
 425 634 425 653 428 662 c 1
 465 660 521 655 558 655 c 0
 602 655 645 658 682 662 c 1
 685 655 685 633 680 627 c 1
 671 626 603 619 567 583 c 2
 567 583 454 468 379 389 c 0
 373 382 373 378 376 373 c 4
 449 275 556 130 556 130 c 5
 630 36 714 33 722 33 c 5
 727 26 723 -2 722 -4 c 5
 693 -6 632 -8 591 -8 c 4
 514 -8 463 33 438 67 c 4
 412 103 306 243 262 302 c 4
 259 305 254 306 252 306 c 0
 248 306 244 304 242 300 c 1
 242 145 l 2
 242 102 242 71 250 51 c 0
 255 38 301 34 314 33 c 1
 319 26 318 2 314 -4 c 1
 275 0 213 3 171 3 c 0
 129 3 69 0 30 -4 c 1
 26 2 25 26 30 33 c 1
 43 34 89 38 94 51 c 0
 102 71 102 102 102 145 c 2
 102 513 l 2
 102 556 102 587 94 607 c 0
 89 620 43 624 30 625 c 1
 25 632 26 656 30 662 c 1
 69 658 131 655 173 655 c 0
EndSplineSet
Validated: 33
Substitution2: "'c2sc' Capitals to Small Capitals in Latin lookup 0 subtable" k.sc
Substitution2: "'c2sc' Capitals to Small Capitals in Latin lookup 0 subtable" k.sc
EndChar

StartChar: L
Encoding: 76 76 44
Width: 588
Flags: W
HStem: -3 37<28.7205 95.3692> -2 44<250.273 461.133> 625 37<28.7205 94.9985 251.001 317.279>
VStem: 103 140<50.3979 616.734>
LayerCount: 2
Fore
SplineSet
243 141 m 2xb0
 243 135 243 82 251 62 c 0
 257 48 290 42 316 42 c 0
 382 42 l 2
 420 42 452 52 475 75 c 0
 496 96 512 125 529 170 c 0
 530 174 536 176 543 176 c 0
 553 176 570 173 573 170 c 1
 554 116 526 42 519 -2 c 1x70
 477 -2 70 -2 31 -3 c 1
 27 3 26 27 31 34 c 1
 44 35 90 38 95 51 c 0
 103 71 103 102 103 145 c 2
 103 513 l 2
 103 556 103 587 95 607 c 0
 90 620 44 624 31 625 c 1
 26 632 27 656 31 662 c 1
 70 658 132 655 174 655 c 0
 216 655 276 658 315 662 c 1
 319 656 320 632 315 625 c 1
 302 624 256 620 251 607 c 0
 243 587 243 556 243 513 c 2
 243 141 l 2xb0
EndSplineSet
Validated: 33
Substitution2: "'c2sc' Capitals to Small Capitals in Latin lookup 0 subtable" l.sc
Substitution2: "'c2sc' Capitals to Small Capitals in Latin lookup 0 subtable" l.sc
EndChar

StartChar: M
Encoding: 77 77 45
Width: 898
Flags: W
HStem: -4 37<16.8338 92.6308 186.162 267.893 583.466 651.51 806.483 871.184> 625 37<53.1049 120.557 792.486 843.193>
LayerCount: 2
Fore
SplineSet
170 656 m 0
 204 656 235 660 275 662 c 1
 304 598 392 404 467 234 c 1
 467 234 470 232 471 232 c 0
 472 232 475 237 475 238 c 2
 475 238 547 425 590 546 c 24
 605 589 623 658 623 658 c 1
 632 657 685 656 704 656 c 0
 738 656 800 660 840 662 c 1
 844 658 849 632 844 624 c 1
 836 624 802 620 792 613 c 0
 782 606 777 599 778 572 c 0
 781 502 787 280 793 152 c 0
 795 113 796 77 806 51 c 0
 812 37 861 33 869 33 c 1
 873 24 874 6 871 -4 c 1
 831 -2 787 4 743 4 c 0
 697 4 632 -2 586 -4 c 1
 582 0 581 25 584 33 c 1
 596 33 645 38 654 52 c 0
 659 60 662 77 662 87 c 0
 662 97 662 130 661 148 c 2
 652 456 l 2
 651 473 651 523 644 523 c 0
 642 523 641 521 639 516 c 2
 470 40 l 2
 467 31 445 -2 427 -2 c 0
 424 -2 421 -1 418 0 c 1
 189 534 l 1
 182 326 181 262 174 98 c 4
 174 89 174 69 175 62 c 4
 179 41 258 33 266 33 c 5
 269 26 271 6 268 -4 c 5
 228 -2 188 4 144 4 c 4
 98 4 65 -2 19 -4 c 5
 15 3 15 22 18 32 c 5
 30 32 104 39 110 72 c 4
 113 88 113 104 114 120 c 4
 120 237 129 533 131 580 c 0
 131 587 131 595 126 602 c 0
 118 613 72 625 55 625 c 1
 49 633 53 660 55 662 c 1
 101 660 124 656 170 656 c 0
EndSplineSet
Validated: 33
Substitution2: "'c2sc' Capitals to Small Capitals in Latin lookup 0 subtable" m.sc
Substitution2: "'c2sc' Capitals to Small Capitals in Latin lookup 0 subtable" m.sc
EndChar

StartChar: N
Encoding: 78 78 46
Width: 777
Flags: W
HStem: -4 37<35.2754 114.12 203.793 285.584> 625 30<41.4447 112.203> 633 37<494.275 573.12 662.793 744.584> 642 20G<249 284>
VStem: 129 61<47.3438 524> 588 61<243.338 618.656>
LayerCount: 2
Back
SplineSet
193 98 m 4
 193 89 193 69 194 62 c 4
 198 41 277 33 285 33 c 5
 288 26 290 6 287 -4 c 5
 247 -2 207 4 163 4 c 4
 117 4 84 -2 38 -4 c 5
 34 3 34 22 37 32 c 5
 49 32 122.894 39.4316 129 72 c 4
 132 88 132 104 133 120 c 4
EndSplineSet
Fore
SplineSet
156 655 m 4xcc
 191 655 233 658 265 662 c 5x9c
 303 584 461 404 586 243 c 5
 588 250 588 270 588 284 c 6
 588 522 l 4
 588 560 588 592 581 607 c 4
 573 625 508 633 496 633 c 5
 494 633 491 661 496 670 c 5xac
 542 668 572 662 618 662 c 4x9c
 662 662 704 668 744 670 c 5xac
 746 664 748 642 742 632 c 5
 734 632 661 625 654 606 c 4
 649 592 649 561 649 525 c 6
 649 139 l 6
 649 81 651 51 653 -1 c 5
 650 -4 631 -5 628 -5 c 4
 619 -5 608 5 597 18 c 6
 190 524 l 5
 190 141 l 6
 190 105 190 74 195 60 c 4
 202 41 275 34 283 34 c 5
 289 24 287 2 285 -4 c 5
 245 -2 203 4 159 4 c 4
 113 4 83 -2 37 -4 c 5
 32 5 35 33 37 33 c 5
 49 33 114 41 122 59 c 4
 129 74 129 106 129 144 c 4
 129 275 129 406 129 537 c 4
 129 565 127 589 114 608 c 4
 107 619 57 625 45 625 c 4xcc
 40 625 38 657 43 662 c 5x9c
 74 660 110 655 156 655 c 4xcc
EndSplineSet
Validated: 33
Substitution2: "'c2sc' Capitals to Small Capitals in Latin lookup 0 subtable" n.sc
Substitution2: "'c2sc' Capitals to Small Capitals in Latin lookup 0 subtable" n.sc
EndChar

StartChar: O
Encoding: 79 79 47
Width: 755
Flags: W
HStem: -10 43<320.085 468.834> 624 43<286.08 434.576>
VStem: 41 151<211.696 443.97> 564 151<211.714 444.117>
LayerCount: 2
Fore
SplineSet
354 624 m 7
 236 624 192 484 192 363 c 7
 192 210 250 33 399 33 c 7
 518 33 564 171 564 292 c 7
 564 445 503 624 354 624 c 7
378 667 m 4
 554 667 715 515 715 328 c 4
 715 141 554 -10 378 -10 c 4
 202 -10 41 141 41 328 c 4
 41 515 202 667 378 667 c 4
EndSplineSet
Validated: 1
Substitution2: "'c2sc' Capitals to Small Capitals in Latin lookup 0 subtable" o.sc
Substitution2: "'c2sc' Capitals to Small Capitals in Latin lookup 0 subtable" o.sc
EndChar

StartChar: P
Encoding: 80 80 48
Width: 575
Flags: W
HStem: -4 37<28.7205 94.9985 251.001 317.279> 287 51<288.633 372.611> 620 40<29.2383 97.3484 245.682 351.137>
VStem: 103 140<41.2661 616.164> 412 142<391.288 557.362>
LayerCount: 2
Fore
SplineSet
174 657 m 0
 216 657 269 660 328 660 c 0
 453 660 554 596 554 482 c 0
 554 362 458 287 357 287 c 0
 321 287 295 303 288 310 c 0
 282 316 277 342 284 342 c 1
 294 339 310 338 325 338 c 0
 374 338 412 391 412 468 c 0
 412 547 365 620 298 620 c 0
 275 620 253 619 248 608 c 0
 243 596 243 576 243 547 c 2
 243 145 l 2
 243 102 243 71 251 51 c 0
 256 38 302 34 315 33 c 1
 320 26 319 2 315 -4 c 1
 276 0 214 3 172 3 c 0
 130 3 70 0 31 -4 c 1
 27 2 26 26 31 33 c 1
 44 34 90 38 95 51 c 0
 103 71 103 102 103 145 c 2
 103 513 l 2
 103 556 103 587 95 607 c 0
 90 620 44 622 31 623 c 1
 26 630 27 654 31 660 c 1
 76 657 132 657 174 657 c 0
EndSplineSet
Validated: 33
Substitution2: "'c2sc' Capitals to Small Capitals in Latin lookup 0 subtable" p.sc
Substitution2: "'c2sc' Capitals to Small Capitals in Latin lookup 0 subtable" p.sc
EndChar

StartChar: Q
Encoding: 81 81 49
Width: 755
Flags: W
HStem: -143 69<537.354 714.078> 624 43<286.08 434.576>
VStem: 41 151<213.589 443.97> 564 151<213.119 444.117>
LayerCount: 2
Fore
SplineSet
378 667 m 0
 554 667 715 515 715 328 c 0
 715 178 612 51 480 7 c 1
 572 -38 601 -74 703 -74 c 0
 743 -74 773 -65 780 -65 c 0
 788 -65 791 -74 791 -84 c 2
 791 -89 l 1
 736 -118 655 -143 594 -143 c 0
 484 -143 407 -33 299 0 c 0
 155 38 41 170 41 328 c 0
 41 515 202 667 378 667 c 0
354 624 m 0
 236 624 192 484 192 363 c 0
 192 210 250 33 399 33 c 0
 518 33 564 171 564 292 c 0
 564 445 503 624 354 624 c 0
EndSplineSet
Validated: 1
Substitution2: "'c2sc' Capitals to Small Capitals in Latin lookup 0 subtable" q.sc
Substitution2: "'c2sc' Capitals to Small Capitals in Latin lookup 0 subtable" q.sc
EndChar

StartChar: R
Encoding: 82 82 50
Width: 720
Flags: W
HStem: -4 37<28.6465 92.3225 250.818 315.354 653.752 721.721> 299 39<242 277.531> 620 40<28.2383 96.3484 244.682 350.081>
VStem: 102 140<41.2661 299 338 616.164> 406 142<406.655 561.744>
LayerCount: 2
Fore
SplineSet
327 660 m 4
 452 660 548 598 548 478 c 4
 548 396 458 328 410 316 c 5
 483 218 555 130 555 130 c 5
 629 36 713 33 721 33 c 5
 726 26 722 -2 721 -4 c 5
 692 -6 631 -8 590 -8 c 4
 513 -8 462 33 437 67 c 4
 275 284 l 4
 275 284 265 299 257 299 c 4
 250 299 242 299 242 299 c 13
 242 145 l 6
 242 102 242 71 250 51 c 4
 255 38 301 34 314 33 c 5
 319 26 318 2 314 -4 c 5
 275 0 213 3 171 3 c 4
 129 3 69 0 30 -4 c 5
 26 2 25 26 30 33 c 5
 43 34 89 38 94 51 c 4
 102 71 102 102 102 145 c 6
 102 513 l 6
 102 556 102 587 94 607 c 4
 89 620 43 622 30 623 c 5
 25 630 26 654 30 660 c 5
 75 657 131 657 173 657 c 4
 215 657 268 660 327 660 c 4
406 472 m 4
 406 551 364 620 297 620 c 4
 274 620 252 619 247 608 c 4
 242 596 242 576 242 547 c 6
 242 338 l 21
 282 338 l 4
 347 338 406 395 406 472 c 4
EndSplineSet
Validated: 33
Substitution2: "'c2sc' Capitals to Small Capitals in Latin lookup 0 subtable" r.sc
Substitution2: "'c2sc' Capitals to Small Capitals in Latin lookup 0 subtable" r.sc
EndChar

StartChar: S
Encoding: 83 83 51
Width: 500
Flags: W
HStem: -10 42<172.098 300.788> 628 42<199.864 316.921>
VStem: 34 42<137.613 197.961> 41 133<482.675 565.673> 335 131<94.7615 193.013> 392 41<470.077 538.743>
LayerCount: 2
Fore
SplineSet
238 32 m 4xe8
 276 32 335 50 335 130 c 4xe8
 335 208 237 261 187 295 c 4
 114 344 41 385 41 489 c 4
 41 592 151 670 254 670 c 4
 313 670 361 655 422 642 c 5
 427 589 430 537 433 476 c 5
 430 472 426 470 422 470 c 4
 419 470 394 469 392 477 c 4
 384 533 336 628 259 628 c 4
 220 628 174 608 174 541 c 4xd4
 174 479 253 419 319 377 c 4
 386 334 466 308 466 175 c 4
 466 65 358 -10 248 -10 c 4
 189 -10 118 2 58 16 c 5
 48 60 36 158 34 186 c 5
 38 192 58 200 63 200 c 4
 70 200 75 198 76 192 c 4
 85 138 148 32 238 32 c 4xe8
EndSplineSet
Validated: 1
Substitution2: "'c2sc' Capitals to Small Capitals in Latin lookup 0 subtable" s.sc
Substitution2: "'c2sc' Capitals to Small Capitals in Latin lookup 0 subtable" s.sc
EndChar

StartChar: T
Encoding: 84 84 52
Width: 678
Flags: W
HStem: -4 37<194.721 260.999 417.001 483.279> 613 44<124.634 269 409 553.366>
VStem: 30 39<482.931 537.849> 269 140<41.2661 613> 609 39<482.931 537.849>
CounterMasks: 1 38
LayerCount: 2
Fore
SplineSet
505 657 m 0
 577 657 591 676 609 676 c 0
 617 676 617 675 621 673 c 1
 648 489 l 1
 645 486 628 482 619 482 c 0
 614 482 610 483 609 487 c 0
 599 552 553 613 502 613 c 2
 409 613 l 1
 409 145 l 2
 409 102 409 71 417 51 c 0
 422 38 468 34 481 33 c 1
 486 26 485 2 481 -4 c 1
 442 0 380 3 338 3 c 0
 296 3 236 0 197 -4 c 1
 193 2 192 26 197 33 c 1
 210 34 256 38 261 51 c 0
 269 71 269 102 269 145 c 2
 269 613 l 1
 176 613 l 2
 125 613 79 552 69 487 c 0
 68 483 64 482 59 482 c 0
 50 482 33 486 30 489 c 1
 57 673 l 1
 61 675 61 676 69 676 c 0
 87 676 101 657 173 657 c 0
 262 657 416 657 505 657 c 0
EndSplineSet
Validated: 33
Substitution2: "'c2sc' Capitals to Small Capitals in Latin lookup 0 subtable" t.sc
Substitution2: "'c2sc' Capitals to Small Capitals in Latin lookup 0 subtable" t.sc
EndChar

StartChar: U
Encoding: 85 85 53
Width: 742
Flags: W
HStem: -5 74<309.314 494.177> 625 37<5.72051 71.9985 228.001 294.279 492.721 569.998 648.002 727.279>
VStem: 80 140<170.152 616.734> 578 62<159.332 615.567>
LayerCount: 2
Fore
SplineSet
640 519 m 2
 640 318 l 2
 640 42 503 -5 359 -5 c 0
 208 -5 80 68 80 301 c 2
 80 513 l 2
 80 556 80 587 72 607 c 0
 67 620 21 624 8 625 c 1
 3 632 4 656 8 662 c 1
 47 658 109 655 151 655 c 0
 193 655 253 658 292 662 c 1
 296 656 297 632 292 625 c 1
 279 624 233 620 228 607 c 0
 220 587 220 556 220 513 c 2
 220 330 l 2
 220 262 222 212 245 159 c 0
 283 71 376 69 415 69 c 0
 509 69 578 122 578 286 c 2
 578 513 l 2
 578 556 578 587 570 607 c 0
 565 620 508 624 495 625 c 1
 490 632 491 656 495 662 c 1
 542 658 568 655 614 655 c 0
 658 655 684 660 725 662 c 1
 729 656 730 632 725 625 c 1
 712 624 653 620 648 607 c 0
 640 587 640 562 640 519 c 2
EndSplineSet
Validated: 33
Substitution2: "'c2sc' Capitals to Small Capitals in Latin lookup 0 subtable" u.sc
Substitution2: "'c2sc' Capitals to Small Capitals in Latin lookup 0 subtable" u.sc
EndChar

StartChar: V
Encoding: 86 86 54
Width: 742
Flags: W
HStem: -11 21G<353.5 364> 625 37<20.7205 78.2392 248.617 309.279 490.721 570.096 654.004 726.279>
LayerCount: 2
Fore
SplineSet
573 601 m 4
 573 619 506 624 493 625 c 5
 488 632 489 656 493 662 c 5
 540 658 566 655 612 655 c 4
 656 655 683 660 724 662 c 5
 728 656 729 632 724 625 c 5
 711 624 666 623 654 607 c 4
 639 587 627 557 613 524 c 4
 531 323 483 215 406 30 c 0
 398 12 370 -11 358 -11 c 0
 349 -11 349 -4 344 3 c 1
 126 510 l 6
 114 539 100 572 91 592 c 4
 79 618 36 624 23 625 c 5
 18 632 19 656 23 662 c 5
 62 658 124 655 166 655 c 4
 208 655 268 658 307 662 c 5
 311 656 312 632 307 625 c 5
 294 624 246 623 246 598 c 4
 246 582 258 551 270 523 c 4
 328 390 419 186 419 186 c 1
 419 186 541 493 551 521 c 4
 560 547 573 580 573 601 c 4
EndSplineSet
Validated: 33
Substitution2: "'c2sc' Capitals to Small Capitals in Latin lookup 0 subtable" v.sc
Substitution2: "'c2sc' Capitals to Small Capitals in Latin lookup 0 subtable" v.sc
EndChar

StartChar: W
Encoding: 87 87 55
Width: 992
Flags: W
HStem: -11 21G<320.5 331 666.5 677> 625 37<20.5943 78.2392 248.617 309.279 752.721 830.182 916.004 988.279>
LayerCount: 2
Back
SplineSet
198 657 m 0
 242 657 266 660 306 662 c 1
 308 656 308 634 304 633 c 1
 296 633 244 628 244 600 c 1
 244 578 309 362 368 161 c 1
 370 153 376 158 378 163 c 0
 425 318 466 454 518 629 c 4
 524 648 543 662 554 662 c 4
 558 662 561 657 566 646 c 5
 573 624 661 360 728 161 c 1
 730 153 737 158 738 163 c 0
 781 316 801 383 838 524 c 0
 844 548 850 576 850 594 c 0
 850 626 794 633 782 633 c 1
 777 635 777 657 782 662 c 1
 819 660 853 657 890 657 c 0
 936 657 948 660 988 662 c 1
 991 657 989 633 986 633 c 1
 978 633 942 624 922 607 c 0
 908 595 898 572 886 531 c 0
 831 342 793 211 740 32 c 0
 735 14 715 -2 702 -2 c 0
 698 -2 693 10 692 14 c 0
 629 202 593 303 526 498 c 5
 525 501 523 502 520 499 c 5
 464 315 431 209 378 32 c 0
 373 14 353 -2 340 -2 c 0
 336 -2 331 10 330 14 c 0
 272 199 231 335 170 532 c 0
 158 572 153 595 134 613 c 0
 120 626 88 633 76 633 c 1
 74 633 74 660 76 662 c 1
 122 660 152 657 198 657 c 0
EndSplineSet
Fore
SplineSet
23 625 m 1
 17 632 19 656 23 662 c 1
 62 658 124 655 166 655 c 0
 208 655 268 658 307 662 c 1
 311 656 312 632 307 625 c 1
 294 624 246 623 246 598 c 0
 246 582 259 552 270 523 c 0
 314 401 368 251 368 251 c 1
 368 251 477 560 501 625 c 0
 508 644 521 662 532 662 c 0
 536 662 540 657 544 646 c 0
 610 478 715 214 715 214 c 1
 715 214 803 489 813 521 c 0
 821 547 833 580 833 601 c 0
 833 619 768 624 755 625 c 1
 750 632 751 656 755 662 c 1
 802 658 828 655 874 655 c 0
 918 655 945 660 986 662 c 1
 990 656 991 632 986 625 c 1
 973 624 928 623 916 607 c 0
 901 587 886 559 875 524 c 0
 813 335 774 225 711 40 c 0
 702 15 683 -11 671 -11 c 0
 662 -11 657 -4 652 3 c 1
 487 418 l 1
 487 418 409 188 360 44 c 0
 356 33 337 -11 325 -11 c 0
 316 -11 311 -4 306 3 c 1
 126 510 l 2
 116 540 100 572 91 592 c 0
 79 618 36 624 23 625 c 1
EndSplineSet
Validated: 33
Substitution2: "'c2sc' Capitals to Small Capitals in Latin lookup 0 subtable" w.sc
Substitution2: "'c2sc' Capitals to Small Capitals in Latin lookup 0 subtable" w.sc
EndChar

StartChar: X
Encoding: 88 88 56
Width: 768
Flags: W
HStem: -4 37<28.4365 106.4 213.75 290.856 427.445 482.092 679.162 749.041> 625 37<53.4365 123.323 301.606 356.998 475.657 545.395 661.419 732.64>
LayerCount: 2
Fore
SplineSet
212 656 m 0
 261 656 316 660 356 662 c 1
 358 656 359 625 354 625 c 1
 340 625 302 619 301 604 c 0
 301 598 305 588 309 582 c 2
 420 414 l 1
 470 478 553 571 553 594 c 0
 553 611 513 625 479 625 c 1
 474 625 473 657 478 662 c 1
 513 658 574 655 611 655 c 0
 663 655 702 658 731 662 c 1
 734 656 735 625 730 625 c 1
 722 625 661 623 618 572 c 2
 447 369 l 1
 531 242 633 93 648 76 c 0
 677 41 733 33 747 33 c 1
 751 24 752 4 747 -4 c 1
 707 -2 628 2 587 2 c 0
 531 2 485 -2 429 -4 c 1
 424 1 426 33 431 33 c 0
 442 33 487 43 487 61 c 0
 487 64 486 69 484 72 c 2
 351 273 l 1
 333 249 205 83 205 66 c 0
 205 42 258 33 288 33 c 1
 293 26 294 7 291 -4 c 1
 258 -2 196 2 159 2 c 0
 107 2 71 -2 31 -4 c 1
 26 2 26 26 31 33 c 1
 39 33 108 35 140 79 c 2
 318 322 l 1
 178 537 l 2
 160 564 138 600 124 610 c 0
 110 620 68 625 56 625 c 1
 51 625 51 657 56 662 c 1
 105 660 163 656 212 656 c 0
EndSplineSet
Validated: 33
Substitution2: "'c2sc' Capitals to Small Capitals in Latin lookup 0 subtable" x.sc
Substitution2: "'c2sc' Capitals to Small Capitals in Latin lookup 0 subtable" x.sc
EndChar

StartChar: Y
Encoding: 89 89 57
Width: 680
Flags: W
HStem: -4 37<191.721 257.999 414.001 480.279> 625 37<33.7205 90.0027 261.617 322.279 440.721 514.354 599.951 670.279>
VStem: 266 140<41.2661 325.418>
LayerCount: 2
Fore
SplineSet
266 145 m 2
 266 289 l 2
 266 304 135 537 135 537 c 2
 120 565 116 572 104 592 c 0
 89 617 49 624 36 625 c 1
 31 632 32 656 36 662 c 1
 75 658 137 655 179 655 c 0
 221 655 281 658 320 662 c 1
 324 656 325 632 320 625 c 1
 307 624 259 623 259 598 c 0
 259 594 262 589 266 582 c 2
 386 361 l 1
 391 356 469 498 512 578 c 0
 516 586 517 594 517 601 c 0
 517 619 456 624 443 625 c 1
 438 632 439 656 443 662 c 1
 490 658 510 655 556 655 c 0
 600 655 627 660 668 662 c 1
 672 656 673 632 668 625 c 1
 655 624 609 623 594 600 c 0
 572 567 407 303 407 284 c 2
 406 145 l 2
 406 102 406 71 414 51 c 0
 419 38 465 34 478 33 c 1
 483 26 482 2 478 -4 c 1
 439 0 377 3 335 3 c 0
 293 3 233 0 194 -4 c 1
 190 2 189 26 194 33 c 1
 207 34 253 38 258 51 c 0
 266 71 266 102 266 145 c 2
EndSplineSet
Validated: 33
Substitution2: "'c2sc' Capitals to Small Capitals in Latin lookup 0 subtable" y.sc
Substitution2: "'c2sc' Capitals to Small Capitals in Latin lookup 0 subtable" y.sc
EndChar

StartChar: Z
Encoding: 90 90 58
Width: 611
Flags: W
HStem: 0 47<199 494.681> 610 46<147.299 405.875> 642 20G<70 83 536 580>
LayerCount: 2
Fore
SplineSet
553 1 m 1xc0
 511 1 43 0 43 0 c 1
 37 3 25 20 25 34 c 0
 25 37 25 39 28 43 c 2
 409 610 l 1
 226 610 l 0xc0
 120 609 104 536 81 474 c 0
 80 471 78 468 68 468 c 0
 57 468 42 470 39 473 c 1
 50 531 65 598 75 662 c 1xa0
 91 658 223 656 237 656 c 2
 346 656 l 2
 430 656 494 660 578 666 c 1
 582 665 588 643 588 633 c 1
 586 625 199 47 199 47 c 17
 214 47 415 47 415 47 c 2
 453 47 487 59 510 82 c 0
 531 103 546 125 563 170 c 0
 564 174 570 176 577 176 c 0
 587 176 604 173 607 170 c 1
 591 117 562 44 553 1 c 1xc0
EndSplineSet
Validated: 1
Substitution2: "'c2sc' Capitals to Small Capitals in Latin lookup 0 subtable" z.sc
Substitution2: "'c2sc' Capitals to Small Capitals in Latin lookup 0 subtable" z.sc
EndChar

StartChar: bracketleft
Encoding: 91 91 59
Width: 296
Flags: W
VStem: 34 107<-80.0317 728.032>
LayerCount: 2
Fore
SplineSet
53 770 m 0
 156 770 222 779 258 786 c 1
 260 786 264 783 264 777 c 0
 264 764 256 752 254 751 c 0
 224 736 168 730 141 724 c 9
 141 -76 l 1
 168 -82 224 -88 254 -103 c 0
 256 -104 264 -116 264 -129 c 0
 264 -135 260 -138 258 -138 c 1
 222 -131 156 -122 53 -122 c 0
 40 -121 34 -110 34 -99 c 0
 34 747 l 0
 34 758 40 769 53 770 c 0
EndSplineSet
Validated: 1
Substitution2: "'smcp' Lowercase to Small Capitals in Latin lookup 0 subtable" bracketleft.sc
Substitution2: "'c2sc' Capitals to Small Capitals in Latin lookup 0 subtable" bracketleft.taboldstyle
EndChar

StartChar: backslash
Encoding: 92 92 60
Width: 385
Flags: W
LayerCount: 2
Fore
SplineSet
27 745 m 2
 27 745 333 -20 333 -26 c 1
 332 -30 319 -36 305 -36 c 0
 297 -36 281 -32 275 -18 c 0
 158 277 61 526 -30 755 c 1
 -26 760 -19 761 -11 761 c 0
 13 761 24 753 27 745 c 2
EndSplineSet
Validated: 1
Substitution2: "'smcp' Lowercase to Small Capitals in Latin lookup 0 subtable" backslash.sc
Substitution2: "'c2sc' Capitals to Small Capitals in Latin lookup 0 subtable" backslash.taboldstyle
EndChar

StartChar: bracketright
Encoding: 93 93 61
Width: 296
Flags: W
VStem: 157 107<-80.0317 728.032>
LayerCount: 2
Fore
SplineSet
245 770 m 0
 258 769 264 758 264 747 c 0
 264 -99 l 0
 264 -110 258 -121 245 -122 c 0
 142 -122 76 -131 40 -138 c 1
 38 -138 34 -135 34 -129 c 0
 34 -116 42 -104 44 -103 c 0
 74 -88 130 -82 157 -76 c 1
 157 724 l 17
 130 730 74 736 44 751 c 0
 42 752 34 764 34 777 c 0
 34 783 38 786 40 786 c 1
 76 779 142 770 245 770 c 0
EndSplineSet
Validated: 1
Substitution2: "'smcp' Lowercase to Small Capitals in Latin lookup 0 subtable" bracketright.sc
Substitution2: "'c2sc' Capitals to Small Capitals in Latin lookup 0 subtable" bracketright.taboldstyle
EndChar

StartChar: asciicircum
Encoding: 94 94 62
Width: 388
Flags: W
HStem: 419 250
VStem: 37 295
LayerCount: 2
Fore
SplineSet
185 669 m 0
 191 669 200 664 205 655 c 0
 256 566 278 521 332 437 c 1
 332 426 321 419 313 419 c 1
 255 473 185 556 185 556 c 25
 185 556 115 473 57 419 c 1
 49 419 37 426 37 437 c 1
 91 521 115 566 166 655 c 0
 171 664 179 669 185 669 c 0
EndSplineSet
Validated: 1
Substitution2: "'smcp' Lowercase to Small Capitals in Latin lookup 0 subtable" asciicircum.sc
EndChar

StartChar: underscore
Encoding: 95 95 63
Width: 529
Flags: W
HStem: -43 56<33.9907 492.32>
LayerCount: 2
Fore
SplineSet
30 -33 m 1
 30 -33 35 13 45 13 c 2
 494 13 l 2
 496 13 498 12 498 8 c 0
 498 -1 494 -15 488 -37 c 0
 486 -43 482 -43 482 -43 c 1
 37 -43 l 1
 37 -43 30 -43 30 -33 c 1
EndSplineSet
Validated: 1
EndChar

StartChar: grave
Encoding: 96 96 64
Width: 247
Flags: W
HStem: 522 165
VStem: 42 173
LayerCount: 2
Fore
SplineSet
42 658 m 4
 42 666 53 687 88 687 c 4
 102 687 117 683 122 678 c 4
 159 635 215 545 215 540 c 4
 215 534 205 522 198 522 c 4
 188 522 42 619 42 658 c 4
EndSplineSet
Validated: 1
EndChar

StartChar: a
Encoding: 97 97 65
Width: 471
Flags: W
HStem: -8 70<122 237.5 332.5 427> 411 38<172.393 287.5>
VStem: 29 135<78.1133 172.955> 41 108<292.124 371.344> 266 130<68.207 223 256.029 377.779>
LayerCount: 2
Fore
SplineSet
225 62 m 4xe8
 250 62 266 77 266 83 c 6
 266 223 l 5
 246 213 220 204 200 191 c 4
 172 173 163 146 164 124 c 4
 165 81 199 62 225 62 c 4xe8
246 449 m 4
 329 449 396 386 396 296 c 6
 396 109 l 6
 396 82 407 68 420 68 c 4
 434 68 445 76 449 78 c 5
 453 76 456 67 456 61 c 7
 456 54 455 51 452 46 c 5
 438 33 391 -6 349 -6 c 4
 316 -6 282 20 273 44 c 5
 264 36 196 -8 160 -8 c 4
 84 -8 29 55 29 114 c 4xe8
 29 153 55 186 81 194 c 4
 119 206 215 245 266 264 c 5
 266 271 266 278 266 285 c 6
 266 311 l 6
 266 361 242 411 207 411 c 4
 169 411 159 372 149 327 c 4
 144 304 128 283 93 283 c 4
 66 283 41 303 41 331 c 4xd8
 41 344 47 358 55 372 c 5
 68 385 158 449 246 449 c 4
EndSplineSet
Validated: 33
Substitution2: "'smcp' Lowercase to Small Capitals in Latin lookup 0 subtable" a.sc
EndChar

StartChar: b
Encoding: 98 98 66
Width: 546
Flags: W
HStem: -8 44<215.092 318.015> 375 74<244.003 319.189> 624 32<1.32812 58.5286> 675 20G<195.5 200>
VStem: 71 130<50.2358 352.859 401.779 614.125> 370 144<134.511 316.265>
LayerCount: 2
Fore
SplineSet
4 624 m 1
 0 624 -1 652 4 656 c 1
 116 666 194 695 197 695 c 1
 203 694 211 683 212 678 c 1
 212 678 201 633 201 577 c 2
 201 415 l 2
 201 410 201 397 207 402 c 0
 222 414 272 449 306 449 c 0
 422 449 514 359 514 236 c 0
 514 76 376 -8 246 -8 c 4
 194 -8 146 15 120 15 c 4
 102 15 90 11 83 8 c 5
 80 8 59 26 59 33 c 5
 66 51 71 86 71 152 c 6
 71 558 l 2
 71 575 71 589 64 606 c 0
 59 618 16 624 4 624 c 1
256 375 m 0
 228 375 213 363 204 353 c 0
 201 350 201 347 201 344 c 2
 201 98 l 6
 201 64 225 36 267 36 c 4
 331 36 370 122 370 196 c 0
 370 333 318 375 256 375 c 0
EndSplineSet
Validated: 1
Substitution2: "'smcp' Lowercase to Small Capitals in Latin lookup 0 subtable" b.sc
EndChar

StartChar: c
Encoding: 99 99 67
Width: 462
Flags: W
HStem: -9 84<225.332 331.626> 396 52<191.134 318.5>
VStem: 30 126<151.509 290.309>
LayerCount: 2
Fore
SplineSet
30 200 m 0
 30 322 153 448 291 448 c 0
 346 448 381 437 392 430 c 1
 401 420 412 408 412 382 c 0
 412 353 390 320 354 320 c 0
 327 320 310 347 294 365 c 0
 277 384 251 396 226 396 c 0
 182 396 156 319 156 258 c 0
 156 118 236 75 300 75 c 0
 358 75 391 102 412 125 c 1
 419 123 424 113 424 107 c 3
 424 100 423 91 421 88 c 0
 403 60 335 -9 240 -9 c 0
 128 -9 30 69 30 200 c 0
EndSplineSet
Validated: 1
Substitution2: "'smcp' Lowercase to Small Capitals in Latin lookup 0 subtable" c.sc
EndChar

StartChar: d
Encoding: 100 100 68
Width: 534
Flags: W
HStem: -8 64<152 281.956> 28 32<465.435 512.823> 395 51<197.607 311.309> 624 32<256.328 313.529> 675 20G<450.5 455>
VStem: 19 142<121.851 297.682> 326 130<70.4709 378.4 444.011 614.125>
LayerCount: 2
Fore
SplineSet
281 446 m 0xbe
 302 446 313 445 321 444 c 1
 325 444 326 459 326 467 c 0
 326 492 326 525 326 558 c 0
 326 577 326 589 319 606 c 0
 314 618 271 624 259 624 c 1
 255 624 254 652 259 656 c 1
 371 666 449 695 452 695 c 1
 458 694 466 683 467 678 c 1
 467 678 456 633 456 577 c 2
 456 108 l 26
 456 93 456 80 465 70 c 0
 474 60 501 60 510 60 c 1
 512 58 513 54 513 47 c 0
 513 41 511 34 507 28 c 1x7e
 448 22 348 -7 335 -7 c 0
 331 -7 326 2 326 17 c 2
 326 33 l 18
 326 35 326 40 323 38 c 0
 307 27 253 -8 200 -8 c 0
 104 -8 19 82 19 200 c 0
 19 370 190 446 281 446 c 0xbe
262 56 m 0xbe
 290 56 326 80 326 93 c 2
 326 350 l 2
 326 368 290 395 248 395 c 0
 184 395 161 323 161 243 c 0
 161 133 200 56 262 56 c 0xbe
EndSplineSet
Validated: 1
Substitution2: "'smcp' Lowercase to Small Capitals in Latin lookup 0 subtable" d.sc
EndChar

StartChar: e
Encoding: 101 101 69
Width: 462
Flags: W
HStem: -9 84<228.39 331.626> 242 40<161 288.823> 406 41<198.95 281.103>
VStem: 30 130<147.948 242 282 297.174> 303 124<289.978 370.347>
LayerCount: 2
Fore
SplineSet
161 282 m 5
 170 281 266 287 290 290 c 4
 302 291 303 300 303 306 c 15
 303 352 287 406 242 406 c 7
 183 406 161 316 161 282 c 5
160 242 m 5
 160 102 255 75 300 75 c 4
 358 75 391 102 412 125 c 5
 419 123 424 113 424 107 c 7
 424 100 423 91 421 88 c 4
 403 60 335 -9 240 -9 c 4
 128 -9 30 69 30 200 c 4
 30 326 137 447 252 447 c 4
 383 447 427 354 427 296 c 4
 427 274 415 255 400 254 c 4
 332 248 234 244 160 242 c 5
EndSplineSet
Validated: 33
Substitution2: "'smcp' Lowercase to Small Capitals in Latin lookup 0 subtable" e.sc
EndChar

StartChar: f
Encoding: 102 102 70
Width: 374
Flags: W
HStem: -4 37<21.7205 87.9985 234.001 300.279> 381 47<28.9586 96 226 342.039> 626 72<237.629 319>
VStem: 96 130<41.2661 381 428 540.641>
LayerCount: 2
Fore
SplineSet
303 698 m 4
 335 698 353 692 367 688 c 5
 384 679 406 666 406 642 c 31
 406 609 388 573 355 573 c 23
 325 573 308 596 289 611 c 4
 278 620 265 626 249 626 c 4
 233 626 219 591 219 544 c 4
 219 498 221 459 223 428 c 5
 230 428 307 428 340 428 c 4
 344 428 346 420 346 415 c 4
 346 406 333 388 323 381 c 5
 293 381 259 381 226 381 c 5
 226 291 226 145 226 145 c 6
 226 102 226 71 234 51 c 4
 239 38 285 34 298 33 c 5
 303 26 302 2 298 -4 c 5
 259 0 203 3 161 3 c 4
 119 3 63 0 24 -4 c 5
 20 2 19 26 24 33 c 5
 37 34 83 38 88 51 c 4
 96 71 96 102 96 145 c 6
 96 145 96 292 96 381 c 5
 69 381 51 381 25 381 c 5
 20 383 20 390 20 394 c 5
 30 408 40 418 52 428 c 5
 65 428 86 428 96 428 c 13
 96 443 l 6
 96 580 228 698 303 698 c 4
EndSplineSet
Validated: 33
Substitution2: "'smcp' Lowercase to Small Capitals in Latin lookup 0 subtable" f.sc
EndChar

StartChar: g
Encoding: 103 103 71
Width: 485
Flags: W
HStem: -218 56<172.684 305.846> -14 111<143.275 343.633> 148 37<187.923 265.139> 366 61<386.206 455.813> 406 37<174.138 250.603>
VStem: 21 110<-121.74 -54.107> 36 121<220.825 365.646> 46 97<71 122.664> 279 121<226.627 369.198> 369 87<-93.8474 3>
LayerCount: 2
Fore
SplineSet
379 369 m 1xf2
 395 347 400 327 400 299 c 0
 400 216 322 148 219 148 c 0
 201 148 183 150 167 153 c 1
 156 144 143 132 143 122 c 0xf180
 143 107 167 97 191 97 c 0
 229 97 288 98 323 96 c 0
 415 91 456 20 456 -14 c 0
 456 -135 324 -218 188 -218 c 0
 90 -218 21 -171 21 -103 c 0xf440
 21 -63 69 -24 106 -6 c 1
 72 3 46 50 46 92 c 0xf1
 46 110 91 144 129 165 c 1
 72 188 36 237 36 294 c 0
 36 377 115 443 217 443 c 0xea
 262 443 296 437 324 418 c 0
 327 415 328 415 330 415 c 2
 455 427 l 1
 458 426 466 422 466 416 c 0
 466 409 451 373 441 366 c 1
 419 368 411 369 385 372 c 0
 383 372 379 371 379 369 c 1xf2
147 -14 m 1
 140 -22 131 -35 131 -58 c 0
 131 -124 181 -162 251 -162 c 0
 347 -162 369 -112 369 -79 c 0xe440
 369 -37 321 -14 257 -14 c 0
 220 -14 166 -14 147 -14 c 1
212 406 m 0xea80
 160 406 157 352 157 307 c 0
 157 251 176 185 228 185 c 0
 280 185 279 241 279 285 c 0
 279 340 264 406 212 406 c 0xea80
EndSplineSet
Validated: 33
Substitution2: "'smcp' Lowercase to Small Capitals in Latin lookup 0 subtable" g.sc
EndChar

StartChar: h
Encoding: 104 104 72
Width: 608
Flags: W
HStem: -4 37<27.7205 93.9985 240.001 299.279 324.721 378.999 525.002 591.279> 365 1<233 320> 624 32<32.3281 89.5286> 675 20G<226.5 231>
VStem: 102 130<41.2661 338.951 366.048 615.244> 387 130<41.2661 334.749>
LayerCount: 2
Fore
SplineSet
228 695 m 1
 234 694 242 683 243 678 c 1
 243 678 232 616 232 576 c 0
 232 372 l 0
 232 369 232 367 233 366 c 1
 235 366 238 369 240 371 c 0
 268 403 335 446 381 446 c 0
 495 446 517 368 517 210 c 2
 517 145 l 2
 517 102 517 71 525 51 c 0
 530 38 576 34 589 33 c 1
 594 26 593 2 589 -4 c 1
 550 0 494 3 452 3 c 0
 410 3 366 0 327 -4 c 1
 323 2 322 26 327 33 c 1
 340 34 374 38 379 51 c 0
 387 71 387 102 387 145 c 2
 387 224 l 2
 387 296 373 365 320 365 c 0
 280 365 232 329 232 309 c 2
 232 145 l 2
 232 108 232 71 240 51 c 0
 245 38 284 34 297 33 c 1
 302 26 301 2 297 -4 c 1
 258 0 209 3 167 3 c 0
 125 3 69 0 30 -4 c 1
 26 2 25 26 30 33 c 1
 43 34 89 38 94 51 c 0
 102 71 102 102 102 145 c 2
 102 558 l 2
 102 575 102 589 95 606 c 0
 90 618 47 624 35 624 c 1
 31 624 30 652 35 656 c 1
 147 666 225 695 228 695 c 1
EndSplineSet
Validated: 33
Substitution2: "'smcp' Lowercase to Small Capitals in Latin lookup 0 subtable" h.sc
EndChar

StartChar: i
Encoding: 105 105 73
Width: 326
Flags: W
HStem: -4 37<28.7205 94.9985 241.001 300.279> 362 31<29.0323 89.1875> 426 20G<208 230.5> 544 144<105.796 210.727>
VStem: 86 145<565 667> 103 130<41.2661 351.93>
LayerCount: 2
Fore
SplineSet
233 309 m 6xf4
 233 145 l 2
 233 108 233 71 241 51 c 0
 246 38 285 34 298 33 c 1
 303 26 302 2 298 -4 c 1
 259 0 210 3 168 3 c 0
 126 3 70 0 31 -4 c 1
 27 2 26 26 31 33 c 1
 44 34 90 38 95 51 c 0
 103 71 103 102 103 145 c 2
 103 260 l 6
 103 270 102 327 94 342 c 4
 86 357 38 362 31 362 c 5
 28 364 27 393 32 393 c 5
 108 399 189 427 227 446 c 5
 234 444 244 432 244 429 c 5
 241 421 235 386 234 372 c 4
 233 350 233 315 233 309 c 6xf4
86 616 m 0xf8
 86 656 118 688 158 688 c 0
 198 688 231 656 231 616 c 0
 231 576 198 544 158 544 c 0
 118 544 86 576 86 616 c 0xf8
EndSplineSet
Validated: 33
Substitution2: "'smcp' Lowercase to Small Capitals in Latin lookup 0 subtable" i.sc
EndChar

StartChar: j
Encoding: 106 106 74
Width: 330
Flags: W
HStem: -218 24<18.5054 33.5532> 362 31<44.0323 104.188> 426 20G<223 245.5> 542 148<122.625 227.375>
VStem: 101 148<563.625 668.375> 118 130<-43.1268 351.93>
LayerCount: 2
Fore
SplineSet
118 64 m 6xf4
 118 260 l 6xf4
 118 270 117 327 109 342 c 4
 101 357 53 362 46 362 c 5
 43 364 42 393 47 393 c 5
 123 399 204 427 242 446 c 5
 249 444 259 432 259 429 c 5
 256 421 250 386 249 372 c 4xf8
 248 350 248 315 248 309 c 6
 248 120 l 6
 248 36 237 -48 200 -102 c 4
 153 -170 65 -218 31 -218 c 5
 24 -214 17 -207 17 -201 c 4
 17 -199 17 -195 18 -194 c 4
 22 -192 118 -142 118 64 c 6xf4
101 616 m 0xf8
 101 657 134 690 175 690 c 0
 216 690 249 657 249 616 c 0
 249 575 216 542 175 542 c 0
 134 542 101 575 101 616 c 0xf8
EndSplineSet
Validated: 1
Substitution2: "'smcp' Lowercase to Small Capitals in Latin lookup 0 subtable" j.sc
EndChar

StartChar: k
Encoding: 107 107 75
Width: 616
Flags: W
HStem: -4 37<28.2382 92.8569 241.143 305.762 537.295 600.227> 405 35<328.923 391.477 498.68 575.394> 624 32<32.3281 89.5286> 675 20G<226.5 231>
VStem: 102 130<41.2661 201 236 615.244>
LayerCount: 2
Fore
SplineSet
232 145 m 6
 232 102 232 71 240 51 c 4
 245 38 291 34 304 33 c 5
 309 26 308 2 304 -4 c 5
 265 0 209 3 167 3 c 4
 125 3 69 0 30 -4 c 5
 26 2 25 26 30 33 c 5
 43 34 89 38 94 51 c 4
 102 71 102 102 102 145 c 6
 102 558 l 6
 102 575 102 589 95 606 c 4
 90 618 47 624 35 624 c 5
 31 624 30 652 35 656 c 5
 147 666 225 695 228 695 c 5
 234 694 242 683 243 678 c 5
 243 678 232 616 232 576 c 4
 231 236 l 5
 248 242 271 257 306 287 c 4
 376 347 394 368 394 383 c 4
 394 395 348 404 330 405 c 5
 327 414 327 437 332 439 c 5
 332 439 421 435 463 435 c 4
 499 435 529 438 574 440 c 5
 580 430 577 408 571 405 c 5
 540 402 498 392 472 374 c 4
 451 359 401 310 340 256 c 5
 411 173 426 161 482 98 c 4
 537 37 569 36 601 36 c 5
 607 25 602 8 601 6 c 5
 585 0 538 -6 500 -6 c 4
 442 -6 393 18 363 53 c 6
 363 53 294 127 245 188 c 4
 241 194 232 201 232 201 c 5
 232 145 l 6
EndSplineSet
Validated: 33
Substitution2: "'smcp' Lowercase to Small Capitals in Latin lookup 0 subtable" k.sc
EndChar

StartChar: l
Encoding: 108 108 76
Width: 322
Flags: W
HStem: -4 37<27.7205 93.9985 240.001 306.279> 624 32<32.3281 89.5286> 675 20G<226.5 231>
VStem: 102 130<41.2661 615.244>
LayerCount: 2
Fore
SplineSet
102 558 m 6
 102 575 102 589 95 606 c 4
 90 618 47 624 35 624 c 5
 31 624 30 652 35 656 c 5
 147 666 225 695 228 695 c 5
 234 694 242 683 243 678 c 5
 243 678 232 616 232 576 c 4
 232 408 232 145 232 145 c 18
 232 102 232 71 240 51 c 0
 245 38 291 34 304 33 c 1
 309 26 308 2 304 -4 c 1
 265 0 209 3 167 3 c 0
 125 3 69 0 30 -4 c 1
 26 2 25 26 30 33 c 1
 43 34 89 38 94 51 c 0
 102 71 102 102 102 145 c 2
 102 558 l 6
EndSplineSet
Validated: 33
Substitution2: "'smcp' Lowercase to Small Capitals in Latin lookup 0 subtable" l.sc
EndChar

StartChar: m
Encoding: 109 109 77
Width: 897
Flags: W
HStem: -4 37<28.7205 94.9985 241.001 300.279 323.721 379.999 526.002 590.279 612.721 666.998 813.002 879.279> 362 31<29.0323 89.1875> 365 81<312.025 404.423 597.185 716.423>
VStem: 103 130<41.2661 338.951> 388 130<41.2661 338.449> 675 130<41.2661 334.749>
LayerCount: 2
Back
SplineSet
505 360 m 1
 507 360 510.138 362.871 512 365 c 0
 540 397 623 446 669 446 c 0
 783 446 805 368 805 210 c 2
 805 145 l 2
 805 102 805 71 813 51 c 0
 818 38 864 34 877 33 c 1
 882 26 881 2 877 -4 c 1
 838 0 782 3 740 3 c 0
 698 3 654 0 615 -4 c 1
 611 2 610 26 615 33 c 1
 628 34 662 38 667 51 c 0
 675 71 675 102 675 145 c 2
 675 224 l 2
 675 296 661 365 608 365 c 0
 568 365 514 330 514 310 c 8
 514 308 513.77 305.996 513.919 304 c 0
 516 276 518 245.325 518 210 c 2
 518 145 l 2
 518 102 518 71 526 51 c 0
 531 38 575 34 588 33 c 1
 593 26 592 2 588 -4 c 1
 549 0 495 3 453 3 c 0
 411 3 365 0 326 -4 c 1
 322 2 321 26 326 33 c 1
 339 34 375 38 380 51 c 0
 388 71 388 102 388 145 c 2
 388 224 l 2
 388 296 374 365 321 365 c 0
 281 365 233 329 233 309 c 2
 233 145 l 2
 233 108 233 71 241 51 c 0
 246 38 285 34 298 33 c 1
 303 26 302 2 298 -4 c 1
 259 0 210 3 168 3 c 0
 126 3 70 0 31 -4 c 1
 27 2 26 26 31 33 c 1
 44 34 90 38 95 51 c 0
 103 71 103 102 103 145 c 2
 103 252 l 2
 103 262 102.232 318.565 94 334 c 0
 86 349 38 354 31 354 c 1
 28 356 27 385 32 385 c 1
 108 391 189 427 227 446 c 1
 234 444 244 432 244 429 c 1
 241 421 233 373 234 372 c 0
 234 369 234 367 235 366 c 1
 237 366 240.138 368.871 242 371 c 0
 270 403 336 446 382 446 c 0
 445.522 446 480.48 421.782 498.983 373 c 0
EndSplineSet
Fore
SplineSet
505 360 m 1xbc
 507 360 510 363 512 365 c 0
 540 397 623 446 669 446 c 0
 783 446 805 368 805 210 c 2
 805 145 l 2
 805 102 805 71 813 51 c 0
 818 38 864 34 877 33 c 1
 882 26 881 2 877 -4 c 1
 838 0 782 3 740 3 c 0
 698 3 654 0 615 -4 c 1
 611 2 610 26 615 33 c 1
 628 34 662 38 667 51 c 0
 675 71 675 102 675 145 c 2
 675 224 l 2
 675 296 661 365 608 365 c 0
 568 365 514 330 514 310 c 8
 514 308 514 306 514 304 c 0
 516 276 518 245 518 210 c 2
 518 145 l 2
 518 102 518 71 526 51 c 0
 531 38 575 34 588 33 c 1
 593 26 592 2 588 -4 c 1
 549 0 495 3 453 3 c 0
 411 3 365 0 326 -4 c 1
 322 2 321 26 326 33 c 1
 339 34 375 38 380 51 c 0
 388 71 388 102 388 145 c 2
 388 224 l 2
 388 296 374 365 321 365 c 0xbc
 281 365 233 329 233 309 c 2
 233 145 l 2
 233 108 233 71 241 51 c 0
 246 38 285 34 298 33 c 1
 303 26 302 2 298 -4 c 1
 259 0 210 3 168 3 c 0
 126 3 70 0 31 -4 c 1
 27 2 26 26 31 33 c 1
 44 34 90 38 95 51 c 0
 103 71 103 102 103 145 c 2
 103 260 l 2
 103 270 102 327 94 342 c 0
 86 357 38 362 31 362 c 1
 28 364 27 393 32 393 c 1xdc
 108 399 189 427 227 446 c 1
 234 444 244 432 244 429 c 1
 241 421 233 373 234 372 c 0
 234 369 234 367 235 366 c 1
 237 366 240 369 242 371 c 0
 270 403 336 446 382 446 c 0
 446 446 481 424 505 360 c 1xbc
EndSplineSet
Validated: 33
Substitution2: "'smcp' Lowercase to Small Capitals in Latin lookup 0 subtable" m.sc
EndChar

StartChar: n
Encoding: 110 110 78
Width: 608
Flags: W
HStem: -4 37<28.7205 94.9985 241.001 300.279 325.721 379.999 526.002 592.279> 362 31<29.0323 89.1875> 365 1<235 321> 426 20G<208 230>
VStem: 103 130<41.2661 338.951> 388 130<41.2661 334.749>
LayerCount: 2
Fore
SplineSet
382 446 m 4xbc
 496 446 518 368 518 210 c 6
 518 145 l 6
 518 102 518 71 526 51 c 4
 531 38 577 34 590 33 c 5
 595 26 594 2 590 -4 c 5
 551 0 495 3 453 3 c 4
 411 3 367 0 328 -4 c 5
 324 2 323 26 328 33 c 5
 341 34 375 38 380 51 c 4
 388 71 388 102 388 145 c 6
 388 224 l 6
 388 296 374 365 321 365 c 4xbc
 281 365 233 329 233 309 c 6
 233 145 l 6
 233 108 233 71 241 51 c 4
 246 38 285 34 298 33 c 5
 303 26 302 2 298 -4 c 5
 259 0 210 3 168 3 c 4
 126 3 70 0 31 -4 c 5
 27 2 26 26 31 33 c 5
 44 34 90 38 95 51 c 4
 103 71 103 102 103 145 c 6
 103 260 l 6
 103 270 102 327 94 342 c 4
 86 357 38 362 31 362 c 5
 28 364 27 393 32 393 c 5xdc
 108 399 189 427 227 446 c 5
 233 446 244 434 244 429 c 5
 242 421 234 373 234 372 c 4
 234 369 234 367 235 366 c 5
 237 366 240 369 242 371 c 4
 270 403 336 446 382 446 c 4xbc
EndSplineSet
Validated: 33
Substitution2: "'smcp' Lowercase to Small Capitals in Latin lookup 0 subtable" n.sc
EndChar

StartChar: o
Encoding: 111 111 79
Width: 523
Flags: W
HStem: -7 42<223.597 316.545> 406 41<203.207 292.807>
VStem: 26 142<118.592 313.407> 352 142<126.606 322.548>
LayerCount: 2
Fore
SplineSet
248 406 m 7
 175 406 168 310 168 237 c 31
 168 149 198 35 271 35 c 7
 344 35 352 130 352 202 c 31
 352 291 321 406 248 406 c 7
259 447 m 4
 397 447 494 352 494 225 c 4
 494 99 393 -7 261 -7 c 4
 122 -7 26 91 26 217 c 4
 26 343 128 447 259 447 c 4
EndSplineSet
Validated: 1
Substitution2: "'smcp' Lowercase to Small Capitals in Latin lookup 0 subtable" o.sc
EndChar

StartChar: p
Encoding: 112 112 80
Width: 571
Flags: W
HStem: -218 37<25.7205 91.9985 238.001 304.279> -8 44<244.186 340.344> 362 31<26.0323 86.1875> 375 73<280.334 346.816>
VStem: 100 130<-172.734 0.99707 50.0771 351.93> 392 144<134.92 323.157>
LayerCount: 2
Fore
SplineSet
100 -69 m 6xdc
 100 260 l 6
 100 270 99 327 91 342 c 4
 83 357 35 362 28 362 c 5
 25 364 24 393 29 393 c 5xec
 105 399 186 427 224 446 c 5
 231 444 241 432 241 429 c 5
 239 423 232 411 232 395 c 4
 232 389 234 387 236 389 c 4
 266 421 309 448 340 448 c 4
 461 448 536 345 536 234 c 4
 536 81 401 -8 291 -8 c 4
 263 -8 237 1 233 1 c 5
 230 1 230 -3 230 -15 c 6
 230 -69 l 6
 230 -112 230 -143 238 -163 c 4
 243 -176 289 -180 302 -181 c 5
 307 -188 306 -212 302 -218 c 5
 263 -214 207 -211 165 -211 c 4
 123 -211 67 -214 28 -218 c 5
 24 -212 23 -188 28 -181 c 5
 41 -180 87 -176 92 -163 c 4
 100 -143 100 -112 100 -69 c 6xdc
230 96 m 6
 230 56 263 36 298 36 c 4
 331 36 392 83 392 199 c 4
 392 302 366 375 285 375 c 4xdc
 248 375 230 352 230 347 c 6
 230 96 l 6
EndSplineSet
Validated: 33
Substitution2: "'smcp' Lowercase to Small Capitals in Latin lookup 0 subtable" p.sc
EndChar

StartChar: q
Encoding: 113 113 81
Width: 518
Flags: W
HStem: -218 37<266.721 332.999 479.001 545.279> -8 64<170.5 306.682> 394 52<215.482 324.088>
VStem: 37 142<119.026 292.643> 341 130<-172.734 30.222 63.9757 375.935>
LayerCount: 2
Fore
SplineSet
305 446 m 0
 343 446 393 423 423 423 c 0
 444 423 453 428 459 430 c 1
 465 428 483 412 483 405 c 1
 478 393 471 360 471 291 c 2
 471 -69 l 2
 471 -112 471 -143 479 -163 c 0
 484 -176 530 -180 543 -181 c 1
 548 -188 547 -212 543 -218 c 1
 504 -214 448 -211 406 -211 c 0
 364 -211 308 -214 269 -218 c 1
 265 -212 264 -188 269 -181 c 1
 282 -180 328 -176 333 -163 c 0
 341 -143 341 -112 341 -69 c 2
 341 17 l 2
 341 23 341 35 335 30 c 0
 320 19 268 -8 221 -8 c 0
 120 -8 37 84 37 192 c 0
 37 349 178 446 305 446 c 0
267 394 m 0
 197 394 179 314 179 243 c 0
 179 160 204 56 281 56 c 0
 317 56 341 76 341 80 c 2
 341 344 l 2
 341 354 319 394 267 394 c 0
EndSplineSet
Validated: 33
Substitution2: "'smcp' Lowercase to Small Capitals in Latin lookup 0 subtable" q.sc
EndChar

StartChar: r
Encoding: 114 114 82
Width: 449
Flags: W
HStem: -4 37<28.7205 94.9985 241.001 300.279> 348 99<279.5 377.5> 362 31<29.0323 89.1875>
VStem: 103 130<41.2661 320.253>
LayerCount: 2
Fore
SplineSet
227 446 m 1xb0
 234 444 244 432 244 429 c 1
 241 421 234 364 234 350 c 0
 234 345 239 345 240 347 c 0
 264 390 302 447 365 447 c 15
 390 447 415 442 428 430 c 5
 432 424 439 402 439 381 c 4
 439 347 413 302 379 302 c 7
 361 302 348 317 336 327 c 4
 325 337 317 348 300 348 c 15xd0
 259 348 233 288 233 267 c 2
 233 145 l 2
 233 108 233 71 241 51 c 0
 246 38 285 34 298 33 c 1
 303 26 302 2 298 -4 c 1
 259 0 210 3 168 3 c 0
 126 3 70 0 31 -4 c 1
 27 2 26 26 31 33 c 1
 44 34 90 38 95 51 c 0
 103 71 103 102 103 145 c 2
 103 260 l 2
 103 270 102 327 94 342 c 0
 86 357 38 362 31 362 c 1
 28 364 27 393 32 393 c 1
 108 399 189 427 227 446 c 1xb0
EndSplineSet
Validated: 33
Substitution2: "'smcp' Lowercase to Small Capitals in Latin lookup 0 subtable" r.sc
EndChar

StartChar: s
Encoding: 115 115 83
Width: 384
Flags: W
HStem: -8 40<116.28 220.806> 408 40<156.713 262.324>
VStem: 26 119<274.689 380.15> 33 37<86.4219 149.713> 235 120<56.656 172.818>
LayerCount: 2
Fore
SplineSet
212 448 m 0xe8
 259 448 291 436 324 429 c 1
 332 395 345 323 345 306 c 0
 345 302 334 299 327 299 c 4
 319 299 314 303 308 307 c 1
 298 352 272 408 202 408 c 0
 169 408 145 390 145 354 c 0xe8
 145 302 203 287 247 265 c 0
 299 239 355 215 355 130 c 0
 355 30 262 -8 158 -8 c 0
 114 -8 66 7 41 13 c 1
 37 36 33 132 33 143 c 0
 33 149 43 150 48 150 c 0
 55 150 67 146 70 140 c 1xd8
 84 53 138 32 178 32 c 0
 213 32 235 58 235 86 c 0
 235 136 179 149 132 175 c 0
 74 207 26 242 26 310 c 0
 26 410 133 448 212 448 c 0xe8
EndSplineSet
Validated: 1
Substitution2: "'smcp' Lowercase to Small Capitals in Latin lookup 0 subtable" s.sc
EndChar

StartChar: t
Encoding: 116 116 84
Width: 354
Flags: W
HStem: -7 64<184 280.975> 381 47<17.9586 85 215 331.039>
VStem: 85 130<68.9375 381 428 500.009>
LayerCount: 2
Fore
SplineSet
215 428 m 1
 222 428 296 428 329 428 c 0
 333 428 335 420 335 415 c 0
 335 406 322 388 312 381 c 1
 282 381 248 381 215 381 c 1
 215 133 l 2
 215 80 232 57 269 57 c 0
 293 57 319 78 322 81 c 1
 324 79 329 72 329 67 c 0
 329 62 323 50 321 48 c 0
 312 38 267 -7 215 -7 c 0
 153 -7 85 27 85 139 c 2
 85 381 l 1
 58 381 40 381 14 381 c 1
 9 383 9 390 9 394 c 1
 19 408 29 418 41 428 c 1
 54 428 75 428 85 428 c 9
 85 428 85 461 85 481 c 1
 123 513 159 556 190 587 c 1
 201 594 214 593 215 587 c 1
 215 533 215 481 215 428 c 1
EndSplineSet
Validated: 1
Substitution2: "'smcp' Lowercase to Small Capitals in Latin lookup 0 subtable" t.sc
EndChar

StartChar: u
Encoding: 117 117 85
Width: 554
Flags: W
HStem: -5 61<163.5 314.455> 28 32<495.435 542.823> 362 31<10.0323 70.1875 282.032 342.188> 426 20G<189 211.5 461 483.5>
VStem: 84 130<87.0607 351.93> 356 130<70.4709 351.93>
LayerCount: 2
Fore
SplineSet
212 -5 m 7xbc
 115 -5 84 80 84 174 c 6
 84 260 l 6
 84 270 83 327 75 342 c 4
 67 357 19 362 12 362 c 5
 9 364 8 393 13 393 c 5
 89 399 170 427 208 446 c 5
 215 444 225 432 225 429 c 5
 222 421 216 386 215 372 c 4
 214 350 214 315 214 309 c 6
 214 219 l 6
 214 113 230 56 292 56 c 4xbc
 320 56 356 78 356 93 c 6
 356 260 l 6
 356 270 355 327 347 342 c 4
 339 357 291 362 284 362 c 5
 281 364 280 393 285 393 c 5
 361 399 442 427 480 446 c 5
 487 444 497 432 497 429 c 5
 494 421 488 386 487 372 c 4
 486 350 486 315 486 309 c 6
 486 108 l 14
 486 93 486 80 495 70 c 4
 504 60 531 60 540 60 c 5
 542 58 543 54 543 47 c 4
 543 41 541 34 537 28 c 5x7c
 478 22 378 -7 365 -7 c 4
 361 -7 356 2 356 17 c 6
 356 33 l 22
 356 35 356 40 353 38 c 4
 337 27 282 -5 212 -5 c 7xbc
EndSplineSet
Validated: 1
Substitution2: "'smcp' Lowercase to Small Capitals in Latin lookup 0 subtable" u.sc
EndChar

StartChar: v
Encoding: 118 118 86
Width: 539
Flags: W
HStem: -11 21G<255.5 263> 406 37<0.594337 50.6829 209.417 266.692 326.172 396.591 468.902 539.391>
LayerCount: 2
Fore
SplineSet
138 436 m 0
 180 436 239 440 264 443 c 1
 269 438 269 412 264 406 c 1
 252 406 205 396 205 379 c 0
 205 376 205 369 207 364 c 0
 243 294 310 167 310 167 c 1
 310 167 356 268 389 342 c 0
 394 352 400 368 400 379 c 0
 400 404 337 406 329 406 c 1
 324 411 324 436 328 443 c 1
 358 439 394 436 433 436 c 0
 475 436 522 441 537 443 c 1
 541 438 542 413 537 406 c 1
 525 406 470 402 456 373 c 2
 302 45 l 2
 282 6 269 -11 257 -11 c 0
 254 -11 248 -6 245 -3 c 1
 187 117 133 230 66 368 c 1
 53 398 11 406 3 406 c 1
 -3 414 -1 437 3 443 c 1
 29 440 99 436 138 436 c 0
EndSplineSet
Validated: 33
Substitution2: "'smcp' Lowercase to Small Capitals in Latin lookup 0 subtable" v.sc
EndChar

StartChar: w
Encoding: 119 119 87
Width: 796
Flags: W
HStem: -11 21G<252.5 258.5 524.5 530.5> 406 37<-0.405663 49.2532 208.417 265.692 293.625 342.679 502.417 559.692 589.172 659.591 732.052 793.391>
VStem: 369 129<320.875 384.275>
LayerCount: 2
Fore
SplineSet
130 436 m 0
 172 436 238 440 263 443 c 1
 268 438 268 412 263 406 c 1
 251 406 204 396 204 379 c 0
 204 376 204 369 206 364 c 0
 242 294 303 172 303 172 c 1
 303 172 369 320 369 335 c 0
 369 346 363 362 360 368 c 0
 345 397 305 406 297 406 c 1
 290 414 292 437 296 443 c 1
 336 438 392 437 431 436 c 1
 473 436 532 440 557 443 c 1
 562 438 562 412 557 406 c 1
 545 406 498 396 498 379 c 0
 498 376 498 369 500 364 c 0
 532 292 584 180 584 180 c 1
 584 180 620 269 652 342 c 0
 656 352 663 368 663 379 c 0
 663 404 600 406 592 406 c 1
 587 411 587 436 591 443 c 1
 621 439 657 436 696 436 c 0
 738 436 776 441 791 443 c 1
 795 438 796 413 791 406 c 1
 779 406 736 405 723 375 c 8
 667 245 635 172 576 44 c 16
 558 5 535 -11 526 -11 c 0
 523 -11 517 -6 514 -3 c 1
 514 -3 436 198 403 276 c 1
 372 198 304 44 304 44 c 2
 287 5 263 -11 254 -11 c 0
 251 -11 245 -6 242 -3 c 1
 172 146 133 231 65 368 c 1
 51 398 10 406 2 406 c 1
 -4 414 -2 437 2 443 c 1
 28 440 91 436 130 436 c 0
EndSplineSet
Validated: 33
Substitution2: "'smcp' Lowercase to Small Capitals in Latin lookup 0 subtable" w.sc
EndChar

StartChar: x
Encoding: 120 120 88
Width: 590
Flags: W
HStem: -4 37<25.6094 89.8521 191.409 261.828 301.308 351.369 518.55 572.375> 406 37<34.625 91.4256 253.631 303.692 330.172 400.591 491.515 560.391>
LayerCount: 2
Fore
SplineSet
175 436 m 1
 217 436 276 440 301 443 c 1
 306 438 306 412 301 406 c 1
 289 406 253 401 253 384 c 0
 253 381 259 375 263 370 c 10
 327 288 l 17
 356 319 404 370 404 379 c 0
 404 404 341 406 333 406 c 1
 328 411 328 436 332 443 c 1
 362 439 398 436 437 436 c 0
 479 436 543 441 558 443 c 1
 562 438 563 413 558 406 c 1
 540 406 503 403 475 374 c 0
 439 336 409 302 360 246 c 9
 415 176 448 135 502 66 c 0
 522 40 561 33 569 33 c 1
 576 25 574 2 570 -4 c 1
 530 1 470 2 431 3 c 1
 389 3 329 -1 304 -4 c 1
 299 1 299 27 304 33 c 1
 316 33 352 38 352 55 c 0
 352 58 346 64 342 69 c 10
 271 156 l 17
 242 125 188 74 188 60 c 0
 188 35 251 33 259 33 c 1
 264 28 264 3 260 -4 c 1
 230 0 194 3 155 3 c 0
 113 3 43 -2 28 -4 c 1
 24 1 23 26 28 33 c 1
 46 33 88 44 112 67 c 0
 161 114 189 148 238 199 c 25
 187 267 161 305 107 374 c 0
 87 400 46 406 38 406 c 1
 31 414 33 437 37 443 c 1
 77 438 136 437 175 436 c 1
EndSplineSet
Validated: 33
Substitution2: "'smcp' Lowercase to Small Capitals in Latin lookup 0 subtable" x.sc
EndChar

StartChar: y
Encoding: 121 121 89
Width: 539
Flags: W
HStem: -218 100<20.905 139.239> 406 37<0.594337 50.6829 209.417 266.692 326.172 396.591 468.902 539.391>
LayerCount: 2
Fore
SplineSet
253 -56 m 0
 183 -188 116 -218 76 -218 c 0
 34 -218 9 -192 9 -165 c 3
 9 -142 19 -127 32 -118 c 1
 111 -118 156 -108 197 -40 c 0
 215 -10 219 1 232 31 c 1
 191 114 66 368 66 368 c 1
 53 398 11 406 3 406 c 1
 -3 414 -1 437 3 443 c 1
 29 440 99 436 138 436 c 0
 180 436 239 440 264 443 c 1
 269 438 269 412 264 406 c 1
 252 406 205 396 205 379 c 0
 205 376 205 369 207 364 c 0
 243 294 310 167 310 167 c 1
 310 167 356 268 389 342 c 0
 394 352 400 368 400 379 c 0
 400 404 337 406 329 406 c 1
 324 411 324 436 328 443 c 1
 358 439 394 436 433 436 c 0
 475 436 522 441 537 443 c 1
 541 438 542 413 537 406 c 1
 525 406 470 402 456 373 c 2
 253 -56 l 0
EndSplineSet
Validated: 33
Substitution2: "'smcp' Lowercase to Small Capitals in Latin lookup 0 subtable" y.sc
EndChar

StartChar: z
Encoding: 122 122 90
Width: 460
Flags: W
HStem: 0 46<176 347.92> 382 46<105.452 256>
VStem: 36 35<281.304 332.589>
LayerCount: 2
Fore
SplineSet
149 428 m 2
 287 428 l 2
 341 428 375 431 416 436 c 1
 421 428 419 417 419 412 c 1
 176 46 l 25
 290 46 l 2
 351 46 387 109 395 147 c 0
 396 152 404 154 408 154 c 0
 419 154 432 145 433 144 c 1
 420 105 393 0 393 0 c 1
 38 0 l 1
 38 0 28 8 28 17 c 0
 28 22 30 30 32 34 c 2
 256 381 l 1
 256 381 184 382 152 382 c 0
 101 382 82 323 71 288 c 0
 70 284 58 281 48 281 c 0
 42 281 36 283 36 285 c 1
 39 301 51 381 54 434 c 1
 54 434 113 428 149 428 c 2
EndSplineSet
Validated: 1
Substitution2: "'smcp' Lowercase to Small Capitals in Latin lookup 0 subtable" z.sc
EndChar

StartChar: braceleft
Encoding: 123 123 91
Width: 328
Flags: W
HStem: -144 26<260.847 276.58> 734 26<260.847 276.58>
VStem: 86 114<-22.7954 102.341 513.659 638.795> 113 115<91.9401 230.81 385.19 524.06>
LayerCount: 2
Fore
SplineSet
113 424 m 4xd0
 113 476 86 507 86 566 c 4
 86 670 222 756 271 760 c 5
 274 760 284 742 278 734 c 5
 250 719 200 674 200 609 c 4xe0
 200 536 228 543 228 459 c 4
 228 372 140 308 104 308 c 5
 140 308 228 244 228 157 c 4xd0
 228 73 200 80 200 7 c 4
 200 -58 250 -103 278 -118 c 5
 284 -126 274 -144 271 -144 c 5
 222 -140 86 -54 86 50 c 4xe0
 86 109 113 140 113 192 c 4
 113 245 67 284 25 297 c 5
 23 299 22 305 22 308 c 4
 22 312 23 317 25 319 c 5
 67 332 113 371 113 424 c 4xd0
EndSplineSet
Validated: 1
Substitution2: "'smcp' Lowercase to Small Capitals in Latin lookup 0 subtable" braceleft.sc
EndChar

StartChar: bar
Encoding: 124 124 92
Width: 156
Flags: W
VStem: 53 53<-118.239 764.903>
LayerCount: 2
Fore
SplineSet
106 -108 m 2
 106 -116 60 -123 58 -123 c 0
 51 -123 53 -119 53 -115 c 2
 53 757 l 1
 53 757 52 763 58 765 c 0
 75 770 94 770 97 770 c 0
 106 770 105 764 105 764 c 1
 106 -108 l 2
EndSplineSet
Validated: 1
Substitution2: "'smcp' Lowercase to Small Capitals in Latin lookup 0 subtable" bar.sc
EndChar

StartChar: braceright
Encoding: 125 125 93
Width: 328
Flags: W
HStem: -144 26<36.42 52.1526> 734 26<36.42 52.1526>
VStem: 85 115<91.9401 230.81 385.19 524.06> 113 114<-22.7954 102.341 513.659 638.795>
LayerCount: 2
Fore
SplineSet
200 424 m 0xe0
 200 371 246 332 288 319 c 1
 290 317 291 312 291 308 c 0
 291 305 290 299 288 297 c 1
 246 284 200 245 200 192 c 0xe0
 200 140 227 109 227 50 c 0
 227 -54 91 -140 42 -144 c 1
 39 -144 29 -126 35 -118 c 1
 63 -103 113 -58 113 7 c 0xd0
 113 80 85 73 85 157 c 0
 85 244 173 308 209 308 c 1
 173 308 85 372 85 459 c 0xe0
 85 543 113 536 113 609 c 0
 113 674 63 719 35 734 c 1
 29 742 39 760 42 760 c 1
 91 756 227 670 227 566 c 0xd0
 227 507 200 476 200 424 c 0xe0
EndSplineSet
Validated: 1
Substitution2: "'smcp' Lowercase to Small Capitals in Latin lookup 0 subtable" braceright.sc
EndChar

StartChar: asciitilde
Encoding: 126 126 94
Width: 570
Flags: W
HStem: 239 60<331.108 461.872> 306 60<114.128 243.702>
LayerCount: 2
Fore
SplineSet
271 273 m 0
 236 287 196 306 151 306 c 0
 112 306 77 275 65 259 c 1
 62 260 59 263 58 267 c 1
 58 307 122 366 181 366 c 0
 228 366 270 347 305 332 c 0
 339 318 380 299 425 299 c 0
 464 299 499 330 511 346 c 1
 514 345 517 342 518 338 c 1
 518 298 454 239 395 239 c 0
 348 239 306 259 271 273 c 0
EndSplineSet
Validated: 1
Substitution2: "'smcp' Lowercase to Small Capitals in Latin lookup 0 subtable" asciitilde.sc
EndChar

StartChar: exclamdown
Encoding: 161 161 96
Width: 209
Flags: W
HStem: 293 150<52.0309 156.75>
VStem: 29 150<316 419.72> 38 128<-194.241 61.0029>
LayerCount: 2
Fore
SplineSet
29 369 m 0xc0
 29 409 62 443 103 443 c 27
 145 443 179 409 179 366 c 0
 179 326 145 293 104 293 c 27
 62 293 29 329 29 369 c 0xc0
100 -210 m 0
 69 -210 38 -185 38 -142 c 0
 38 -114 67 123 80 211 c 1
 84 224 88 233 100 237 c 1
 105 237 117 230 123 220 c 1
 134 153 166 -92 166 -143 c 0xa0
 166 -185 136 -210 100 -210 c 0
EndSplineSet
Validated: 1
Substitution2: "'smcp' Lowercase to Small Capitals in Latin lookup 0 subtable" exclamdown.sc
EndChar

StartChar: cent
Encoding: 162 162 97
Width: 464
Flags: W
HStem: -38 29<188.846 220> 448 33<268 301.077>
VStem: 30 126<151.509 290.309> 185 35<-33.5505 6.1307> 268 35<436.956 478.129>
LayerCount: 2
Fore
SplineSet
30 200 m 0
 30 69 128 -9 240 -9 c 0
 335 -9 403 60 421 88 c 0
 423 91 424 100 424 107 c 3
 424 113 419 123 412 125 c 1
 391 102 358 75 300 75 c 0
 236 75 156 118 156 258 c 0
 156 319 182 396 226 396 c 0
 251 396 277 384 294 365 c 0
 310 347 327 320 354 320 c 0
 390 320 412 353 412 382 c 0
 412 408 401 420 392 430 c 1
 381 437 346 448 291 448 c 0
 153 448 30 322 30 200 c 0
268 481 m 17
 276 481 303 480 303 473 c 1
 220 -38 l 1
 211 -38 188 -35 185 -29 c 9
 268 481 l 17
EndSplineSet
Validated: 5
Substitution2: "'smcp' Lowercase to Small Capitals in Latin lookup 0 subtable" cent.sc
EndChar

StartChar: sterling
Encoding: 163 163 98
Width: 491
Flags: W
HStem: -8 102<285.599 364.376> 51 86<117.684 250> 307 42<51.1975 372.062> 580 56<233.924 326.5>
VStem: 92 105<358.353 482.38> 123 114<191.15 305.841>
LayerCount: 2
Fore
SplineSet
309 636 m 0xb8
 344 636 361 626 380 614 c 1
 384 610 389 592 389 582 c 0
 389 546 367 523 340 523 c 0
 312 523 300 535 289 549 c 0
 277 564 264 580 246 580 c 0
 206 580 197 528 197 459 c 0xb8
 197 385 237 339 237 283 c 0
 237 208 191 145 166 122 c 1
 184 132 208 137 231 137 c 0x74
 269 137 302 94 354 94 c 0
 392 94 407 126 415 141 c 1
 419 143 427 139 431 134 c 24
 436 128 436 121 436 115 c 1
 425 83 379 -8 301 -8 c 0xb4
 233 -8 206 51 132 51 c 0x74
 106 51 72 10 55 -6 c 1
 47 -6 39 7 39 16 c 0
 39 45 75 78 89 94 c 0
 114 122 123 183 123 232 c 0xb4
 123 282 92 356 92 384 c 0
 92 520 215 636 309 636 c 0xb8
60 349 m 5
 76 349 365 349 376 349 c 5
 390 338 372 311 366 307 c 5
 40 307 l 21
 34 313 51 349 60 349 c 5
EndSplineSet
Validated: 37
Substitution2: "'smcp' Lowercase to Small Capitals in Latin lookup 0 subtable" sterling.sc
EndChar

StartChar: currency
Encoding: 164 164 99
Width: 487
Flags: W
HStem: 120 40<201.989 292.532> 456 40<189.345 279.431>
VStem: 57 93<218.504 397.791> 329 93<217.847 397.55>
LayerCount: 2
Fore
SplineSet
248 160 m 0
 298 160 329 219 329 294 c 0
 329 386 286 456 234 456 c 0
 184 456 150 394 150 319 c 0
 150 227 196 160 248 160 c 0
353 455 m 1
 412 510 l 2
 420 518 446 490 453 466 c 1
 393 410 l 1
 411 380 422 344 422 307 c 0
 422 267 410 230 389 199 c 1
 443 141 l 2
 451 133 423 107 399 100 c 1
 347 155 l 1
 317 133 281 120 241 120 c 0
 198 120 158 135 127 160 c 1
 74 110 l 2
 66 102 40 130 33 154 c 1
 87 205 l 1
 68 235 57 270 57 307 c 0
 57 351 71 391 95 423 c 1
 43 479 l 2
 35 487 63 513 87 520 c 1
 139 465 l 1
 168 485 203 496 241 496 c 0
 284 496 322 481 353 455 c 1
EndSplineSet
Validated: 33
EndChar

StartChar: yen
Encoding: 165 165 100
Width: 680
Flags: W
HStem: -4 37<191.721 257.999 414.001 480.279> 149 42<178.197 499.062> 229 42<178.197 499.062> 606 37<33.7205 90.0027 261.617 322.279 440.721 514.354 599.951 670.279>
VStem: 266 140<41.2661 306.418>
LayerCount: 2
Fore
SplineSet
187 191 m 1
 203 191 492 191 503 191 c 1
 517 180 499 153 493 149 c 1
 167 149 l 17
 161 155 178 191 187 191 c 1
187 271 m 1
 203 271 492 271 503 271 c 1
 517 260 499 233 493 229 c 1
 167 229 l 17
 161 235 178 271 187 271 c 1
266 145 m 2
 266 270 l 2
 266 285 135 518 135 518 c 2
 120 546 116 553 104 573 c 0
 89 598 49 605 36 606 c 1
 31 613 32 637 36 643 c 1
 75 639 137 636 179 636 c 0
 221 636 281 639 320 643 c 1
 324 637 325 613 320 606 c 1
 307 605 259 604 259 579 c 0
 259 575 262 570 266 563 c 2
 386 342 l 1
 391 337 469 479 512 559 c 0
 516 567 517 575 517 582 c 0
 517 600 456 605 443 606 c 1
 438 613 439 637 443 643 c 1
 490 639 510 636 556 636 c 0
 600 636 627 641 668 643 c 1
 672 637 673 613 668 606 c 1
 655 605 609 604 594 581 c 0
 572 548 407 284 407 265 c 2
 406 145 l 2
 406 102 406 71 414 51 c 0
 419 38 465 34 478 33 c 1
 483 26 482 2 478 -4 c 1
 439 0 377 3 335 3 c 0
 293 3 233 0 194 -4 c 1
 190 2 189 26 194 33 c 1
 207 34 253 38 258 51 c 0
 266 71 266 102 266 145 c 2
EndSplineSet
Validated: 37
Substitution2: "'smcp' Lowercase to Small Capitals in Latin lookup 0 subtable" yen.sc
EndChar

StartChar: brokenbar
Encoding: 166 166 101
Width: 156
Flags: W
VStem: 53 53<-118.239 256.903 389.761 764.903>
LayerCount: 2
Back
SplineSet
106 -108 m 6
 106 -116 60 -123 58 -123 c 4
 51 -123 53 -119 53 -115 c 6
 53 757 l 5
 53 757 52 763 58 765 c 4
 75 770 94 770 97 770 c 4
 106 770 105 764 105 764 c 5
 106 -108 l 6
EndSplineSet
Fore
SplineSet
106 400 m 2
 106 392 60 385 58 385 c 0
 51 385 53 389 53 393 c 2
 53 757 l 1
 53 757 52 763 58 765 c 0
 75 770 94 770 97 770 c 0
 106 770 105 764 105 764 c 1
 106 400 l 2
106 -108 m 2
 106 -116 60 -123 58 -123 c 0
 51 -123 53 -119 53 -115 c 2
 53 249 l 1
 53 249 52 255 58 257 c 0
 75 262 94 262 97 262 c 0
 106 262 105 256 105 256 c 1
 106 -108 l 2
EndSplineSet
Validated: 1
Substitution2: "'smcp' Lowercase to Small Capitals in Latin lookup 0 subtable" brokenbar.sc
EndChar

StartChar: section
Encoding: 167 167 102
Width: 467
Flags: W
HStem: -92 50<142 241.122> 603 50<231.878 331>
VStem: 39 71<347.939 450.268> 128 58<452 568> 287 58<-7 109> 363 71<110.62 213.061>
LayerCount: 2
Fore
SplineSet
149 -92 m 0
 135 -92 111 -84 99 -78 c 1
 95 -71 92 -58 92 -52 c 0
 92 -30 103 -9 132 -9 c 0
 151 -9 166 -22 175 -31 c 0
 183 -39 196 -42 211 -42 c 0
 242 -42 287 -26 287 12 c 0
 287 58 206 134 159 177 c 0
 95 236 39 285 39 377 c 0
 39 456 141 569 179 595 c 9
 178 583 182 575 177 564 c 24
 170 546 149 523 149 523 c 0
 123 492 110 475 110 431 c 0
 110 348 169 291 223 241 c 0
 271 197 345 143 345 75 c 0
 345 -5 261 -92 149 -92 c 0
324 653 m 0
 212 653 128 566 128 486 c 0
 128 418 202 364 250 320 c 0
 304 270 363 213 363 130 c 0
 363 86 348 66 324 37 c 0
 324 37 303 15 296 -3 c 24
 291 -14 295 -22 294 -34 c 17
 332 -8 434 105 434 184 c 0
 434 276 378 325 314 384 c 0
 267 427 186 503 186 549 c 0
 186 587 231 603 262 603 c 0
 277 603 292 598 301 590 c 0
 310 582 323 570 342 570 c 0
 371 570 381 588 381 610 c 0
 381 616 379 630 374 640 c 1
 360 646 338 653 324 653 c 0
EndSplineSet
Validated: 5
Substitution2: "'smcp' Lowercase to Small Capitals in Latin lookup 0 subtable" section.sc
EndChar

StartChar: dieresis
Encoding: 168 168 103
Width: 405
Flags: W
HStem: 446 135<46.0563 146.491 256.509 357.491>
VStem: 29 135<463.509 563.944> 239 136<463.509 563.944>
LayerCount: 2
Fore
SplineSet
239 514 m 4
 239 552 269 581 307 581 c 4
 345 581 375 552 375 514 c 4
 375 476 345 446 307 446 c 4
 269 446 239 476 239 514 c 4
29 514 m 4
 29 552 58 581 96 581 c 4
 134 581 164 552 164 514 c 4
 164 476 134 446 96 446 c 4
 58 446 29 476 29 514 c 4
EndSplineSet
Validated: 1
EndChar

StartChar: copyright
Encoding: 169 169 104
Width: 600
Flags: W
HStem: 38 44<206.089 393.972> 163 25<275.66 360.851> 429 26<271.167 357.362> 538 46<203.58 396.481>
VStem: 27 45<214.08 406.92> 158 72<223.57 383.568> 396 19<234.315 254.873> 528 46<214.08 406.92>
LayerCount: 2
Fore
SplineSet
415 252 m 1
 415 247 404 191 398 189 c 0
 372 180 341 163 303 163 c 0
 218 163 158 217 158 305 c 0
 158 394 229 455 307 455 c 0
 334 455 370 444 394 439 c 1
 395 434 408 382 408 377 c 0
 408 375 398 371 393 371 c 3
 391 371 389 370 387 372 c 1
 383 388 368 429 310 429 c 0
 252 429 230 368 230 310 c 0
 230 246 257 188 315 188 c 0
 340 188 356 195 367 205 c 0
 384 221 395 253 396 256 c 1
 402 256 412 255 415 252 c 1
72 310 m 0
 72 184 174 82 300 82 c 0
 426 82 528 184 528 310 c 0
 528 436 426 538 300 538 c 0
 174 538 72 436 72 310 c 0
27 311 m 0
 27 462 149 584 300 584 c 0
 451 584 574 462 574 311 c 0
 574 160 451 38 300 38 c 0
 149 38 27 160 27 311 c 0
EndSplineSet
Validated: 1
Substitution2: "'smcp' Lowercase to Small Capitals in Latin lookup 0 subtable" copyright.sc
EndChar

StartChar: ordfeminine
Encoding: 170 170 105
Width: 398
Flags: W
HStem: 248 48<117.5 209.411 270 340.162> 527 30<150.861 237>
VStem: 49 98<301.952 376.005> 58 79<447.362 504.577> 221 95<302.005 399 435 516.116>
LayerCount: 2
Fore
SplineSet
192 296 m 0xe8
 207 296 221 307 221 311 c 2
 221 399 l 1
 207 394 187 388 172 379 c 0
 152 367 147 352 147 337 c 0
 148 308 173 296 192 296 c 0xe8
207 557 m 0
 267 557 316 513 316 452 c 2
 316 327 l 2
 316 309 325 302 334 302 c 0
 344 302 354 310 357 311 c 1
 360 310 364 301 364 297 c 3
 364 292 362 288 360 285 c 1
 350 276 313 249 282 249 c 0
 258 249 233 264 226 280 c 1
 219 275 171 248 145 248 c 0
 90 248 49 290 49 330 c 0xe8
 49 356 69 379 87 386 c 0
 114 396 184 422 221 435 c 1
 221 440 221 440 221 445 c 2
 221 463 l 2
 221 497 204 527 179 527 c 0
 151 527 144 503 137 473 c 0
 133 458 121 444 96 444 c 0
 76 444 58 457 58 476 c 0xd8
 58 485 62 496 68 505 c 1
 77 514 143 557 207 557 c 0
EndSplineSet
Validated: 1
Substitution2: "'smcp' Lowercase to Small Capitals in Latin lookup 0 subtable" ordfeminine.sc
EndChar

StartChar: guillemotleft
Encoding: 171 171 106
Width: 477
Flags: W
LayerCount: 2
Fore
SplineSet
307 248 m 1
 325 231 349 206 379 177 c 0
 433 125 453 106 453 98 c 0
 453 86 424 74 418 73 c 1
 417 75 359 132 212 227 c 1
 207 229 205 235 205 241 c 0
 205 251 206 260 213 268 c 1
 344 347 414 419 419 423 c 1
 425 422 454 410 454 398 c 0
 454 390 434 371 380 319 c 0
 350 290 325 265 307 248 c 1
128 248 m 1
 146 231 170 206 200 177 c 0
 254 125 274 106 274 98 c 0
 274 86 245 74 239 73 c 1
 238 75 180 132 33 227 c 1
 28 229 26 235 26 241 c 0
 26 251 27 260 34 268 c 1
 165 347 235 419 240 423 c 1
 246 422 275 410 275 398 c 0
 275 390 255 371 201 319 c 0
 171 290 146 265 128 248 c 1
EndSplineSet
Validated: 1
Substitution2: "'smcp' Lowercase to Small Capitals in Latin lookup 0 subtable" guillemotleft.sc
EndChar

StartChar: logicalnot
Encoding: 172 172 107
Width: 538
Flags: W
HStem: 362 58<33.2334 431>
VStem: 431 72<164.125 362>
LayerCount: 2
Fore
SplineSet
503 169 m 1
 502 168 466 160 444 160 c 0
 434 160 431 167 431 167 c 1
 431 167 431 326 431 362 c 1
 35 362 l 1
 35 362 29 362 29 372 c 1
 29 372 34 420 44 420 c 2
 503 420 l 17
 503 408 503 169 503 169 c 1
EndSplineSet
Validated: 1
EndChar

StartChar: registered
Encoding: 174 174 108
Width: 600
Flags: W
HStem: 89 44<206.089 393.972> 234 16<175.594 202.894 268.106 295.406 429.28 449> 355 19<265 279.875> 482 19<175.711 202.894 267.099 310.556> 589 46<203.58 396.481>
VStem: 27 45<265.08 457.92> 206 59<258.378 355 374 477.622> 329 62<385.07 475.989> 528 46<265.08 457.92>
LayerCount: 2
Fore
SplineSet
299 501 m 0
 349 501 391 475 391 427 c 0
 391 394 349 367 330 362 c 1
 359 323 392 288 392 288 c 0
 421 255 446 251 449 251 c 1
 451 248 449 235 449 234 c 1
 437 233 420 232 404 232 c 0
 373 232 356 245 338 268 c 0
 278 349 l 0
 278 349 274 355 271 355 c 0
 268 355 265 355 265 355 c 9
 265 295 l 2
 265 278 265 266 268 258 c 0
 270 253 289 250 294 250 c 1
 296 247 296 236 294 234 c 1
 278 236 253 237 236 237 c 0
 219 237 193 236 177 234 c 1
 175 236 175 247 177 250 c 1
 182 250 201 253 203 258 c 0
 206 266 206 278 206 295 c 2
 206 441 l 2
 206 458 206 470 203 478 c 0
 201 483 182 484 177 484 c 1
 175 487 175 499 177 501 c 1
 195 500 220 500 237 500 c 0
 254 500 275 501 299 501 c 0
329 424 m 0
 329 456 314 482 287 482 c 0
 278 482 269 482 267 478 c 0
 265 473 265 465 265 453 c 2
 265 374 l 17
 281 374 l 0
 307 374 329 393 329 424 c 0
72 361 m 0
 72 235 174 133 300 133 c 0
 426 133 528 235 528 361 c 0
 528 487 426 589 300 589 c 0
 174 589 72 487 72 361 c 0
27 362 m 0
 27 513 149 635 300 635 c 0
 451 635 574 513 574 362 c 0
 574 211 451 89 300 89 c 0
 149 89 27 211 27 362 c 0
EndSplineSet
Validated: 1
Substitution2: "'smcp' Lowercase to Small Capitals in Latin lookup 0 subtable" registered.sc
EndChar

StartChar: macron
Encoding: 175 175 109
Width: 460
Flags: W
HStem: 547 50<541.586 765.904>
VStem: 540 232<547.013 597>
LayerCount: 2
Fore
SplineSet
540 556 m 0
 540 558 541 597 552 597 c 2
 767 597 l 2
 769 597 772 596 772 590 c 0
 772 585 771 572 766 554 c 0
 764 548 759 547 759 547 c 1
 546 547 l 1
 546 547 540 546 540 556 c 0
EndSplineSet
Validated: 1
EndChar

StartChar: degree
Encoding: 176 176 110
Width: 262
Flags: W
HStem: 425 46<82.2032 178.07> 602 45<81.6978 178.587>
VStem: 19 47<488.031 585.491> 195 46<488.031 585.491>
LayerCount: 2
Fore
SplineSet
66 537 m 0
 66 501 94 471 130 471 c 0
 166 471 195 501 195 537 c 0
 195 573 166 602 130 602 c 0
 94 602 66 573 66 537 c 0
19 537 m 0
 19 598 69 647 130 647 c 0
 191 647 241 598 241 537 c 0
 241 476 191 425 130 425 c 0
 69 425 19 476 19 537 c 0
EndSplineSet
Validated: 1
Substitution2: "'smcp' Lowercase to Small Capitals in Latin lookup 0 subtable" degree.sc
EndChar

StartChar: plusminus
Encoding: 177 177 111
Width: 530
Flags: W
HStem: 6 64<29.4231 502.937> 303 64<29.4231 233 297 502.937>
VStem: 233 64<100.395 303 367 571.029>
LayerCount: 2
Fore
SplineSet
32 6 m 2
 27 6 26 12 26 22 c 0
 26 26 29 58 37 70 c 1
 498 70 l 2
 504 70 507 62 507 56 c 0
 507 35 500 16 492 6 c 1
 32 6 l 2
297 108 m 1
 285 100 254 97 244 97 c 0
 238 97 233 101 233 105 c 2
 233 303 l 1
 32 303 l 2
 27 303 26 309 26 319 c 0
 26 323 29 355 37 367 c 1
 233 367 l 1
 233 563 l 1
 244 572 277 574 281 574 c 0
 291 574 297 572 297 565 c 2
 297 367 l 1
 498 367 l 2
 504 367 507 359 507 353 c 0
 507 332 500 313 492 303 c 1
 297 303 l 1
 297 108 l 1
EndSplineSet
Validated: 1
EndChar

StartChar: uni00B2
Encoding: 178 178 112
Width: 313
Flags: W
HStem: 254 71<101 247.546> 589 53<92.1184 167.713>
VStem: 182 95<469.713 573.612>
LayerCount: 2
Fore
SplineSet
288 382 m 1
 281 353 254 265 250 254 c 9
 23 254 l 1
 20 257 17 265 16 268 c 1
 64 321 87 347 135 409 c 0
 170 454 182 487 182 525 c 0
 182 565 152 589 118 589 c 0
 74 589 52 545 47 540 c 5
 44 540 31 542 31 554 c 5
 42 577 91 642 161 642 c 0
 231 642 277 607 277 538 c 0
 277 484 234 438 196 403 c 0
 166 376 138 352 101 325 c 1
 111 325 213 325 213 325 c 2
 243 325 253 358 263 380 c 0
 264 383 270 385 274 385 c 0
 278 385 285 384 288 382 c 1
EndSplineSet
Validated: 1
EndChar

StartChar: uni00B3
Encoding: 179 179 113
Width: 456
Flags: W
HStem: 245 27<100.55 171.878> 596 46<86.1971 164.919>
VStem: 177 80<502.008 584.315> 196 90<311.683 416.952>
LayerCount: 2
Fore
SplineSet
161 642 m 0xe0
 197 642 257 619 257 558 c 0xe0
 257 497 206 481 184 477 c 1
 204 476 286 452 286 377 c 0
 286 288 188 245 110 245 c 0
 70 245 39 256 27 266 c 1
 23 272 18 284 18 293 c 0
 18 308 29 328 50 328 c 0
 67 328 79 314 90 297 c 0
 100 281 119 272 135 272 c 0
 173 272 196 299 196 354 c 0xd0
 196 400 165 443 124 443 c 0
 120 443 102 443 92 440 c 1
 90 443 86 450 86 455 c 0
 86 457 87 465 88 467 c 1
 119 471 177 488 177 538 c 0
 177 571 154 596 117 596 c 0
 84 596 57 568 53 563 c 1
 49 564 37 570 39 580 c 1
 62 610 113 642 161 642 c 0xe0
EndSplineSet
Validated: 1
EndChar

StartChar: acute
Encoding: 180 180 114
Width: 234
Flags: W
HStem: 522 165
VStem: 27 173
LayerCount: 2
Fore
SplineSet
200 658 m 4
 200 619 54 522 44 522 c 4
 37 522 27 534 27 540 c 4
 27 545 83 635 120 678 c 4
 125 683 140 687 154 687 c 4
 189 687 200 666 200 658 c 4
EndSplineSet
Validated: 1
EndChar

StartChar: uni00B5
Encoding: 181 181 115
Width: 535
Flags: W
HStem: -8 122<187.892 279.523> -4 108<394.449 473.192> 426 20G<83 94 342 353>
VStem: 52 103<-204.804 3.83203> 61 107<269.229 424> 318 112<329.63 423.537> 327 53<161.665 276.288>
LayerCount: 2
Back
Refer: 1309 956 N 1 0 0 1 0 0 3
Fore
SplineSet
135 220 m 1xa8
 141 179 162 114 213 114 c 0
 272 114 327 165 327 217 c 1xaa
 324 241 320 306 320 329 c 0
 320 342 319 384 318 422 c 1
 323 430 336 446 348 446 c 0
 358 446 430 419 430 406 c 0xa4
 430 374 415 326 404 282 c 0
 396 251 389 229 380 195 c 17
 379 113 414 104 432 104 c 0
 470 104 491 140 501 157 c 1
 507 157 517 136 519 129 c 0
 520 125 518 112 517 109 c 0
 503 67 476 -4 436 -4 c 0x62
 388 -3 359 58 350 122 c 1
 330 52 290 -8 234 -8 c 0
 184 -8 134 76 126 137 c 1
 128 112 133 -85 155 -203 c 1
 150 -211 131 -227 113 -227 c 0
 94 -227 52 -188 52 -175 c 0xb2
 52 -157 65 112 77 216 c 1
 77 240 61 357 61 380 c 0
 61 393 62 416 64 424 c 1
 68 435 77 446 89 446 c 0
 99 446 168 419 168 406 c 0
 168 368 160 336 154 308 c 0
 146 269 141 248 135 220 c 1xa8
EndSplineSet
Validated: 33
EndChar

StartChar: paragraph
Encoding: 182 182 116
Width: 488
Flags: W
HStem: -4 37<160.275 225.479 406.616 474.584> 288 45<288 344> 299 45<395 424.484> 603 45<288.286 344.805> 616 37<398.838 447.1>
VStem: 23 265<377.565 560.613> 238 50<52.6687 287> 345 50<51.7075 292 344 595.672>
LayerCount: 2
Fore
SplineSet
345 338 m 1xd3
 345 374 345 585 345 598 c 1
 341 602 326 603 316 603 c 0
 306 603 294 603 288 597 c 1
 288 597 288 435 288 333 c 1
 294 333 341 335 345 338 c 1xd3
474 -4 m 1
 438 -2 379 3 318 3 c 24
 257 3 203 -2 162 -4 c 1
 157 5 160 33 162 33 c 0
 174 33 224 41 232 59 c 0
 239 74 238 95 238 116 c 2
 238 116 238 220 238 287 c 1xab
 110 287 23 349 23 469 c 0
 23 608 135 652 217 652 c 0
 276 652 266 648 325 648 c 0xb5
 392 648 445 653 445 653 c 1
 450 648 449 619 444 616 c 1
 429 616 403 608 398 596 c 0
 396 589 395 583 395 532 c 0
 395 471 395 363 395 344 c 1
 400 343 444 357 444 357 c 1
 449 357 448 351 448 347 c 0
 447 337 432 312 425 309 c 0
 414 304 402 300 394 299 c 1xad
 394 228 394 203 394 141 c 0
 394 105 394 74 399 60 c 0
 406 41 464 34 472 34 c 1
 478 24 476 2 474 -4 c 1
338 51 m 0
 345 66 344 87 344 108 c 2
 344 108 344 223 344 292 c 1
 330 291 304 289 288 288 c 1xc3
 288 231 288 190 288 133 c 0
 288 97 288 66 293 52 c 0
 295 46 335 45 338 51 c 0
EndSplineSet
Validated: 33
Substitution2: "'smcp' Lowercase to Small Capitals in Latin lookup 0 subtable" paragraph.sc
EndChar

StartChar: periodcentered
Encoding: 183 183 117
Width: 205
Flags: W
HStem: 188 150<55.1921 156.5>
VStem: 31 147<211.5 316.5>
LayerCount: 2
Fore
SplineSet
31 265 m 4
 31 305 64 338 105 338 c 27
 145 338 178 305 178 265 c 0
 178 225 148 188 107 188 c 27
 65 188 31 225 31 265 c 4
EndSplineSet
Validated: 1
EndChar

StartChar: cedilla
Encoding: 184 184 118
Width: 443
Flags: W
HStem: -156 28<156.459 238.958> -65 63<197.959 240>
VStem: 245 54<-124.534 -65.5938>
LayerCount: 2
Fore
SplineSet
227 -25 m 1
 235 -24 240 -23 249 -23 c 27
 276 -23 299 -46 299 -72 c 0
 299 -119 263 -156 202 -156 c 0
 180 -156 161 -147 154 -140 c 1
 152 -137 150 -124 150 -120 c 0
 150 -114 151 -113 153 -113 c 1
 157 -115 180 -128 201 -128 c 0
 235 -128 245 -112 245 -98 c 0
 245 -84 240 -65 219 -65 c 0
 213 -65 203 -68 193 -72 c 1
 190 -72 180 -63 180 -57 c 1
 189 -42 202 -17 208 -2 c 1
 240 -2 l 1
 240 -2 232 -16 227 -25 c 1
EndSplineSet
Validated: 1
EndChar

StartChar: uni00B9
Encoding: 185 185 119
Width: 277
Flags: W
HStem: 252 26<37.1213 85.8495 194.394 241.878> 621 20G<178 182>
VStem: 97 87<292.304 557.384>
LayerCount: 2
Fore
SplineSet
241 252 m 1
 217 253 165 256 141 256 c 0
 117 256 63 253 39 252 c 1
 36 255 36 278 39 278 c 1
 47 278 80 284 87 292 c 0
 92 298 97 336 97 347 c 2
 97 511 l 2
 97 538 90 558 78 558 c 0
 69 558 44 547 33 542 c 1
 28 543 22 554 22 562 c 0
 22 563 22 568 23 569 c 1
 94 599 177 641 179 641 c 2
 180 641 l 2
 184 641 195 624 196 621 c 1
 193 610 184 575 184 536 c 2
 184 346 l 2
 184 328 187 298 194 291 c 0
 202 282 236 278 241 278 c 1
 243 278 242 253 241 252 c 1
EndSplineSet
Validated: 1
EndChar

StartChar: ordmasculine
Encoding: 186 186 120
Width: 385
Flags: W
HStem: 251 31<154.805 226.181> 523 30<139.125 209.443>
VStem: 15 102<324.228 475.727> 249 102<328.742 480.169>
LayerCount: 2
Fore
SplineSet
174 523 m 3
 121 523 117 461 117 413 c 27
 117 355 138 282 191 282 c 3
 244 282 249 343 249 390 c 27
 249 448 227 523 174 523 c 3
182 553 m 0
 281 553 351 489 351 405 c 0
 351 321 278 251 183 251 c 0
 84 251 15 316 15 400 c 0
 15 484 88 553 182 553 c 0
EndSplineSet
Validated: 1
Substitution2: "'smcp' Lowercase to Small Capitals in Latin lookup 0 subtable" ordmasculine.sc
EndChar

StartChar: guillemotright
Encoding: 187 187 121
Width: 479
Flags: W
LayerCount: 2
Fore
SplineSet
172 248 m 1
 154 265 129 290 99 319 c 0
 45 371 25 390 25 398 c 0
 25 410 54 422 60 423 c 1
 65 419 135 347 266 268 c 1
 273 260 274 251 274 241 c 0
 274 235 272 229 267 227 c 1
 120 132 62 75 61 73 c 1
 55 74 26 86 26 98 c 0
 26 106 46 125 100 177 c 0
 130 206 154 231 172 248 c 1
351 248 m 1
 333 265 308 290 278 319 c 0
 224 371 204 390 204 398 c 0
 204 410 233 422 239 423 c 1
 244 419 314 347 445 268 c 1
 452 260 453 251 453 241 c 0
 453 235 451 229 446 227 c 1
 299 132 241 75 240 73 c 1
 234 74 205 86 205 98 c 0
 205 106 225 125 279 177 c 0
 309 206 333 231 351 248 c 1
EndSplineSet
Validated: 1
Substitution2: "'smcp' Lowercase to Small Capitals in Latin lookup 0 subtable" guillemotright.sc
EndChar

StartChar: onequarter
Encoding: 188 188 122
Width: 770
Flags: W
HStem: -3 21G<630 654.5> 92 46<498.824 601 688 725.297> 252 26<71.1213 119.849 228.394 275.878> 621 20G<212 216>
VStem: 131 87<292.304 557.384> 601 87<-1.5817 92 138 262>
LayerCount: 2
Fore
SplineSet
668 386 m 0
 672 386 688 377 688 367 c 10
 688 138 l 25
 717 138 l 2
 722 138 726 135 726 122 c 0
 726 113 721 92 721 92 c 9
 688 92 l 25
 688 2 l 17
 688 2 668 -3 641 -3 c 0
 619 -3 601 0 601 5 c 2
 601 92 l 25
 448 92 l 17
 443 94 436 101 436 109 c 1
 511 199 590 298 655 378 c 0
 659 383 663 386 668 386 c 0
601 138 m 1
 601 182 601 262 601 262 c 17
 578 235 511 152 499 138 c 1
 494 138 569 138 601 138 c 1
625 677 m 1
 280 -11 l 2
 277 -18 260 -30 243 -34 c 0
 228 -37 226 -25 226 -25 c 1
 571 663 l 1
 577 672 590 680 607 684 c 0
 616 686 624 682 625 677 c 1
275 252 m 1
 251 253 199 256 175 256 c 0
 151 256 97 253 73 252 c 1
 70 255 70 278 73 278 c 1
 81 278 114 284 121 292 c 0
 126 298 131 336 131 347 c 2
 131 511 l 2
 131 538 124 558 112 558 c 0
 103 558 78 547 67 542 c 1
 62 543 56 554 56 562 c 0
 56 563 56 568 57 569 c 1
 128 599 211 641 213 641 c 2
 214 641 l 2
 218 641 229 624 230 621 c 1
 227 610 218 575 218 536 c 2
 218 346 l 2
 218 328 221 298 228 291 c 0
 236 282 270 278 275 278 c 1
 277 278 276 253 275 252 c 1
EndSplineSet
Validated: 37
EndChar

StartChar: onehalf
Encoding: 189 189 123
Width: 791
Flags: W
HStem: -2 71<550 696.546> 252 26<72.0156 119.849 228.394 275.615> 333 53<541.118 616.713> 621 20G<212 216>
VStem: 131 87<292.304 557.384> 631 95<213.713 317.612>
LayerCount: 2
Fore
SplineSet
737 126 m 5
 730 97 703 9 699 -2 c 13
 472 -2 l 5
 469 1 466 9 465 12 c 5
 513 65 536 91 584 153 c 4
 619 198 631 231 631 269 c 4
 631 309 601 333 567 333 c 4
 523 333 501 289 496 284 c 5
 493 284 480 286 480 298 c 5
 491 321 540 386 610 386 c 4
 680 386 726 351 726 282 c 4
 726 228 683 182 645 147 c 4
 615 120 587 96 550 69 c 5
 560 69 662 69 662 69 c 6
 692 69 702 102 712 124 c 4
 713 127 719 129 723 129 c 4
 727 129 734 128 737 126 c 5
603 677 m 5
 258 -11 l 6
 255 -18 238 -30 221 -34 c 4
 206 -37 204 -25 204 -25 c 5
 549 663 l 5
 555 672 568 680 585 684 c 4
 594 686 602 682 603 677 c 5
275 252 m 5
 251 253 199 256 175 256 c 4
 151 256 97 253 73 252 c 5
 70 255 70 278 73 278 c 5
 81 278 114 284 121 292 c 4
 126 298 131 336 131 347 c 6
 131 511 l 6
 131 538 124 558 112 558 c 4
 103 558 78 547 67 542 c 5
 62 543 56 554 56 562 c 4
 56 563 56 568 57 569 c 5
 128 599 211 641 213 641 c 6
 214 641 l 6
 218 641 229 624 230 621 c 5
 227 610 218 575 218 536 c 6
 218 346 l 6
 218 328 221 298 228 291 c 4
 236 282 270 278 275 278 c 5
 277 278 276 253 275 252 c 5
EndSplineSet
Validated: 1
EndChar

StartChar: threequarters
Encoding: 190 190 124
Width: 748
Flags: W
HStem: -3 21G<608 632.5> 92 46<476.824 579 666 703.297> 245 27<105.55 176.878> 596 46<91.1971 169.919>
VStem: 182 80<502.008 584.315> 201 90<311.683 416.952> 579 87<-1.5817 92 138 262>
LayerCount: 2
Fore
SplineSet
166 642 m 0xfa
 202 642 262 619 262 558 c 0xfa
 262 497 211 481 189 477 c 1
 209 476 291 452 291 377 c 0
 291 288 193 245 115 245 c 0
 75 245 44 256 32 266 c 1
 28 272 23 284 23 293 c 0
 23 308 34 328 55 328 c 0
 72 328 84 314 95 297 c 0
 105 281 124 272 140 272 c 0
 178 272 201 299 201 354 c 0xf6
 201 400 170 443 129 443 c 0
 125 443 107 443 97 440 c 1
 95 443 91 450 91 455 c 0
 91 457 92 465 93 467 c 1
 124 471 182 488 182 538 c 0
 182 571 159 596 122 596 c 0
 89 596 62 568 58 563 c 1
 54 564 42 570 44 580 c 1
 67 610 118 642 166 642 c 0xfa
646 386 m 0
 650 386 666 377 666 367 c 10
 666 138 l 25
 695 138 l 2
 700 138 704 135 704 122 c 0
 704 113 699 92 699 92 c 9
 666 92 l 25
 666 2 l 17
 666 2 646 -3 619 -3 c 0
 597 -3 579 0 579 5 c 2
 579 92 l 25
 426 92 l 17
 421 94 414 101 414 109 c 1
 489 199 568 298 633 378 c 0
 637 383 641 386 646 386 c 0
579 138 m 1
 579 182 579 262 579 262 c 17
 556 235 489 152 477 138 c 1
 472 138 547 138 579 138 c 1
603 677 m 1
 258 -11 l 2
 255 -18 238 -30 221 -34 c 0
 206 -37 204 -25 204 -25 c 1
 549 663 l 1
 555 672 568 680 585 684 c 0
 594 686 602 682 603 677 c 1
EndSplineSet
Validated: 37
EndChar

StartChar: questiondown
Encoding: 191 191 125
Width: 386
Flags: W
HStem: -214 67<151.786 267.5> 294 150<209.75 310.711>
VStem: 37 85<-116.841 6> 188 147<315.125 419.536> 250 38<177.477 236.338>
LayerCount: 2
Fore
SplineSet
335 367 m 0xf0
 335 325 301 294 263 294 c 0
 221 294 188 326 188 367 c 0
 188 408 219 444 259 444 c 0
 296 444 335 412 335 367 c 0xf0
286 -85 m 0
 324 -85 348 -118 348 -151 c 0
 348 -168 340 -191 333 -197 c 1
 319 -205 292 -214 243 -214 c 0
 198 -214 37 -177 37 -38 c 0
 37 50 110 84 163 117 c 0
 190 134 228 152 245 177 c 0
 252 187 250 209 250 219 c 1
 252 225 260 237 265 237 c 0
 273 237 284 229 288 225 c 1xe8
 295 209 308 165 308 125 c 0
 308 67 264 35 228 11 c 0
 178 -22 122 -65 122 -99 c 0
 122 -120 140 -147 176 -147 c 0
 212 -147 244 -85 286 -85 c 0
EndSplineSet
Validated: 33
Substitution2: "'smcp' Lowercase to Small Capitals in Latin lookup 0 subtable" questiondown.sc
EndChar

StartChar: AE
Encoding: 198 198 132
Width: 951
Flags: W
HStem: -4 37<18.9239 80.3411 181.438 241.292 374.837 440.999> -2 44<596.273 807.133> 4 28<21 129> 225 48<297.999 449> 310 47<589 736.427> 620 37<375.646 442 592.003 782.441>
VStem: 449 140<50.3979 225 273.695 306.897 358.474 520 604 616.372> 773 31<386.617 434.825>
LayerCount: 2
Fore
SplineSet
449 275 m 1x1f
 449 520 l 1
 298 280 l 1
 298 280 297 276 299 276 c 0
 319 274 352 273 375 273 c 0
 404 273 422 273 449 275 c 1x1f
589 547 m 2
 589 368 l 2
 589 362 610 357 632 357 c 2
 685 357 l 2
 744 357 757 369 773 427 c 0
 774 432 778 435 785 435 c 0
 792 435 801 433 804 430 c 1
 804 238 l 1
 802 236 793 234 786 234 c 0
 779 234 773 237 772 242 c 0
 760 290 746 299 737 303 c 0
 725 308 699 310 661 310 c 0
 633 310 589 308 589 296 c 2
 589 141 l 2
 589 135 589 82 597 62 c 0
 603 48 636 42 662 42 c 2
 728 42 l 2
 766 42 798 52 821 75 c 0
 842 96 858 125 875 170 c 0
 876 174 882 176 889 176 c 0
 899 176 916 173 919 170 c 1
 900 116 872 42 865 -2 c 1x5f
 823 -2 416 -2 377 -3 c 1
 373 3 372 27 377 34 c 1
 390 35 436 38 441 51 c 0
 449 71 449 102 449 145 c 2
 449 225 l 1
 418 226 391 225 370 225 c 0
 329 225 307 225 272 224 c 0
 269 224 265 221 264 219 c 2
 264 219 225 160 209 132 c 0
 194 107 176 73 175 66 c 0
 170 40 231 33 239 33 c 1
 244 26 244 0 240 -4 c 1x9f
 206 0 173 4 129 4 c 0x3f
 83 4 56 0 20 -4 c 1x9f
 17 0 15 21 21 32 c 1x3f
 33 32 86 48 99 64 c 0
 122 92 131 106 148 134 c 2
 442 604 l 0
 442 605 442 606 441 607 c 0
 434 621 390 622 377 623 c 1
 372 630 373 654 377 660 c 1
 422 657 478 657 520 657 c 0
 562 657 786 663 845 664 c 1
 852 614 865 561 874 516 c 1
 871 513 858 511 851 511 c 0
 844 511 837 514 835 519 c 0
 814 574 788 620 727 620 c 2
 644 620 l 2
 621 620 599 619 594 608 c 0
 589 596 589 576 589 547 c 2
EndSplineSet
Validated: 33
EndChar

StartChar: Eth
Encoding: 208 208 142
Width: 755
Flags: W
HStem: -6 45<29.9366 98.1946 251.299 429.606> 308 40<23.3369 376.828> 620 40<29.2383 97.3484 245.682 400.199>
VStem: 103 140<49.4974 616.164> 564 156<214.685 455.811>
LayerCount: 2
Fore
SplineSet
375 308 m 5
 346 308 39 308 25 308 c 5
 21 308 20 339 26 348 c 5
 55 348 361 348 375 348 c 5
 379 348 379 317 375 308 c 5
EndSplineSet
Refer: 36 68 N 1 0 0 1 0 0 2
Validated: 37
EndChar

StartChar: multiply
Encoding: 215 215 149
Width: 532
Flags: W
LayerCount: 2
Fore
SplineSet
449 107 m 5
 446 93 426 69 419 62 c 4
 415 58 409 57 406 60 c 6
 266 200 l 5
 124 58 l 6
 120 54 115 58 108 65 c 4
 105 68 85 92 82 106 c 5
 221 245 l 5
 82 384 l 5
 83 398 105 422 108 425 c 4
 115 432 121 435 126 430 c 6
 266 290 l 5
 408 432 l 6
 412 436 420 433 424 429 c 4
 439 414 448 396 449 383 c 5
 311 245 l 5
 449 107 l 5
EndSplineSet
Validated: 1
Substitution2: "'smcp' Lowercase to Small Capitals in Latin lookup 0 subtable" multiply.sc
EndChar

StartChar: Oslash
Encoding: 216 216 150
Width: 756
Flags: W
HStem: -10 43<320.085 468.834> 624 43<286.08 434.576>
VStem: 41 151<211.696 443.97> 564 151<211.714 444.117>
LayerCount: 2
Fore
SplineSet
541 676 m 17
 549 673 581 662 579 655 c 9
 202 -18 l 17
 194 -15 162 -3 164 4 c 9
 541 676 l 17
EndSplineSet
Refer: 47 79 N 1 0 0 1 0 0 2
Validated: 37
EndChar

StartChar: Thorn
Encoding: 222 222 156
Width: 592
Flags: W
HStem: -4 37<27.7205 93.9985 250.001 316.279> 3 198<150 303.148> 146 51<287.633 371.611> 479 38<245.35 350.137> 625 37<27.7205 93.9985 250.001 316.279>
VStem: 102 140<41.2661 476.969 517 616.734> 411 142<250.288 416.362>
LayerCount: 2
Fore
SplineSet
173 655 m 0x9e
 215 655 275 658 314 662 c 1
 318 656 319 632 314 625 c 1
 301 624 255 620 250 607 c 0
 242 588 242 558 242 517 c 1
 268 518 297 519 327 519 c 0
 452 519 553 455 553 341 c 0
 553 221 457 146 356 146 c 0xbe
 320 146 294 162 287 169 c 0
 281 175 276 201 283 201 c 1x5e
 293 198 309 197 324 197 c 0
 373 197 411 250 411 327 c 0
 411 406 364 479 297 479 c 0
 274 479 252 478 247 467 c 0
 242 455 242 406 242 406 c 1
 242 145 l 2
 242 102 242 71 250 51 c 0
 255 38 301 34 314 33 c 1
 319 26 318 2 314 -4 c 1xbe
 275 0 213 3 171 3 c 0x5e
 129 3 69 0 30 -4 c 1
 26 2 25 26 30 33 c 1
 43 34 89 38 94 51 c 0
 102 71 102 102 102 145 c 2
 102 513 l 2
 102 556 102 587 94 607 c 0
 89 620 43 624 30 625 c 1
 25 632 26 656 30 662 c 1
 69 658 131 655 173 655 c 0x9e
EndSplineSet
Validated: 33
EndChar

StartChar: germandbls
Encoding: 223 223 157
Width: 591
Flags: W
HStem: -10 44<23.4576 89.1145 232.472 277.542 377 467.693> 381 47<40.9586 96> 651 47<267.531 351.53>
VStem: 96 130<41.2661 381 428 538.361> 386 9<402 525> 472 92<74.0376 183.5>
LayerCount: 2
Fore
SplineSet
330 698 m 0
 416 698 505 643 505 563 c 0
 505 515 477 490 454 470 c 0
 431 450 395 425 395 402 c 0
 395 365 462 315 492 286 c 0
 528 251 564 214 564 153 c 0
 564 52 470 -10 394 -10 c 0
 360 -10 319 0 303 17 c 1
 298 27 294 40 294 54 c 0
 294 86 313 122 343 122 c 0
 378 122 391 88 400 70 c 0
 409 52 421 34 440 34 c 0
 463 34 472 53 472 82 c 0
 472 131 428 170 388 210 c 0
 347 251 292 290 292 348 c 0
 292 377 320 401 343 427 c 0
 369 456 386 479 386 525 c 0
 386 582 363 651 305 651 c 0
 265 651 226 586 226 486 c 0
 226 385 226 145 226 145 c 2
 226 102 226 71 234 51 c 0
 239 38 264 34 277 33 c 1
 282 26 281 2 277 -4 c 1
 238 0 203 3 161 3 c 0
 119 3 63 0 24 -4 c 1
 20 2 19 26 24 33 c 1
 37 34 83 38 88 51 c 0
 96 71 96 102 96 145 c 2
 96 145 96 292 96 381 c 1
 69 381 63 381 37 381 c 1
 32 383 32 390 32 394 c 1
 42 408 52 418 64 428 c 1
 77 428 86 428 96 428 c 9
 96 443 l 2
 96 580 225 698 330 698 c 0
EndSplineSet
Validated: 33
Substitution2: "'smcp' Lowercase to Small Capitals in Latin lookup 0 subtable" germandbls.sc
EndChar

StartChar: ae
Encoding: 230 230 164
Width: 701
Flags: W
HStem: -9 84<466.392 570.626> -8 70<125 237.717> 242 40<400 527.823> 406 41<171.332 260.147 438.135 520.103>
VStem: 32 135<78.1133 172.955> 44 108<292.124 371.344> 542 124<289.978 370.347>
LayerCount: 2
Fore
SplineSet
297 102 m 1x7a
 290 124 282 161 282 194 c 0
 282 206 282 208 283 223 c 1
 264 216 223 204 203 191 c 0
 175 173 166 146 167 124 c 0
 168 81 202 62 228 62 c 0
 253 62 297 85 297 102 c 1x7a
400 282 m 1
 409 281 505 287 529 290 c 0
 541 291 542 300 542 306 c 11
 542 352 526 406 481 406 c 3
 422 406 400 316 400 282 c 1
491 447 m 0
 622 447 666 354 666 296 c 0
 666 274 654 255 639 254 c 0
 571 248 473 244 399 242 c 1
 399 102 494 75 539 75 c 0
 597 75 630 102 651 125 c 1
 658 123 663 113 663 107 c 3
 663 100 662 91 660 88 c 0
 642 60 574 -9 479 -9 c 0xb6
 412 -9 354 16 319 64 c 1
 268 23 197 -8 163 -8 c 0
 87 -8 32 55 32 114 c 0x7a
 32 153 58 186 84 194 c 0
 122 206 235 245 286 263 c 1
 290 266 294 278 294 285 c 0
 294 298 294 307 292 318 c 0
 282 375 245 411 210 411 c 0
 172 411 162 372 152 327 c 0
 147 304 131 283 96 283 c 0
 69 283 44 303 44 331 c 0x76
 44 344 50 358 58 372 c 1
 71 385 161 449 249 449 c 0
 296 449 338 429 366 394 c 1
 401 426 445 447 491 447 c 0
EndSplineSet
Validated: 33
Substitution2: "'smcp' Lowercase to Small Capitals in Latin lookup 0 subtable" ae.sc
EndChar

StartChar: eth
Encoding: 240 240 174
Width: 521
Flags: W
HStem: -6 42<221.317 304.738> 406 42<215.808 308.493> 663 28<96.4287 122.598>
VStem: 31 138<115.982 324.81> 348 139<141.468 357.594>
LayerCount: 2
Fore
SplineSet
262 406 m 0
 191 406 169 303 169 212 c 0
 169 96 224 36 263 36 c 0
 330 36 348 135 348 225 c 0
 348 276 340 333 319 375 c 1
 307 392 290 406 262 406 c 0
95 663 m 1
 93 674 94 685 102 691 c 1
 170 681 297 627 383 530 c 0
 442 464 487 378 487 259 c 3
 487 107 393 -6 261 -6 c 0
 155 -6 31 59 31 218 c 0
 31 373 147 448 244 448 c 0
 269 448 288 445 309 440 c 1
 283 516 221 607 95 663 c 1
365 708 m 17
 370 702 391 679 386 674 c 9
 133 502 l 17
 127 509 108 532 113 537 c 9
 365 708 l 17
EndSplineSet
Validated: 37
Substitution2: "'smcp' Lowercase to Small Capitals in Latin lookup 0 subtable" eth.sc
EndChar

StartChar: divide
Encoding: 247 247 181
Width: 563
Flags: W
HStem: -3 132<234.406 330.975> 222 59<57.9133 507.998> 366 133<234.406 330.975>
VStem: 217 132<14.5095 110.893 383.654 480.893>
LayerCount: 2
Fore
SplineSet
349 432 m 0
 349 397 320 366 284 366 c 27
 247 366 217 396 217 434 c 0
 217 469 247 499 283 499 c 27
 320 499 349 467 349 432 c 0
349 62 m 0
 349 27 320 -3 284 -3 c 27
 247 -3 217 27 217 65 c 0
 217 100 247 129 283 129 c 27
 320 129 349 97 349 62 c 0
501 222 m 5
 340 222 221 222 49 222 c 5
 37 222 51 276 65 281 c 13
 514 281 l 21
 528 281 515 229 501 222 c 5
EndSplineSet
Validated: 33
Substitution2: "'smcp' Lowercase to Small Capitals in Latin lookup 0 subtable" divide.sc
EndChar

StartChar: oslash
Encoding: 248 248 182
Width: 521
Flags: W
HStem: -7 42<223.597 316.545> 406 41<203.207 292.807>
VStem: 26 142<118.592 313.407> 352 142<126.606 322.548>
LayerCount: 2
Fore
SplineSet
373 455 m 17
 381 452 407 443 405 436 c 9
 152 -16 l 17
 144 -13 118 -3 120 4 c 9
 373 455 l 17
EndSplineSet
Refer: 79 111 N 1 0 0 1 0 0 2
Validated: 37
Substitution2: "'smcp' Lowercase to Small Capitals in Latin lookup 0 subtable" oslash.sc
EndChar

StartChar: thorn
Encoding: 254 254 188
Width: 571
Flags: W
HStem: -218 37<25.7205 91.9985 238.001 304.279> -8 44<244.186 340.344> 375 73<279.741 346.816> 624 32<30.3281 87.5286> 675 20G<224.5 229>
VStem: 100 130<-172.734 0.997055 50.0771 367.992 387.253 615.244> 392 144<134.92 323.157>
LayerCount: 2
Fore
SplineSet
100 -69 m 2
 100 558 l 2
 100 575 100 589 93 606 c 0
 88 618 45 624 33 624 c 1
 29 624 28 652 33 656 c 1
 145 666 223 695 226 695 c 1
 232 694 240 683 241 678 c 1
 241 678 230 616 230 576 c 0
 230 408 230 410 230 394 c 0
 230 388 232 386 234 388 c 0
 264 420 309 448 340 448 c 0
 461 448 536 345 536 234 c 0
 536 81 401 -8 291 -8 c 0
 263 -8 237 1 233 1 c 1
 230 1 230 -3 230 -15 c 2
 230 -69 l 2
 230 -112 230 -143 238 -163 c 0
 243 -176 289 -180 302 -181 c 1
 307 -188 306 -212 302 -218 c 1
 263 -214 207 -211 165 -211 c 0
 123 -211 67 -214 28 -218 c 1
 24 -212 23 -188 28 -181 c 1
 41 -180 87 -176 92 -163 c 0
 100 -143 100 -112 100 -69 c 2
230 96 m 2
 230 56 263 36 298 36 c 0
 331 36 392 83 392 199 c 0
 392 302 366 375 285 375 c 0
 248 375 230 352 230 347 c 2
 230 96 l 2
EndSplineSet
Validated: 33
Substitution2: "'smcp' Lowercase to Small Capitals in Latin lookup 0 subtable" thorn.sc
EndChar

StartChar: gravecomb
Encoding: 768 768 190
Width: 247
Flags: W
HStem: 522 165
VStem: 42 173
LayerCount: 2
Fore
SplineSet
42 658 m 0
 42 666 53 687 88 687 c 0
 102 687 117 683 122 678 c 0
 159 635 215 545 215 540 c 0
 215 534 205 522 198 522 c 0
 188 522 42 619 42 658 c 0
EndSplineSet
Validated: 1
EndChar

StartChar: acutecomb
Encoding: 769 769 191
Width: 234
Flags: W
HStem: 522 165
VStem: 27 173
LayerCount: 2
Fore
SplineSet
154 687 m 4
 189 687 200 666 200 658 c 0
 200 619 54 522 44 522 c 0
 37 522 27 534 27 540 c 0
 27 545 83 635 120 678 c 0
 125 683 140 687 154 687 c 4
EndSplineSet
Validated: 1
EndChar

StartChar: uni2010
Encoding: 8208 8208 197
Width: 314
Flags: W
HStem: 193 74<31.0093 184.957> 204 75<138.043 284.537>
VStem: 28 261
LayerCount: 2
Fore
SplineSet
28 204 m 0x60
 28 252 37 267 40 267 c 2
 41 267 l 1xa0
 282 279 l 1
 283 279 l 2
 285 279 289 278 289 270 c 0
 289 221 276 204 276 204 c 1x60
 35 193 l 1xa0
 35 193 28 192 28 204 c 0x60
EndSplineSet
Validated: 1
EndChar

StartChar: uni2011
Encoding: 8209 8209 198
Width: 314
Flags: W
HStem: 193 74<31.0093 184.957> 204 75<138.043 284.537>
VStem: 28 261
LayerCount: 2
Fore
SplineSet
28 204 m 0x60
 28 252 37 267 40 267 c 2
 41 267 l 1xa0
 282 279 l 1
 283 279 l 2
 285 279 289 278 289 270 c 0
 289 221 276 204 276 204 c 1x60
 35 193 l 1xa0
 35 193 28 192 28 204 c 0x60
EndSplineSet
Validated: 1
EndChar

StartChar: figuredash
Encoding: 8210 8210 199
Width: 499
Flags: W
HStem: 194 74<32.4735 463.904>
LayerCount: 2
Fore
SplineSet
28 203 m 4
 28 205 31 268 42 268 c 6
 467 268 l 6
 469 268 473 267 473 259 c 4
 473 241 465 205 464 201 c 4
 462 195 457 194 457 194 c 5
 34 194 l 5
 34 194 28 193 28 203 c 4
EndSplineSet
Validated: 1
EndChar

StartChar: endash
Encoding: 8211 8211 200
Width: 499
Flags: W
HStem: 194 74<32.4735 463.904>
LayerCount: 2
Fore
SplineSet
28 203 m 0
 28 205 31 268 42 268 c 2
 467 268 l 2
 469 268 473 267 473 259 c 0
 473 241 465 205 464 201 c 0
 462 195 457 194 457 194 c 1
 34 194 l 1
 34 194 28 193 28 203 c 0
EndSplineSet
Validated: 1
EndChar

StartChar: emdash
Encoding: 8212 8212 201
Width: 886
Flags: W
HStem: 194 74<32.4735 848.904>
LayerCount: 2
Fore
SplineSet
28 203 m 0
 28 205 31 268 42 268 c 2
 852 268 l 2
 854 268 858 267 858 259 c 0
 858 241 850 205 849 201 c 0
 847 195 842 194 842 194 c 1
 34 194 l 1
 34 194 28 193 28 203 c 0
EndSplineSet
Validated: 1
EndChar

StartChar: afii00208
Encoding: 8213 8213 202
Width: 1080
Flags: W
HStem: 194 74<32.4735 1042.9>
LayerCount: 2
Fore
SplineSet
28 203 m 0
 28 205 31 268 42 268 c 2
 1046 268 l 2
 1048 268 1052 267 1052 259 c 0
 1052 241 1044 205 1043 201 c 0
 1041 195 1036 194 1036 194 c 1
 34 194 l 1
 34 194 28 193 28 203 c 0
EndSplineSet
Validated: 1
EndChar

StartChar: quoteleft
Encoding: 8216 8216 203
Width: 160
Flags: W
HStem: 474 232
VStem: 16 76<553.645 629.059>
LayerCount: 2
Fore
SplineSet
16 555 m 0
 16 649 117 706 126 706 c 0
 134 706 158 691 162 680 c 1
 102 644 92 599 92 590 c 0
 92 564 134 546 134 518 c 0
 134 494 100 474 68 474 c 0
 61 474 40 478 31 485 c 1
 22 498 16 525 16 555 c 0
EndSplineSet
Validated: 1
EndChar

StartChar: quoteright
Encoding: 8217 8217 204
Width: 165
Flags: W
HStem: 474 232
VStem: 79 76<550.941 626.355>
LayerCount: 2
Fore
SplineSet
155 625 m 0
 155 531 54 474 45 474 c 0
 37 474 13 489 9 500 c 1
 69 536 79 581 79 590 c 0
 79 616 37 634 37 662 c 0
 37 686 71 706 103 706 c 0
 110 706 131 702 140 695 c 1
 149 682 155 655 155 625 c 0
EndSplineSet
Validated: 1
EndChar

StartChar: quotesinglbase
Encoding: 8218 8218 205
Width: 160
Flags: W
HStem: -108 232
VStem: 74 76<-31.059 44.3548>
LayerCount: 2
Fore
SplineSet
150 43 m 0
 150 -51 49 -108 40 -108 c 0
 32 -108 8 -93 4 -82 c 1
 64 -46 74 -1 74 8 c 0
 74 34 32 52 32 80 c 0
 32 104 66 124 98 124 c 0
 105 124 126 120 135 113 c 1
 144 100 150 73 150 43 c 0
EndSplineSet
Validated: 1
EndChar

StartChar: quotedblleft
Encoding: 8220 8220 206
Width: 332
Flags: W
HStem: 474 232
VStem: 16 76<553.645 629.059> 164 76<553.645 629.059>
LayerCount: 2
Fore
SplineSet
164 555 m 0
 164 649 265 706 274 706 c 0
 282 706 306 691 310 680 c 1
 250 644 240 599 240 590 c 0
 240 564 282 546 282 518 c 0
 282 494 248 474 216 474 c 0
 209 474 188 478 179 485 c 1
 170 498 164 525 164 555 c 0
16 555 m 0
 16 649 117 706 126 706 c 0
 134 706 158 691 162 680 c 1
 102 644 92 599 92 590 c 0
 92 564 134 546 134 518 c 0
 134 494 100 474 68 474 c 0
 61 474 40 478 31 485 c 1
 22 498 16 525 16 555 c 0
EndSplineSet
Validated: 1
EndChar

StartChar: quotedblright
Encoding: 8221 8221 207
Width: 332
Flags: W
HStem: 474 232
VStem: 86 76<550.941 626.355> 234 76<550.941 626.355>
LayerCount: 2
Fore
SplineSet
162 625 m 0
 162 531 61 474 52 474 c 0
 44 474 20 489 16 500 c 1
 76 536 86 581 86 590 c 0
 86 616 44 634 44 662 c 0
 44 686 78 706 110 706 c 0
 117 706 138 702 147 695 c 1
 156 682 162 655 162 625 c 0
310 625 m 0
 310 531 209 474 200 474 c 0
 192 474 168 489 164 500 c 1
 224 536 234 581 234 590 c 0
 234 616 192 634 192 662 c 0
 192 686 226 706 258 706 c 0
 265 706 286 702 295 695 c 1
 304 682 310 655 310 625 c 0
EndSplineSet
Validated: 1
EndChar

StartChar: quotedblbase
Encoding: 8222 8222 208
Width: 320
Flags: W
HStem: -108 232
VStem: 82 76<-31.059 44.3548> 230 76<-31.059 44.3548>
LayerCount: 2
Fore
SplineSet
158 43 m 0
 158 -51 57 -108 48 -108 c 0
 40 -108 16 -93 12 -82 c 1
 72 -46 82 -1 82 8 c 0
 82 34 40 52 40 80 c 0
 40 104 74 124 106 124 c 0
 113 124 134 120 143 113 c 1
 152 100 158 73 158 43 c 0
306 43 m 0
 306 -51 205 -108 196 -108 c 0
 188 -108 164 -93 160 -82 c 1
 220 -46 230 -1 230 8 c 0
 230 34 188 52 188 80 c 0
 188 104 222 124 254 124 c 0
 261 124 282 120 291 113 c 1
 300 100 306 73 306 43 c 0
EndSplineSet
Validated: 1
EndChar

StartChar: dagger
Encoding: 8224 8224 209
Width: 368
Flags: W
HStem: -10 21G<142 146 223.5 227> 360 72<33 148.997 220.003 336>
VStem: 149 71<108.542 359.924 432.076 621.817>
LayerCount: 2
Fore
SplineSet
229 -10 m 1
 218 -6 195 -5 184 -5 c 0
 173 -5 152 -6 140 -10 c 1
 144 135 149 205 149 350 c 0
 149 355 146 360 141 360 c 2
 136 360 l 2
 98 360 72 357 31 355 c 1
 32 364 33 384 33 393 c 0
 33 404 32 426 31 437 c 1
 72 435 98 432 136 432 c 2
 141 432 l 2
 145 432 149 436 149 440 c 0
 149 518 144 551 140 629 c 1
 152 627 173 625 184 625 c 0
 195 625 217 627 229 629 c 1
 225 551 220 518 220 440 c 0
 220 436 224 432 228 432 c 2
 232 432 l 2
 270 432 297 435 338 437 c 1
 337 426 336 404 336 393 c 0
 336 384 337 364 338 355 c 1
 297 357 270 360 232 360 c 2
 228 360 l 2
 223 360 220 355 220 350 c 0
 220 205 225 135 229 -10 c 1
EndSplineSet
Validated: 1
EndChar

StartChar: daggerdbl
Encoding: 8225 8225 210
Width: 369
Flags: W
HStem: -9 21G<142 146 223 227> 188 72<33 148.997 220.003 336> 360 72<33 148.997 220.003 336>
VStem: 149 71<-1.81659 187.924 260.076 359.924 432.076 621.817>
LayerCount: 2
Back
SplineSet
151 248 m 6
 158 248 159 253 159 275 c 6
 159 370 l 6
 159 375 156 379 151 379 c 4
 146 379 141 379 136 379 c 4
 98 379 73 376 31 374 c 5
 32 383 33 392 33 401 c 4
 33 412 32 424 31 435 c 5
 73 433 98 430 136 430 c 4
 141 430 146 430 151 430 c 4
 155 430 159 434 159 438 c 4
 159 513 154 554 150 629 c 5
 162 627 173 625 184 625 c 4
 195 625 207 627 219 629 c 5
 215 554 210 513 210 438 c 4
 210 434 214 430 218 430 c 6
 232 430 l 6
 270 430 296 433 338 435 c 5
 337 424 336 412 336 401 c 4
 336 392 337 383 338 374 c 5
 296 376 270 379 232 379 c 6
 218 379 l 6
 213 379 210 375 210 370 c 4
 210 332 210 294 210 256 c 4
 210 251 213 248 218 248 c 6
 338 253 l 5
 337 242 336 230 336 219 c 4
 336 210 337 200 338 191 c 5
 218 197 l 5
 213 196 211 192 210 186 c 5
 212 130 217 63 219 -10 c 5
 208 -6 195 -5 184 -5 c 4
 173 -5 162 -6 150 -10 c 5
 152 63 157 130 159 186 c 4
 159 191 156 197 151 197 c 6
 31 191 l 5
 32 200 33 210 33 219 c 4
 33 230 32 242 31 253 c 5
 151 248 l 6
EndSplineSet
Fore
SplineSet
220 270 m 0
 220 265 223 260 228 260 c 2
 232 260 l 2
 270 260 297 263 338 265 c 1
 337 256 336 236 336 227 c 0
 336 216 337 194 338 183 c 1
 297 185 270 188 232 188 c 2
 228 188 l 2
 224 188 220 184 220 180 c 0
 220 102 225 69 229 -9 c 1
 217 -7 195 -5 184 -5 c 0
 173 -5 152 -7 140 -9 c 1
 144 69 149 102 149 180 c 0
 149 184 145 188 141 188 c 2
 136 188 l 2
 98 188 72 185 31 183 c 1
 32 194 33 216 33 227 c 0
 33 236 32 256 31 265 c 1
 72 263 98 260 136 260 c 2
 141 260 l 2
 146 260 149 265 149 270 c 0
 149 415 149 205 149 350 c 0
 149 355 146 360 141 360 c 2
 136 360 l 2
 98 360 72 357 31 355 c 1
 32 364 33 384 33 393 c 0
 33 404 32 426 31 437 c 1
 72 435 98 432 136 432 c 2
 141 432 l 2
 145 432 149 436 149 440 c 0
 149 518 144 551 140 629 c 1
 152 627 173 625 184 625 c 0
 195 625 217 627 229 629 c 1
 225 551 220 518 220 440 c 0
 220 436 224 432 228 432 c 2
 232 432 l 2
 270 432 297 435 338 437 c 1
 337 426 336 404 336 393 c 0
 336 384 337 364 338 355 c 1
 297 357 270 360 232 360 c 2
 228 360 l 2
 223 360 220 355 220 350 c 0
 220 205 220 415 220 270 c 0
EndSplineSet
Validated: 1
EndChar

StartChar: bullet
Encoding: 8226 8226 211
Width: 409
Flags: W
HStem: 123 281<127.683 278.022>
VStem: 63 279<187.683 338.612>
LayerCount: 2
Fore
SplineSet
63 263 m 0
 63 340 126 404 203 404 c 0
 280 404 342 340 342 263 c 0
 342 186 280 123 203 123 c 0
 126 123 63 186 63 263 c 0
EndSplineSet
Validated: 1
EndChar

StartChar: onedotenleader
Encoding: 8228 8228 212
Width: 705
Flags: W
HStem: -11 150<303.192 404.5>
VStem: 279 147<12.5 117.5>
LayerCount: 2
Fore
SplineSet
426 66 m 0
 426 26 396 -11 355 -11 c 27
 313 -11 279 26 279 66 c 0
 279 106 312 139 353 139 c 27
 393 139 426 106 426 66 c 0
EndSplineSet
Validated: 1
EndChar

StartChar: ellipsis
Encoding: 8230 8230 213
Width: 785
Flags: W
HStem: -11 150<65.1921 166.5 343.192 444.5 621.192 722.5>
VStem: 41 147<12.5 117.5> 319 147<12.5 117.5> 597 147<12.5 117.5>
CounterMasks: 1 70
LayerCount: 2
Back
SplineSet
548 45 m 4
 548 77 573 102 605 102 c 4
 637 102 663 77 663 45 c 4
 663 13 637 -14 605 -14 c 4
 573 -14 548 13 548 45 c 4
296 45 m 4
 296 77 320 102 352 102 c 4
 384 102 410 77 410 45 c 4
 410 13 384 -14 352 -14 c 4
 320 -14 296 13 296 45 c 4
41 45 m 4
 41 77 65 102 97 102 c 4
 129 102 155 77 155 45 c 4
 155 13 129 -14 97 -14 c 4
 65 -14 41 13 41 45 c 4
EndSplineSet
Fore
SplineSet
744 66 m 0
 744 26 714 -11 673 -11 c 27
 631 -11 597 26 597 66 c 0
 597 106 630 139 671 139 c 27
 711 139 744 106 744 66 c 0
466 66 m 0
 466 26 436 -11 395 -11 c 27
 353 -11 319 26 319 66 c 0
 319 106 352 139 393 139 c 27
 433 139 466 106 466 66 c 0
188 66 m 0
 188 26 158 -11 117 -11 c 27
 75 -11 41 26 41 66 c 0
 41 106 74 139 115 139 c 27
 155 139 188 106 188 66 c 0
EndSplineSet
Validated: 1
Ligature2: "'liga' Standard Ligatures in Latin lookup 0-1" period period period
EndChar

StartChar: perthousand
Encoding: 8240 8240 214
Width: 1025
Flags: W
HStem: 1 37<450.188 523.918 795.188 868.918> 268 38<439.168 515.379 784.168 860.379> 337 38<153.188 226.918> 605 37<142.329 217.985>
VStem: 29 95<410.506 568.015> 247 97<412.639 565.364> 326 95<74.2093 231.8> 544 97<76.4355 230.254> 671 95<74.2093 231.8> 889 97<76.4355 230.254>
LayerCount: 2
Fore
SplineSet
819 268 m 24xf9c0
 777 268 766 216 766 174 c 24
 766 115 776 38 835 38 c 24
 876 38 889 89 889 130 c 24
 889 191 880 268 819 268 c 24xf9c0
671 153 m 0
 671 237 740 306 828 306 c 0
 916 306 986 237 986 153 c 0
 986 69 916 1 828 1 c 0
 740 1 671 69 671 153 c 0
176 605 m 24
 134 605 124 552 124 510 c 24
 124 451 134 375 193 375 c 24
 234 375 247 425 247 466 c 24xfdc0
 247 527 237 605 176 605 c 24
29 489 m 0
 29 573 98 642 186 642 c 0
 274 642 344 573 344 489 c 0
 344 405 274 337 186 337 c 0
 98 337 29 405 29 489 c 0
474 268 m 24
 432 268 421 216 421 174 c 24xfbc0
 421 115 431 38 490 38 c 24
 531 38 544 89 544 130 c 24
 544 191 535 268 474 268 c 24
326 153 m 0
 326 237 395 306 483 306 c 0
 571 306 641 237 641 153 c 0
 641 69 571 1 483 1 c 0
 395 1 326 69 326 153 c 0
611 629 m 1
 130 7 l 2
 125 1 109 -4 97 -4 c 0
 71 -4 59 5 58 10 c 1
 539 632 l 2
 544 638 552 646 558 646 c 0
 581 646 601 637 611 629 c 1
EndSplineSet
Validated: 1
EndChar

StartChar: minute
Encoding: 8242 8242 215
Width: 153
Flags: W
HStem: 484 215<52.5703 65.9338>
VStem: 32 104
LayerCount: 2
Fore
SplineSet
91 699 m 0
 111 699 136 687 136 667 c 0
 136 620 84 528 58 494 c 0
 54 489 48 484 44 484 c 0
 38 484 32 489 32 496 c 0
 32 499 39 612 47 666 c 0
 49 678 72 699 91 699 c 0
EndSplineSet
Validated: 1
EndChar

StartChar: second
Encoding: 8243 8243 216
Width: 299
Flags: W
HStem: 484 215<52.5703 65.9091 187.57 200.909>
VStem: 32 238
LayerCount: 2
Fore
SplineSet
226 699 m 0
 246 699 270 687 270 667 c 0
 270 620 219 528 193 494 c 0
 189 489 183 484 179 484 c 0
 173 484 167 489 167 496 c 0
 167 499 174 612 182 666 c 0
 184 678 207 699 226 699 c 0
91 699 m 0
 111 699 135 687 135 667 c 0
 135 620 84 528 58 494 c 0
 54 489 48 484 44 484 c 0
 38 484 32 489 32 496 c 0
 32 499 39 612 47 666 c 0
 49 678 72 699 91 699 c 0
EndSplineSet
Validated: 1
EndChar

StartChar: uni2038
Encoding: 8248 8248 217
Width: 386
Flags: W
HStem: -61 174
VStem: 79 250
LayerCount: 2
Back
SplineSet
311 -36 m 4
 298 -36 239 11 203 47 c 5
 171 10 109 -36 96 -36 c 4
 87 -36 87 -19 87 -19 c 5
 94 -9 155 31 191 100 c 5
 194 108 195 110 200 110 c 4
 219 110 210 95 258 41 c 4
 275 21 320 -15 322 -18 c 5
 322 -22 317 -36 311 -36 c 4
EndSplineSet
Fore
SplineSet
317 -61 m 0
 304 -61 242 -17 203 28 c 1
 167 -17 102 -61 89 -61 c 0
 81 -61 79 -37 79 -37 c 1
 84 -26 149 16 191 103 c 0
 194 110 192 113 199 113 c 0
 220 113 212 96 261 33 c 0
 280 9 327 -32 329 -36 c 1
 329 -39 324 -61 317 -61 c 0
EndSplineSet
Validated: 1
EndChar

StartChar: guilsinglleft
Encoding: 8249 8249 218
Width: 324
Flags: W
VStem: 44 248
LayerCount: 2
Fore
SplineSet
146 248 m 1
 164 231 188 206 218 177 c 0
 272 125 292 106 292 98 c 0
 292 86 263 74 257 73 c 1
 256 75 198 132 51 227 c 1
 46 229 44 235 44 241 c 0
 44 251 45 260 52 268 c 1
 183 347 253 419 258 423 c 1
 264 422 293 410 293 398 c 0
 293 390 273 371 219 319 c 0
 189 290 164 265 146 248 c 1
EndSplineSet
Validated: 1
EndChar

StartChar: guilsinglright
Encoding: 8250 8250 219
Width: 324
Flags: W
VStem: 44 249
LayerCount: 2
Fore
SplineSet
191 248 m 5
 173 265 148 290 118 319 c 4
 64 371 44 390 44 398 c 4
 44 410 73 422 79 423 c 5
 84 419 154 347 285 268 c 5
 292 260 293 251 293 241 c 4
 293 235 291 229 286 227 c 5
 139 132 81 75 80 73 c 5
 74 74 45 86 45 98 c 4
 45 106 65 125 119 177 c 4
 149 206 173 231 191 248 c 5
EndSplineSet
Validated: 1
EndChar

StartChar: uni203E
Encoding: 8254 8254 220
Width: 565
Flags: W
HStem: 734 72<-10.7805 578.903>
LayerCount: 2
Fore
SplineSet
-15 744 m 4
 -15 746 -12 806 -1 806 c 6
 581 806 l 6
 583 806 587 805 587 797 c 4
 587 779 580 745 579 741 c 4
 577 735 571 734 571 734 c 5
 -9 734 l 5
 -9 734 -15 734 -15 744 c 4
EndSplineSet
Validated: 1
EndChar

StartChar: Euro
Encoding: 8364 8364 221
Width: 662
Flags: W
HStem: -6 52<336.962 505.148> 238 57<24.6125 38 404 416.599> 352 57<24.6125 38 404 416.599> 587 54<308.712 491.945>
VStem: 68 150<249.856 391.976> 583 41<457.301 502.397>
LayerCount: 2
Fore
SplineSet
38 295 m 1
 67 295 409 295 423 295 c 0
 427 295 426 284 424 278 c 0
 422 271 412 249 404 238 c 1
 375 238 32 238 18 238 c 0
 14 238 17 251 19 257 c 0
 21 264 28 284 38 295 c 1
38 409 m 1
 67 409 409 409 423 409 c 0
 427 409 426 398 424 392 c 0
 422 385 412 363 404 352 c 1
 375 352 32 352 18 352 c 0
 14 352 17 365 19 371 c 0
 21 378 28 398 38 409 c 1
385 641 m 0
 448 641 542 628 605 613 c 0
 613 611 624 481 624 471 c 0
 624 461 610 457 598 457 c 3
 593 457 588 459 583 460 c 1
 573 497 525 587 390 587 c 0
 255 587 218 464 218 330 c 0
 218 180 286 46 421 46 c 0
 479 46 519 73 544 98 c 0
 573 127 584 183 588 183 c 3
 593 183 625 187 631 174 c 1
 631 163 606 39 592 33 c 0
 532 11 464 -6 376 -6 c 0
 206 -6 68 140 68 310 c 0
 68 490 203 641 385 641 c 0
EndSplineSet
Validated: 37
EndChar

StartChar: arrowleft
Encoding: 8592 8592 222
Width: 769
Flags: W
HStem: 210 74<164 731.904>
LayerCount: 2
Fore
SplineSet
274 397 m 0
 274 389 254 370 200 318 c 0
 164 284 l 1
 733 284 l 1
 733 284 740 284 740 274 c 0
 740 256 733 221 732 217 c 0
 730 211 725 210 725 210 c 1
 163 210 l 1
 199 176 l 0
 253 124 273 105 273 97 c 0
 273 85 244 73 238 72 c 1
 237 74 179 131 32 226 c 1
 27 228 25 234 25 240 c 0
 25 250 26 259 33 267 c 1
 164 346 234 418 239 422 c 1
 245 421 274 409 274 397 c 0
EndSplineSet
Validated: 1
EndChar

StartChar: arrowup
Encoding: 8593 8593 223
Width: 392
Flags: W
HStem: 0 21G<213 227>
VStem: 158 74<5.20054 576>
LayerCount: 2
Fore
SplineSet
232 576 m 1
 232 6 l 1
 232 6 232 0 222 0 c 0
 204 0 170 7 166 8 c 0
 160 10 158 14 158 14 c 1
 158 577 l 1
 125 540 l 0
 73 486 53 466 45 466 c 0
 33 466 22 496 21 502 c 1
 23 503 80 561 175 708 c 1
 177 713 183 714 189 714 c 0
 199 714 207 713 215 706 c 1
 294 575 367 505 371 500 c 1
 370 494 357 466 345 466 c 0
 337 466 319 486 267 540 c 0
 232 576 l 1
EndSplineSet
Validated: 1
EndChar

StartChar: arrowright
Encoding: 8594 8594 224
Width: 769
Flags: W
HStem: 210 74<36.0959 604>
LayerCount: 2
Fore
SplineSet
604 284 m 1
 568 318 l 0
 514 370 494 389 494 397 c 0
 494 409 523 421 529 422 c 1
 534 418 604 346 735 267 c 1
 742 259 743 250 743 240 c 0
 743 234 741 228 736 226 c 1
 589 131 531 74 530 72 c 1
 524 73 495 85 495 97 c 0
 495 105 515 124 569 176 c 0
 605 210 l 1
 43 210 l 1
 43 210 38 211 36 217 c 0
 35 221 28 256 28 274 c 0
 28 284 35 284 35 284 c 1
 604 284 l 1
EndSplineSet
Validated: 1
EndChar

StartChar: arrowdown
Encoding: 8595 8595 225
Width: 395
Flags: W
HStem: 0 21G<199 207>
VStem: 161 74<138 708.799>
LayerCount: 2
Fore
SplineSet
161 138 m 1
 161 708 l 1
 161 708 161 714 171 714 c 0
 189 714 223 707 227 706 c 0
 233 704 235 700 235 700 c 1
 235 137 l 1
 268 174 l 0
 320 228 340 248 348 248 c 0
 360 248 371 218 372 212 c 1
 370 211 313 153 218 6 c 1
 216 1 210 0 204 0 c 0
 194 0 186 1 178 8 c 1
 99 139 26 209 22 214 c 1
 23 220 36 248 48 248 c 0
 56 248 74 228 126 174 c 0
 161 138 l 1
EndSplineSet
Validated: 1
EndChar

StartChar: universal
Encoding: 8704 8704 226
Width: 742
Flags: W
HStem: -9 21G<352 366> 385 60<315.001 465> 623 39<22.0007 75.8548 240.011 296.563 472.761 544.916 661.605 719.977>
LayerCount: 2
Fore
SplineSet
340 -1 m 1
 119 514 l 2
 103 551 97 569 88 589 c 0
 77 614 34 623 26 623 c 0
 23 623 22 636 22 642 c 0
 22 647 22 659 24 662 c 1
 64 660 112 654 156 654 c 0
 202 654 258 660 294 662 c 1
 299 657 299 623 294 623 c 0
 282 623 243 611 235 600 c 0
 233 597 232 595 232 589 c 0
 232 580 246 547 256 521 c 24
 267 493 285 450 285 450 c 1
 285 450 289 446 292 446 c 0
 330 444 365 445 390 445 c 0
 431 445 456 445 491 446 c 0
 494 446 497 449 498 451 c 1
 531 524 l 1
 543 548 552 569 552 586 c 0
 552 601 543 605 538 609 c 0
 524 620 483 625 475 625 c 0
 470 625 472 656 474 662 c 1
 514 660 539 656 583 656 c 0
 629 656 670 660 716 662 c 1
 718 660 720 653 720 647 c 0
 720 641 720 626 718 626 c 0
 706 626 646 602 636 584 c 0
 621 555 607 521 607 521 c 2
 409 72 l 0
 398 48 377 -9 355 -9 c 0
 349 -9 342 -4 340 -1 c 1
463 382 m 0
 443 384 413 385 390 385 c 0
 359 385 349 385 318 383 c 0
 316 383 315 378 315 378 c 1
 387 200 l 1
 465 378 l 1
 465 378 465 382 463 382 c 0
EndSplineSet
Validated: 33
EndChar

StartChar: partialdiff
Encoding: 8706 8706 227
Width: 460
Flags: W
HStem: 0 55<183.654 268.082> 317 53<173.164 273.188> 584 58<124.36 240.437>
VStem: 26 125<91.9379 272.861> 297 135<152.6 371.71>
LayerCount: 2
Fore
SplineSet
297 219 m 1
 297 303 249 317 211 317 c 0
 172 317 151 270 151 209 c 0
 151 91 188 55 230 55 c 0
 287 55 297 145 297 219 c 1
202 0 m 0
 104 0 26 60 26 194 c 0
 26 294 121 370 227 370 c 0
 249 370 267 369 290 361 c 0
 295 359 300 364 301 369 c 0
 305 399 299 502 263 542 c 0
 233 575 203 584 173 584 c 3
 131 584 86 552 60 534 c 1
 55 538 46 564 58 576 c 0
 88 606 154 642 216 642 c 3
 396 642 432 408 432 282 c 3
 432 82 306 0 202 0 c 0
EndSplineSet
Validated: 33
EndChar

StartChar: uni2206
Encoding: 8710 8710 228
Width: 673
Flags: W
HStem: 0 76<119.911 492>
LayerCount: 2
Fore
SplineSet
495 83 m 6
 315 443 l 5
 311 446 306 447 303 441 c 6
 120 87 l 5
 118 80 123 76 128 76 c 6
 492 76 l 6
 496 76 497 79 495 83 c 6
349 613 m 5
 651 14 l 5
 651 14 645 8 643 0 c 5
 32 0 l 5
 28 6 27 9 23 16 c 5
 332 613 l 5
 349 613 l 5
EndSplineSet
Validated: 1
EndChar

StartChar: gradient
Encoding: 8711 8711 229
Width: 672
Flags: W
HStem: 566 76<181 553.089>
LayerCount: 2
Fore
SplineSet
178 559 m 2
 358 199 l 1
 362 196 367 195 370 201 c 2
 553 555 l 1
 555 562 550 566 545 566 c 2
 181 566 l 2
 177 566 176 563 178 559 c 2
324 29 m 1
 22 628 l 1
 22 628 28 634 30 642 c 1
 641 642 l 1
 645 636 646 633 650 626 c 1
 341 29 l 1
 324 29 l 1
EndSplineSet
Validated: 1
EndChar

StartChar: element
Encoding: 8712 8712 230
Width: 452
Flags: W
HStem: 11 60<155.888 423.914> 189 61<101.004 379> 370 60<152.702 424.161>
VStem: 27 74<174.075 313.639>
LayerCount: 2
Fore
SplineSet
387 220 m 0
 387 193 379 189 378 189 c 2
 106 189 l 2
 105 189 100 188 101 185 c 0
 113 122 156 71 223 71 c 2
 411 71 l 2
 411 71 426 64 426 29 c 0
 426 20 419 11 419 11 c 1
 225 11 l 2
 113 11 27 109 27 221 c 0
 27 330 106 430 215 430 c 2
 419 430 l 1
 419 430 426 421 426 409 c 0
 426 378 411 370 411 370 c 1
 215 370 l 2
 152 370 112 317 101 255 c 0
 101 252 103 250 106 250 c 2
 379 250 l 1
 379 249 387 237 387 220 c 0
EndSplineSet
Validated: 1
EndChar

StartChar: notelement
Encoding: 8713 8713 231
Width: 451
Flags: W
HStem: -10 21G<113.5 117> 11 60<175.668 423.914> 189 61<101.004 173 270 379> 370 60<152.702 275 371 424.161>
VStem: 27 74<174.26 313.639>
LayerCount: 2
Fore
SplineSet
387 220 m 0xb8
 387 193 379 189 378 189 c 2
 235 189 l 1
 175 81 l 1
 189 75 205 71 223 71 c 2
 411 71 l 1
 411 71 426 64 426 29 c 0
 426 20 419 11 419 11 c 1
 225 11 l 2x78
 196 11 169 18 145 29 c 1
 125 -8 l 1
 122 -10 119 -10 115 -10 c 0
 112 -10 95 -6 82 10 c 0
 78 14 77 17 77 17 c 1
 100 58 l 1
 55 97 27 157 27 221 c 0
 27 330 106 430 215 430 c 2
 309 430 l 1
 339 484 l 1
 339 484 344 487 348 487 c 0
 360 487 371 479 379 470 c 0
 384 465 387 459 387 459 c 1
 371 430 l 1
 419 430 l 1
 419 430 426 421 426 409 c 0
 426 378 411 370 411 370 c 1
 337 370 l 1
 270 250 l 1
 379 250 l 1
 379 249 387 237 387 220 c 0xb8
208 250 m 1
 275 370 l 1
 215 370 l 2
 152 370 112 317 101 255 c 0
 101 252 103 250 106 250 c 2
 208 250 l 1
132 115 m 1
 173 189 l 1
 106 189 l 2
 105 189 100 188 101 185 c 0
 106 159 117 134 132 115 c 1
EndSplineSet
Validated: 1
EndChar

StartChar: summation
Encoding: 8721 8721 232
Width: 602
Flags: W
HStem: 0 21G<479.5 537.5> 2 29<23.0357 56.2613> 608 48<235.114 434.277> 627 29<23.0058 57.2492>
LayerCount: 2
Fore
SplineSet
534 0 m 1xa0
 425 0 236 2 145 2 c 0
 78 2 27 -3 27 -3 c 1
 25 -1 23 7 23 15 c 0
 23 23 25 31 27 31 c 0
 38 31 71 53 80 65 c 2
 263 306 l 2
 267 311 266 318 263 322 c 0
 250 342 156 490 79 592 c 0
 66 609 39 627 27 627 c 0
 25 627 23 634 23 641 c 0
 23 648 25 656 27 658 c 1
 27 658 76 656 143 656 c 0x50
 236 656 395 662 504 662 c 1
 511 612 526 556 535 511 c 1
 532 508 519 506 512 506 c 0
 505 506 500 508 498 513 c 0
 473 563 424 608 358 608 c 27
 336 608 330 608 302 608 c 0
 267 608 237 603 235 595 c 1
 400 360 l 1
 402 354 404 347 404 341 c 0
 404 336 402 332 399 329 c 0
 314 227 193 84 193 71 c 0
 193 64 196 60 264 60 c 0
 298 60 301 60 328 60 c 0
 380 60 442 65 471 80 c 0
 490 90 519 125 536 170 c 0
 537 174 543 176 550 176 c 0
 560 176 577 173 580 170 c 1
 561 116 541 44 534 0 c 1xa0
EndSplineSet
Validated: 1
EndChar

StartChar: minus
Encoding: 8722 8722 233
Width: 540
Flags: W
HStem: 209 74<34.9086 498.904>
LayerCount: 2
Fore
SplineSet
30 219 m 1
 30 219 34 283 44 283 c 2
 501 283 l 2
 504 283 508 283 508 276 c 0
 508 268 504 232 499 215 c 0
 497 209 492 209 492 209 c 1
 36 209 l 1
 36 209 30 209 30 219 c 1
EndSplineSet
Validated: 1
EndChar

StartChar: uni2213
Encoding: 8723 8723 234
Width: 531
Flags: W
HStem: 213 72<34.0959 228.999 301.001 494.904> 518 72<35.0959 489.652>
VStem: 229 72<17.3688 212.998 285 479.904>
LayerCount: 2
Fore
SplineSet
301 210 m 2
 301 26 l 1
 301 26 286 16 241 10 c 0
 238 10 237 10 235 10 c 0
 229 10 229 13 229 17 c 2
 229 208 l 2
 229 210 228 213 223 213 c 2
 32 213 l 1
 32 213 26 213 26 223 c 0
 26 227 27 256 34 280 c 0
 36 286 41 285 41 285 c 1
 224 285 l 2
 227 285 229 289 229 291 c 2
 229 473 l 1
 229 473 228 478 234 480 c 0
 258 487 287 488 291 488 c 0
 301 488 301 482 301 482 c 1
 301 290 l 2
 301 287 302 285 305 285 c 2
 497 285 l 2
 501 285 505 285 505 278 c 0
 505 269 501 241 495 219 c 0
 493 213 488 213 488 213 c 1
 305 213 l 2
 302 213 301 212 301 210 c 2
489 590 m 1
 489 590 499 591 497 579 c 0
 490 531 484 521 481 518 c 1
 33 518 l 1
 33 518 25 517 27 531 c 0
 29 545 29 565 35 585 c 0
 37 591 42 590 42 590 c 1
 489 590 l 1
EndSplineSet
Validated: 1
EndChar

StartChar: radical
Encoding: 8730 8730 235
Width: 562
Flags: W
LayerCount: 2
Fore
SplineSet
49 150 m 1
 36 157 23 174 23 185 c 0
 23 198 36 205 46 212 c 0
 79 235 181 312 195 324 c 0
 203 331 220 332 223 324 c 1
 233 292 235 280 246 254 c 2
 335 47 l 1
 343 90 483 791 483 791 c 1
 541 784 l 1
 541 784 380 -25 355 -153 c 1
 340 -171 312 -180 306 -180 c 0
 302 -180 298 -179 296 -175 c 2
 129 196 l 1
 49 150 l 1
EndSplineSet
Validated: 1
EndChar

StartChar: proportional
Encoding: 8733 8733 236
Width: 669
Flags: W
HStem: 37 73<161.536 282.964 572.688 632.984> 352 74<158.601 269.595 563.495 638.94>
VStem: 27 89<156.972 306.236>
LayerCount: 2
Back
SplineSet
108 229 m 4
 108 159 157 97 227 97 c 4
 293 97 345 172 388 218 c 4
 389 219 389 219 388 220 c 4
 355 259 290 362 220 362 c 4
 152 362 108 297 108 229 c 4
623 43 m 5
 492 43 424 180 413 180 c 6
 412 180 l 5
 359 117 299 41 200 41 c 4
 105 41 38 128 38 223 c 4
 38 332 123 422 232 422 c 4
 329 422 400 334 441 286 c 4
 442 284 446 283 447 285 c 4
 485 332 543 404 624 419 c 5
 626 419 l 6
 632 419 634 412 634 403 c 4
 634 388 628 367 628 367 c 5
 567 367 506 286 471 246 c 4
 470 245 469 244 470 243 c 4
 516 185 573 100 642 100 c 4
 648 100 650 96 650 91 c 4
 650 76 632 46 623 43 c 5
EndSplineSet
Fore
SplineSet
631 112 m 1
 640 112 642 101 642 90 c 3
 642 69 628 49 619 42 c 1
 488 42 417 162 406 162 c 2
 405 162 l 1
 352 99 291 37 193 37 c 0
 98 37 27 128 27 223 c 0
 27 332 117 426 226 426 c 0
 323 426 394 349 435 301 c 0
 436 299 440 298 441 300 c 0
 483 353 548 427 626 427 c 0
 633 427 644 396 644 373 c 0
 644 366 642 352 637 352 c 0
 633 352 627 352 620 352 c 0
 553 352 477 241 478 240 c 0
 500 210 555 112 631 112 c 1
116 229 m 0
 116 159 168 110 221 110 c 0
 287 110 340 187 364 218 c 0
 365 220 290 352 214 352 c 0
 160 352 116 297 116 229 c 0
EndSplineSet
Validated: 33
EndChar

StartChar: infinity
Encoding: 8734 8734 237
Width: 847
Flags: W
HStem: 39 74<158.438 286.022 578.825 689.791> 352 74<158.601 270.127 558.751 687.691>
VStem: 27 89<156.972 306.236> 730 89<157.867 306.308>
LayerCount: 2
Fore
SplineSet
621 357 m 0
 560 357 497 268 481 246 c 0
 480 245 480 245 481 244 c 0
 503 214 567 113 636 113 c 0
 687 113 730 166 730 233 c 0
 730 304 677 357 621 357 c 0
116 229 m 0
 116 159 168 110 221 110 c 0
 287 110 340 187 364 218 c 0
 365 219 365 219 364 220 c 0
 348 244 284 352 214 352 c 0
 160 352 116 297 116 229 c 0
226 426 m 0
 323 426 394 349 435 301 c 0
 436 299 440 298 441 300 c 0
 483 353 551 426 648 426 c 0
 743 426 819 337 819 242 c 0
 819 132 726 39 616 39 c 0
 485 39 417 162 406 162 c 2
 405 162 l 1
 352 99 291 37 193 37 c 0
 98 37 27 128 27 223 c 0
 27 332 117 426 226 426 c 0
EndSplineSet
Validated: 1
EndChar

StartChar: notequal
Encoding: 8800 8800 238
Width: 524
Flags: W
HStem: 109 72<37.0959 173 275 485.905> 251 72<33.2498 252 355 485.905>
LayerCount: 2
Fore
SplineSet
355 323 m 5
 492 323 l 2
 494 323 496 322 496 318 c 0
 496 309 492 279 486 257 c 0
 484 251 480 251 480 251 c 1
 314 251 l 1
 275 181 l 1
 488 181 l 2
 492 181 496 183 496 176 c 0
 496 167 492 137 486 115 c 0
 484 109 480 109 480 109 c 1
 235 109 l 1
 183 16 l 1
 180 14 177 14 173 14 c 0
 170 14 153 18 140 34 c 0
 136 38 135 41 135 41 c 1
 173 109 l 1
 35 109 l 1
 35 109 28 109 28 119 c 0
 28 123 30 152 37 176 c 0
 39 182 44 181 44 181 c 1
 213 181 l 1
 252 251 l 1
 35 251 l 1
 35 251 28 251 28 261 c 1
 28 261 31 303 38 318 c 0
 39 321 41 323 43 323 c 2
 293 323 l 1
 347 420 l 1
 347 420 352 423 356 423 c 0
 368 423 379 415 387 406 c 0
 392 401 395 395 395 395 c 1
 355 323 l 5
EndSplineSet
Validated: 1
EndChar

StartChar: lessequal
Encoding: 8804 8804 239
Width: 463
Flags: W
HStem: 6 56<37.0959 427.982>
LayerCount: 2
Fore
SplineSet
425 62 m 1
 425 62 434 63 432 51 c 0
 425 3 420 9 417 6 c 1
 35 6 l 1
 35 6 26 5 28 19 c 0
 30 33 31 37 37 57 c 0
 39 63 44 62 44 62 c 1
 425 62 l 1
440 136 m 0
 440 129 430 86 424 86 c 0
 423 86 421 87 419 88 c 2
 44 279 l 2
 29 287 26 301 26 318 c 0
 26 329 34 337 44 342 c 2
 413 529 l 2
 415 530 417 531 418 531 c 0
 421 531 428 521 435 484 c 0
 436 478 432 475 432 475 c 1
 106 310 l 1
 437 142 l 1
 437 142 440 141 440 136 c 0
EndSplineSet
Validated: 1
EndChar

StartChar: greaterequal
Encoding: 8805 8805 240
Width: 462
Flags: W
HStem: 6 56<31.6017 423.904>
LayerCount: 2
Fore
SplineSet
30 483 m 0
 30 501 42 531 46 531 c 0
 47 531 49 530 51 529 c 2
 421 342 l 2
 431 337 438 329 438 318 c 0
 438 301 436 287 421 279 c 2
 46 88 l 2
 41 86 40 82 35 95 c 0
 29 110 24 132 24 136 c 0
 24 140 27 142 27 142 c 1
 358 310 l 1
 33 475 l 1
 33 475 30 476 30 483 c 0
28 15 m 0
 28 16 32 62 43 62 c 2
 426 62 l 2
 428 62 432 61 432 54 c 0
 432 46 429 29 424 13 c 0
 422 7 417 6 417 6 c 1
 35 6 l 1
 35 6 28 5 28 15 c 0
EndSplineSet
Validated: 1
EndChar

StartChar: propersubset
Encoding: 8834 8834 241
Width: 453
Flags: W
HStem: 11 60<156.232 423.914> 370 60<152.702 424.161>
VStem: 27 70<134.796 309.161>
LayerCount: 2
Fore
SplineSet
215 370 m 2
 152 370 97 309 97 220 c 3
 97 130 156 71 223 71 c 2
 411 71 l 2
 411 71 426 64 426 29 c 0
 426 20 419 11 419 11 c 1
 225 11 l 2
 113 11 27 109 27 221 c 0
 27 330 106 430 215 430 c 2
 419 430 l 1
 419 430 426 421 426 409 c 0
 426 378 411 370 411 370 c 1
 215 370 l 2
EndSplineSet
Validated: 1
EndChar

StartChar: dotlessi
Encoding: 305 305 242
Width: 326
Flags: W
HStem: -4 37<28.7205 94.9985 241.001 300.279> 362 31<29.0323 89.1875> 426 20G<208 230.5>
VStem: 103 130<41.2661 351.93>
LayerCount: 2
Fore
SplineSet
233 309 m 2
 233 145 l 2
 233 108 233 71 241 51 c 0
 246 38 285 34 298 33 c 1
 303 26 302 2 298 -4 c 1
 259 0 210 3 168 3 c 0
 126 3 70 0 31 -4 c 1
 27 2 26 26 31 33 c 1
 44 34 90 38 95 51 c 0
 103 71 103 102 103 145 c 2
 103 260 l 2
 103 270 102 327 94 342 c 0
 86 357 38 362 31 362 c 1
 28 364 27 393 32 393 c 1
 108 399 189 427 227 446 c 1
 234 444 244 432 244 429 c 1
 241 421 235 386 234 372 c 0
 233 350 233 315 233 309 c 2
EndSplineSet
Validated: 33
Substitution2: "'smcp' Lowercase to Small Capitals in Latin lookup 0 subtable" dotlessi.sc
EndChar

StartChar: uni0302
Encoding: 770 770 243
Width: 284
Flags: W
HStem: 493 168
VStem: 30 236
LayerCount: 2
Fore
SplineSet
257 493 m 0
 246 493 176 543 148 567 c 1
 120 543 50 493 39 493 c 0
 33 493 30 506 30 516 c 1
 37 523 54 540 96 594 c 0
 118 623 127 638 135 651 c 0
 139 658 142 661 148 661 c 27
 154 661 155 657 160 651 c 0
 171 636 179 622 197 599 c 0
 238 545 259 523 266 516 c 1
 266 506 263 493 257 493 c 0
EndSplineSet
Validated: 1
EndChar

StartChar: tildecomb
Encoding: 771 771 244
Width: 679
Flags: W
HStem: 519 63<241.808 331.487> 584 62<100.867 190.354> 615 20G<360 367.5>
VStem: 63 309
LayerCount: 2
Fore
SplineSet
153 646 m 0xd0
 183 646 204 630 226 615 c 0
 249 598 280 582 297 582 c 0
 341 582 356 630 364 635 c 1xb0
 371 635 372 628 372 623 c 0
 372 605 362 583 355 570 c 0
 335 538 309 519 280 519 c 0
 250 519 229 535 207 550 c 0
 184 567 158 584 136 584 c 0
 92 584 81 535 73 530 c 1
 66 530 63 540 63 545 c 0
 63 563 71 583 78 596 c 0
 98 628 124 646 153 646 c 0xd0
EndSplineSet
Validated: 1
EndChar

StartChar: AE.st01
Encoding: 63548 63548 245
Width: 1009
Flags: W
HStem: -4 36<27.013 90.5938 209.676 274.239 460.478 510.329> 2 52<669.598 868.746> 213 60<340.906 498.594> 304 55<643.172 791.425> 610 54<658.391 808.924> 610 46<616.436 752.978> 626 36<437.534 481.14>
VStem: 483 134<551.672 607.918> 807 37<365.954 427.85> 940 44<123.672 175.484>
LayerCount: 2
Fore
SplineSet
483 598 m 0xb1c0
 483 625 455 626 449 626 c 0
 440 626 437 643 437 650 c 0
 437 657 438 662 440 662 c 0xb3c0
 461 662 472 656 539 656 c 0x35c0
 632 656 769 664 878 664 c 1
 890 614 909 561 922 516 c 1
 919 513 907 511 900 511 c 0
 893 511 887 513 885 518 c 0
 855 568 789 610 736 610 c 2
 681 610 l 2
 640 610 618 609 617 597 c 0
 615 578 618 542 620 519 c 2
 635 365 l 2
 635 360 657 359 679 359 c 2
 732 359 l 2
 791 359 797 355 807 421 c 0
 808 426 815 428 822 428 c 0
 829 428 841 426 844 423 c 1
 863 234 l 1
 861 232 849 230 842 230 c 0
 835 230 828 233 826 238 c 0
 805 295 802 290 792 296 c 0
 780 303 751 304 713 304 c 0
 685 304 641 304 642 295 c 2
 657 141 l 2
 659 122 663 90 672 70 c 0
 677 58 700 54 742 54 c 2
 768 54 l 2
 806 54 849 65 877 80 c 0
 895 90 927 125 940 170 c 0
 941 174 947 176 954 176 c 0
 964 176 981 173 984 170 c 1
 970 116 950 42 947 -2 c 1
 838 -2 696 2 605 2 c 0x79c0
 548 2 465 -4 465 -4 c 1
 463 -2 461 5 460 13 c 0
 459 21 460 32 462 32 c 0
 474 32 511 44 514 55 c 1
 518 78 514 99 511 134 c 0
 508 170 506 178 502 207 c 0
 502 210 498 211 495 211 c 0
 458 213 428 213 403 213 c 0
 362 213 337 213 302 212 c 0
 299 212 295 209 293 207 c 1
 293 207 258 161 236 131 c 0
 218 105 204 89 194 71 c 0
 189 62 204 50 209 46 c 0
 223 35 264 30 272 30 c 0
 277 30 275 2 273 -4 c 1xb1c0
 233 -2 208 2 164 2 c 0x71c0
 118 2 77 -2 31 -4 c 1
 29 -2 27 5 27 11 c 0
 27 17 27 29 29 29 c 0
 41 29 89 39 111 67 c 0
 129 91 142 109 160 134 c 0
 423 494 l 2
 462 547 483 589 483 598 c 0xb1c0
500 280 m 0
 500 280 489 398 482 474 c 25
 427 397 334 276 340 276 c 0
 359 276 399 273 422 273 c 0
 453 273 463 273 495 275 c 0
 497 275 500 277 500 280 c 0
EndSplineSet
Validated: 33
EndChar

StartChar: f_f
Encoding: 61696 61696 246
Width: 800
Flags: W
HStem: -4 37<26.4365 86.3777 245.119 303.998 336.437 396.378 555.119 613.997> 370 60<45.625 101 231 411 541 657.231> 620 62<268.999 384.029> 634 62<581.103 659.645>
VStem: 101 130<46.8035 369.997 430.002 538.141> 411 130<46.8035 369.997 430.055 527.766> 420 120<430.055 580.137>
LayerCount: 2
Fore
SplineSet
411 134 m 6xdc
 411 134 411 274 411 363 c 0
 411 366 409 370 406 370 c 2
 237 370 l 2
 234 370 231 367 231 364 c 0
 231 274 231 149 231 149 c 6
 231 115 231 85 238 58 c 4
 241 47 293 33 301 33 c 4
 306 33 305 2 303 -4 c 5
 262 -2 205 4 166 4 c 4
 124 4 71 -2 29 -4 c 5
 24 1 24 33 29 33 c 4
 41 33 91 47 94 58 c 4
 100 84 101 127 101 134 c 6
 101 134 101 274 101 363 c 0
 101 366 99 370 96 370 c 2
 43 370 l 2
 41 370 40 372 40 376 c 0
 40 389 50 430 55 430 c 2
 96 430 l 2
 99 430 101 433 101 436 c 2
 101 443 l 0
 101 580 227 682 337 682 c 0xec
 398 682 468 675 501 642 c 1
 535 676 609 696 653 696 c 0
 714 696 758 679 768 662 c 1
 777 627 782 565 724 565 c 0
 674 565 667 634 621 634 c 0
 574 634 538 551 540 475 c 2xda
 541 434 l 2
 541 432 544 429 546 429 c 2
 657 429 l 2
 662 429 662 428 662 422 c 0
 662 413 657 384 650 370 c 1
 547 370 l 2
 544 370 541 367 541 364 c 0
 541 274 541 149 541 149 c 6
 541 115 541 85 548 58 c 4
 551 47 603 33 611 33 c 4
 616 33 615 2 613 -4 c 5
 572 -2 515 4 476 4 c 4
 434 4 381 -2 339 -4 c 5
 334 1 334 33 339 33 c 4
 351 33 401 47 404 58 c 4
 410 84 411 127 411 134 c 6xdc
419 516 m 0
 419 519 420 523 420 528 c 0xea
 420 536 414 557 411 562 c 0
 401 578 378 620 336 620 c 0
 251 620 228 551 230 475 c 2
 231 434 l 2
 231 432 233 430 235 430 c 2
 406 430 l 2
 409 430 411 433 411 436 c 2
 411 437 l 0
 411 456 417 501 419 516 c 0
EndSplineSet
Validated: 33
LCarets2: 1 338 
Ligature2: "'liga' Standard Ligatures in Latin lookup 0-1" f f
EndChar

StartChar: f_i
Encoding: 61697 61697 247
Width: 649
Flags: W
HStem: -4 37<26.4365 86.3777 245.119 303.998 342.437 402.378 561.119 619.997> 372 57<45.0468 101 231 401.159> 424 20G<542.5 547> 542 154<419.104 514.871> 634 62<283.921 387.761>
VStem: 101 130<46.8035 371.997 430.055 534.844> 403 144<563.625 617.911> 417 130<46.8035 357.229>
LayerCount: 2
Fore
SplineSet
417 134 m 2xa5
 417 278 l 2
 417 288 415 336 399 353 c 0
 383 371 368 372 340 372 c 0
 237 372 l 2
 234 372 231 369 231 366 c 0
 231 276 231 149 231 149 c 2
 231 115 231 85 238 58 c 0
 241 47 293 33 301 33 c 0
 306 33 305 2 303 -4 c 1
 262 -2 205 4 166 4 c 0
 124 4 71 -2 29 -4 c 1
 24 1 24 33 29 33 c 0
 41 33 91 47 94 58 c 0
 100 84 101 127 101 134 c 2
 101 134 101 276 101 365 c 0
 101 368 99 372 96 372 c 2
 43 372 l 2
 41 372 40 374 40 378 c 0
 40 391 50 430 55 430 c 2
 96 430 l 2
 99 430 101 433 101 436 c 2
 101 440 l 0
 101 570 223 696 371 696 c 0xcd
 432 696 457 693 473 690 c 0
 515 683 547 657 547 616 c 0
 547 575 514 542 473 542 c 0x96
 439 542 414 562 403 588 c 0
 392 613 373 634 333 634 c 0
 275 634 228 551 230 475 c 2
 231 434 l 2
 231 432 234 429 236 429 c 2
 445 429 l 2xce
 450 429 499 430 531 441 c 0
 532 441 542 444 543 444 c 0
 551 444 557 432 557 427 c 0
 553 395 547 361 547 327 c 2
 547 149 l 2
 546 115 547 85 554 58 c 0
 557 47 609 33 617 33 c 0
 622 33 621 2 619 -4 c 1
 578 -2 521 4 482 4 c 0
 440 4 387 -2 345 -4 c 1
 340 1 340 33 345 33 c 0
 357 33 407 47 410 58 c 0
 416 84 417 127 417 134 c 2xa5
EndSplineSet
Validated: 33
LCarets2: 1 0 
Ligature2: "'liga' Standard Ligatures in Latin lookup 0-1" f i
EndChar

StartChar: f_f_i
Encoding: 61698 61698 248
Width: 953
Flags: W
HStem: -4 37<26.4365 86.3777 245.119 303.998 336.437 396.378 555.119 613.997 658.572 715.559 869.194 923.808> 370 60<45.625 101 231 411 541 712.499> 424 20G<852.5 857> 542 154<729.104 824.871> 620 62<268.999 384.029> 634 62<592.892 698.189>
VStem: 101 130<46.8035 369.997 430.002 538.141> 411 130<46.8035 369.881 430.055 527.766> 420 120<430.055 571.145> 713 144<563.625 617.911> 727 130<44.8035 357.229>
LayerCount: 2
Fore
SplineSet
336 620 m 0xcb
 251 620 228 551 230 475 c 2
 231 434 l 2
 231 432 233 430 235 430 c 2
 406 430 l 2
 409 430 411 433 411 436 c 2
 411 437 l 0xcb
 411 456 417 501 419 516 c 0
 419 519 420 523 420 528 c 0xca80
 420 536 414 557 411 562 c 0
 401 578 378 620 336 620 c 0xcb
411 134 m 2
 411 134 411 274 411 363 c 0
 411 366 409 370 406 370 c 2
 237 370 l 2
 234 370 231 367 231 364 c 0
 231 274 231 149 231 149 c 2
 231 115 231 85 238 58 c 0
 241 47 293 33 301 33 c 0
 306 33 305 2 303 -4 c 1
 262 -2 205 4 166 4 c 0
 124 4 71 -2 29 -4 c 1
 24 1 24 33 29 33 c 0
 41 33 91 47 94 58 c 0
 100 84 101 127 101 134 c 2
 101 134 101 274 101 363 c 0
 101 366 99 370 96 370 c 2
 43 370 l 2
 41 370 40 372 40 376 c 0
 40 389 50 430 55 430 c 2
 96 430 l 2
 99 430 101 433 101 436 c 2
 101 443 l 0
 101 580 227 682 337 682 c 0xcb20
 398 682 468 675 501 642 c 1
 535 676 635 696 679 696 c 0x8720
 741 696 767 693 783 690 c 0
 825 683 857 657 857 616 c 0
 857 575 824 542 783 542 c 0x9340
 749 542 724 562 713 588 c 0
 702 613 683 634 643 634 c 0
 585 634 538 551 540 475 c 2x86c0
 541 434 l 2
 541 432 544 429 546 429 c 2
 755 429 l 2
 760 429 809 430 841 441 c 0
 842 441 852 444 853 444 c 0
 861 444 867 432 867 427 c 0
 863 395 857 361 857 327 c 2
 857 147 l 2
 857 113 858 84 865 56 c 0
 868 45 913 31 921 31 c 0
 926 31 925 3 923 -3 c 1
 882 -1 830 5 791 5 c 0
 749 5 703 -1 661 -3 c 1
 656 2 656 31 661 31 c 0
 673 31 716 45 719 56 c 0
 725 82 727 125 727 132 c 2
 727 278 l 2xa720
 727 288 725 336 709 353 c 0
 693 371 678 372 650 372 c 0
 547 372 l 2
 544 372 541 369 541 365 c 0
 541 275 541 149 541 149 c 2
 541 115 541 85 548 58 c 0
 551 47 603 33 611 33 c 0
 616 33 615 2 613 -4 c 1
 572 -2 515 4 476 4 c 0
 434 4 381 -2 339 -4 c 1
 334 1 334 33 339 33 c 0
 351 33 401 47 404 58 c 0
 410 84 411 127 411 134 c 2
EndSplineSet
Validated: 33
LCarets2: 2 314 626 
Ligature2: "'liga' Standard Ligatures in Latin lookup 0-1" f f i
EndChar

StartChar: f_l
Encoding: 61699 61699 249
Width: 649
Flags: W
HStem: -4 37<26.4365 86.3777 245.119 303.998 342.437 402.378 561.119 619.997> 372 57<45.0468 101 231 347.454> 634 62<283.921 388.102>
VStem: 101 130<46.8035 371.997 430.055 534.844> 417 130<46.8035 602.315>
LayerCount: 2
Fore
SplineSet
417 134 m 2
 417 515 l 2
 417 543 415 561 403 588 c 16
 392 613 373 634 333 634 c 0
 275 634 228 551 230 475 c 2
 231 434 l 2
 231 432 234 429 236 429 c 2
 347 429 l 2
 352 429 352 428 352 422 c 0
 352 413 347 386 340 372 c 1
 237 372 l 2
 234 372 231 369 231 366 c 0
 231 276 231 149 231 149 c 2
 231 115 231 85 238 58 c 0
 241 47 293 33 301 33 c 0
 306 33 305 2 303 -4 c 1
 262 -2 205 4 166 4 c 0
 124 4 71 -2 29 -4 c 1
 24 1 24 33 29 33 c 0
 41 33 91 47 94 58 c 0
 100 84 101 127 101 134 c 2
 101 134 101 276 101 365 c 0
 101 368 99 372 96 372 c 2
 43 372 l 2
 41 372 40 374 40 378 c 0
 40 391 50 430 55 430 c 2
 96 430 l 2
 99 430 101 433 101 436 c 2
 101 440 l 0
 101 570 223 696 371 696 c 0
 395 696 420 678 436 678 c 0
 477 678 540 695 543 695 c 2
 545 695 l 2
 551 695 557 683 558 678 c 1
 558 678 547 633 547 577 c 2
 547 149 l 2
 547 115 547 85 554 58 c 0
 557 47 609 33 617 33 c 0
 622 33 621 2 619 -4 c 1
 578 -2 521 4 482 4 c 0
 440 4 387 -2 345 -4 c 1
 340 1 340 33 345 33 c 0
 357 33 407 47 410 58 c 0
 416 84 417 127 417 134 c 2
EndSplineSet
Validated: 33
LCarets2: 1 0 
Ligature2: "'liga' Standard Ligatures in Latin lookup 0-1" f l
EndChar

StartChar: f_f_l
Encoding: 61700 61700 250
Width: 952
Flags: W
HStem: -4 37<26.4365 86.3777 245.119 303.998 336.437 396.378 555.119 613.997 658.572 715.559 869.194 923.808> 370 60<45.625 101 231 411 541 657.231> 620 62<268.999 384.029> 634 62<593.69 698.102>
VStem: 101 130<46.8035 369.997 430.002 538> 411 130<46.8035 369.997 430.055 527.766> 420 120<434 571.145> 727 130<44.8035 602.315>
LayerCount: 2
Fore
SplineSet
541 149 m 2xdd
 541 115 541 85 548 58 c 0
 551 47 603 33 611 33 c 0
 616 33 615 2 613 -4 c 1
 572 -2 515 4 476 4 c 0
 434 4 381 -2 339 -4 c 1
 334 1 334 33 339 33 c 0
 351 33 401 47 404 58 c 0
 410 84 411 127 411 134 c 2
 411 134 411 274 411 363 c 0
 411 366 409 370 406 370 c 2
 236 370 l 2
 232 370 231 367 231 364 c 0
 231 274 231 149 231 149 c 2
 231 115 231 85 238 58 c 0
 241 47 293 33 301 33 c 0
 306 33 305 2 303 -4 c 1
 262 -2 205 4 166 4 c 0
 124 4 71 -2 29 -4 c 1
 24 1 24 33 29 33 c 0
 41 33 91 47 94 58 c 0
 100 84 101 127 101 134 c 2
 101 134 101 274 101 363 c 0
 101 366 99 370 96 370 c 2
 43 370 l 2
 41 370 40 372 40 376 c 0
 40 389 50 430 55 430 c 2
 96 430 l 2
 99 430 101 433 101 436 c 2
 101 443 l 0
 101 580 227 681 337 682 c 0xed
 398 682 468 675 501 642 c 1
 535 676 586 696 681 696 c 0
 705 696 730 678 746 678 c 0
 787 678 846 695 855 695 c 0
 861 695 867 683 868 678 c 1
 868 678 857 633 857 577 c 2
 857 146 l 2
 857 112 858 84 865 56 c 0
 868 45 913 31 921 31 c 0
 926 31 925 3 923 -3 c 1
 882 -1 830 5 791 5 c 0
 749 5 703 -1 661 -3 c 1
 656 2 656 31 661 31 c 0
 673 31 716 45 719 56 c 0
 725 82 727 124 727 131 c 2
 727 515 l 2
 727 543 725 561 713 588 c 16
 702 613 683 634 643 634 c 0
 585 634 538 551 540 475 c 2xdb
 541 434 l 2
 541 432 544 429 546 429 c 2
 657 429 l 2
 662 429 662 428 662 422 c 0
 662 413 657 384 650 370 c 1
 547 370 l 2
 544 370 541 367 541 364 c 0
 541 274 541 149 541 149 c 2xdd
336 620 m 0
 251 619 228 551 230 475 c 2
 231 434 l 2
 231 432 231 430 236 430 c 2
 406 430 l 2
 409 430 411 432 411 435 c 2
 411 437 l 0xed
 411 456 417 501 419 516 c 0
 419 519 420 523 420 528 c 0xeb
 420 536 414 557 411 562 c 0
 401 578 378 620 336 620 c 0
EndSplineSet
Validated: 33
LCarets2: 2 0 0 
Ligature2: "'liga' Standard Ligatures in Latin lookup 0-1" f f l
EndChar

StartChar: f_b
Encoding: 61701 61701 251
Width: 884
Flags: W
HStem: -8 55<564.837 680.157> -4 37<27.7256 86.3777 245.119 303.448> 372 57<45.0468 101 231 347.454> 377 72<574.29 672.48> 634 62<283.921 388.102>
VStem: 101 130<46.8035 371.997 430.055 534.844> 417 130<65.375 357.882 410.779 602.315> 715 142<128.381 324.312>
LayerCount: 2
Fore
SplineSet
101 134 m 2x6f
 101 134 101 276 101 365 c 0
 101 368 99 372 96 372 c 2
 43 372 l 2x6f
 41 372 40 374 40 378 c 0
 40 391 50 430 55 430 c 2
 96 430 l 2
 99 430 101 433 101 436 c 2
 101 440 l 0
 101 570 223 696 371 696 c 0
 395 696 420 678 436 678 c 0
 477 678 536 695 545 695 c 0
 551 695 557 683 558 678 c 1
 558 678 547 633 547 577 c 2
 547 424 l 2
 547 419 547 406 553 411 c 0
 568 423 599 449 649 449 c 0
 769 449 857 370 857 232 c 0
 857 94 755 -8 625 -8 c 0x9f
 539 -8 554 10 496 10 c 0
 478 10 450 -9 444 -9 c 2
 438 -9 l 1
 431 -4 406 6 409 17 c 0
 417 49 417 77 417 128 c 2
 417 515 l 0
 417 543 415 561 403 588 c 16
 392 613 373 634 333 634 c 0
 275 634 228 551 230 475 c 2
 231 434 l 2
 231 432 234 429 236 429 c 2
 347 429 l 2
 352 429 352 428 352 422 c 0
 352 413 347 386 340 372 c 1
 237 372 l 2
 234 372 231 369 231 366 c 0
 231 276 231 149 231 149 c 2
 231 115 231 85 238 58 c 0
 241 47 293 33 301 33 c 0
 306 33 305 2 303 -4 c 1
 262 -2 205 4 166 4 c 0
 124 4 71 -2 29 -4 c 1
 24 1 24 33 29 33 c 0
 41 33 91 47 94 58 c 0
 100 84 101 127 101 134 c 2x6f
547 308 m 2
 547 113 l 2
 547 82 565 47 634 47 c 0
 693 47 715 115 715 197 c 0
 715 297 683 377 632 377 c 0x9f
 580 377 547 352 547 308 c 2
EndSplineSet
Validated: 33
LCarets2: 1 0 
Ligature2: "'liga' Standard Ligatures in Latin lookup 0-1" f b
EndChar

StartChar: f_f_b
Encoding: 61702 61702 252
Width: 1194
Flags: W
HStem: -8 55<874.837 990.157> -4 37<27.7256 86.3777 245.119 303.448 337.726 396.378 555.119 613.448> 370 60<45.625 101 231 411 541 657.231> 377 72<884.29 982.48> 620 62<268.999 384.029> 634 62<593.69 698.102>
VStem: 101 130<46.8035 369.997 430.002 538> 411 130<46.8035 369.997 430.055 527.766> 420 120<430.055 571.145> 727 130<65.375 357.882 410.779 602.315> 1025 142<128.381 324.312>
LayerCount: 2
Fore
SplineSet
411 134 m 2x6760
 411 134 411 274 411 363 c 0
 411 366 409 370 406 370 c 2
 236 370 l 2
 232 370 231 367 231 364 c 0
 231 274 231 149 231 149 c 2
 231 115 231 85 238 58 c 0
 241 47 293 33 301 33 c 0
 306 33 305 2 303 -4 c 1
 262 -2 205 4 166 4 c 0
 124 4 71 -2 29 -4 c 1
 24 1 24 33 29 33 c 0
 41 33 91 47 94 58 c 0
 100 84 101 127 101 134 c 2
 101 134 101 274 101 363 c 0
 101 366 99 370 96 370 c 2
 43 370 l 2
 41 370 40 372 40 376 c 0
 40 389 50 430 55 430 c 2
 96 430 l 2
 99 430 101 433 101 436 c 2
 101 443 l 0
 101 580 227 681 337 682 c 0x6b60
 398 682 468 675 501 642 c 1
 535 676 586 696 681 696 c 0
 705 696 730 678 746 678 c 0
 787 678 846 695 855 695 c 0
 861 695 867 683 868 678 c 1
 868 678 857 633 857 577 c 2
 857 424 l 2
 857 419 857 406 863 411 c 0
 878 423 909 449 959 449 c 0
 1079 449 1167 370 1167 232 c 0
 1167 94 1065 -8 935 -8 c 0
 849 -8 864 10 806 10 c 0
 788 10 760 -9 754 -9 c 2
 748 -9 l 1
 741 -4 716 6 719 17 c 0
 727 49 727 77 727 128 c 2
 727 515 l 0
 727 543 725 561 713 588 c 16
 702 613 683 634 643 634 c 0
 585 634 538 551 540 475 c 2x96e0
 541 434 l 2
 541 432 544 429 546 429 c 2
 657 429 l 2
 662 429 662 428 662 422 c 0
 662 413 657 384 650 370 c 1
 547 370 l 2
 544 370 541 367 541 364 c 0
 541 274 541 149 541 149 c 2
 541 115 541 85 548 58 c 0
 551 47 603 33 611 33 c 0
 616 33 615 2 613 -4 c 1
 572 -2 515 4 476 4 c 0
 434 4 381 -2 339 -4 c 1
 334 1 334 33 339 33 c 0
 351 33 401 47 404 58 c 0
 410 84 411 127 411 134 c 2x6760
857 308 m 2
 857 113 l 2
 857 82 875 47 944 47 c 0
 1003 47 1025 115 1025 197 c 0
 1025 297 993 377 942 377 c 0x9260
 890 377 857 352 857 308 c 2
336 620 m 0x2b60
 251 619 228 551 230 475 c 2
 231 434 l 2
 231 432 231 430 236 430 c 2
 406 430 l 2
 409 430 411 432 411 435 c 2
 411 437 l 0x2b60
 411 456 417 501 419 516 c 0
 419 519 420 523 420 528 c 0x2ae0
 420 536 414 557 411 562 c 0
 401 578 378 620 336 620 c 0x2b60
EndSplineSet
Validated: 33
LCarets2: 2 0 0 
Ligature2: "'liga' Standard Ligatures in Latin lookup 0-1" f f b
EndChar

StartChar: f_k
Encoding: 61703 61703 253
Width: 961
Flags: W
HStem: -4 37<26.572 84.1588 247.389 303.987 342.437 402.378 561.119 619.906 666.437 704.982 872.507 929.994> 372 57<45.0468 101 231 347.454> 405 35<652.036 698.971 814.137 876.596> 634 62<283.921 388.102>
VStem: 101 130<47.8035 371.997 430.055 534.844> 417 130<46.8035 213 259 602.315>
LayerCount: 2
Fore
SplineSet
231 150 m 2xdc
 231 116 231 86 238 59 c 0
 241 48 293 34 301 34 c 0
 306 34 305 3 303 -3 c 1
 262 -1 205 5 166 5 c 0
 124 5 71 -1 29 -3 c 1
 24 2 24 34 29 34 c 0
 41 34 91 48 94 59 c 0
 100 85 101 128 101 135 c 2
 101 135 101 276 101 365 c 0
 101 368 99 372 96 372 c 2
 43 372 l 2xdc
 41 372 40 374 40 378 c 0
 40 391 50 430 55 430 c 2
 96 430 l 2
 99 430 101 433 101 436 c 2
 101 440 l 0
 101 570 223 696 371 696 c 0
 395 696 420 678 436 678 c 0
 477 678 536 695 545 695 c 0
 551 695 557 683 558 678 c 1
 558 678 547 633 547 577 c 2
 547 259 l 1
 555 261 573 265 581 272 c 0
 670 349 699 368 699 388 c 0
 699 408 659 401 653 405 c 1
 650 414 650 439 655 441 c 1
 655 441 727 440 769 440 c 0
 805 440 828 440 873 442 c 1
 881 437 877 405 874 405 c 0xbc
 845 405 816 389 804 382 c 0
 783 370 722 330 667 273 c 1
 742 192 834 79 861 59 c 1
 881 42 917 33 925 33 c 0
 928 33 930 21 930 14 c 0
 930 9 929 -1 928 -3 c 1
 888 -1 840 3 802 3 c 0
 761 3 710 -2 669 -4 c 1
 664 1 664 33 669 33 c 0
 680 33 705 39 705 46 c 0
 705 47 705 48 704 49 c 2
 558 216 l 1
 547 213 l 1
 547 149 l 2
 547 115 547 85 554 58 c 0
 557 47 609 33 617 33 c 0
 622 33 621 2 619 -4 c 1
 578 -2 521 4 482 4 c 0
 440 4 387 -2 345 -4 c 1
 340 1 340 33 345 33 c 0
 357 33 407 47 410 58 c 0
 416 84 417 127 417 134 c 2
 417 515 l 2
 417 542 415 561 403 588 c 16
 392 613 373 634 333 634 c 0
 275 634 228 551 230 475 c 2
 231 434 l 2
 231 432 234 429 236 429 c 2
 347 429 l 2
 352 429 352 428 352 422 c 0
 352 413 347 386 340 372 c 1
 237 372 l 2
 234 372 231 369 231 366 c 0
 231 276 231 150 231 150 c 2xdc
EndSplineSet
Validated: 33
LCarets2: 1 0 
Ligature2: "'liga' Standard Ligatures in Latin lookup 0-1" f k
EndChar

StartChar: f_f_k
Encoding: 61704 61704 254
Width: 1271
Flags: W
HStem: -4 37<26.4365 86.3777 245.119 303.998 336.437 396.378 555.119 613.997 652.437 712.378 871.119 929.997 976.437 1014.98 1182.51 1239.99> 370 60<45.625 101 231 411 541 657.231> 405 35<962.036 1008.97 1124.14 1186.6> 620 62<268.999 384.029> 634 62<593.69 698.102>
VStem: 101 130<46.8035 369.997 430.002 538> 411 130<46.8035 369.997 430.055 527.766> 420 120<430.055 571.145> 727 130<46.8035 213 259 602.315>
LayerCount: 2
Fore
SplineSet
727 515 m 2xae80
 727 542 725 561 713 588 c 16
 702 613 683 634 643 634 c 0
 585 634 538 551 540 475 c 2xad80
 541 434 l 2
 541 432 544 429 546 429 c 2
 657 429 l 2
 662 429 662 428 662 422 c 0
 662 413 657 384 650 370 c 1
 547 370 l 2
 544 370 541 367 541 364 c 0
 541 274 541 149 541 149 c 2
 541 115 541 85 548 58 c 0
 551 47 603 33 611 33 c 0
 616 33 615 2 613 -4 c 1
 572 -2 515 4 476 4 c 0
 434 4 381 -2 339 -4 c 1
 334 1 334 33 339 33 c 0
 351 33 401 47 404 58 c 0
 410 84 411 127 411 134 c 2
 411 134 411 274 411 363 c 0
 411 366 409 370 406 370 c 2
 236 370 l 2
 232 370 231 367 231 364 c 0
 231 274 231 149 231 149 c 2
 231 115 231 85 238 58 c 0
 241 47 293 33 301 33 c 0
 306 33 305 2 303 -4 c 1
 262 -2 205 4 166 4 c 0
 124 4 71 -2 29 -4 c 1
 24 1 24 33 29 33 c 0
 41 33 91 47 94 58 c 0
 100 84 101 127 101 133 c 2
 101 133 101 274 101 363 c 0
 101 366 99 370 96 370 c 2
 43 370 l 2
 41 370 40 372 40 376 c 0
 40 389 50 430 55 430 c 2
 96 430 l 2
 99 430 101 433 101 436 c 2
 101 443 l 0
 101 580 227 681 337 682 c 0xd680
 398 682 468 675 501 642 c 1
 535 676 586 696 681 696 c 0
 705 696 730 678 746 678 c 0
 787 678 846 695 855 695 c 0
 861 695 867 683 868 678 c 1
 868 678 857 633 857 577 c 2
 857 259 l 1
 865 261 883 265 891 272 c 0
 980 349 1009 368 1009 388 c 0
 1009 408 969 401 963 405 c 1
 960 414 960 439 965 441 c 1
 965 441 1037 440 1079 440 c 0
 1115 440 1138 440 1183 442 c 1
 1191 437 1187 405 1184 405 c 0
 1155 405 1126 389 1114 382 c 0
 1093 370 1032 330 977 273 c 1
 1052 192 1144 79 1171 59 c 1
 1191 42 1227 33 1235 33 c 0
 1238 33 1240 21 1240 14 c 0
 1240 9 1239 -1 1238 -3 c 1
 1198 -1 1150 3 1112 3 c 0
 1071 3 1020 -2 979 -4 c 1
 974 1 974 33 979 33 c 0
 990 33 1015 39 1015 46 c 0
 1015 47 1015 48 1014 49 c 2
 868 216 l 1
 857 213 l 1
 857 149 l 2
 857 115 857 85 864 58 c 0
 867 47 919 33 927 33 c 0
 932 33 931 2 929 -4 c 1
 888 -2 831 4 792 4 c 0
 750 4 697 -2 655 -4 c 1
 650 1 650 33 655 33 c 0
 667 33 717 47 720 58 c 0
 726 84 727 127 727 134 c 2
 727 515 l 2xae80
336 620 m 0xd680
 251 619 228 551 230 475 c 2
 231 434 l 2
 231 432 231 430 236 430 c 2
 406 430 l 2
 409 430 411 432 411 435 c 2
 411 437 l 0xd680
 411 456 417 501 419 516 c 0
 419 519 420 523 420 528 c 0xd580
 420 536 414 557 411 562 c 0
 401 578 378 620 336 620 c 0xd680
EndSplineSet
Validated: 33
LCarets2: 2 0 0 
Ligature2: "'liga' Standard Ligatures in Latin lookup 0-1" f f k
EndChar

StartChar: f_h
Encoding: 61705 61705 255
Width: 935
Flags: W
HStem: -4 37<26.4365 86.3777 245.119 303.998 342.437 402.378 560.833 615.997 631.437 687.715 846.119 904.997> 372 57<45.0468 101 231 347.454> 634 62<283.921 388.102>
VStem: 101 130<46.8035 371.997 430.055 534.844> 417 130<46.8035 348.197 388.003 602.315> 702 130<46.8035 346.244>
LayerCount: 2
Fore
SplineSet
417 133 m 6
 417 514 l 2
 417 542 415 561 403 588 c 16
 392 613 373 634 333 634 c 0
 275 634 228 551 230 475 c 2
 231 434 l 2
 231 432 234 429 236 429 c 2
 347 429 l 2
 352 429 352 428 352 422 c 0
 352 413 347 386 340 372 c 1
 237 372 l 2
 234 372 231 369 231 366 c 0
 231 276 231 149 231 149 c 2
 231 115 231 85 238 58 c 0
 241 47 293 33 301 33 c 0
 306 33 305 2 303 -4 c 1
 262 -2 205 4 166 4 c 0
 124 4 71 -2 29 -4 c 1
 24 1 24 33 29 33 c 0
 41 33 91 47 94 58 c 0
 100 84 101 127 101 134 c 2
 101 134 101 276 101 365 c 0
 101 368 99 372 96 372 c 2
 43 372 l 2
 41 372 40 374 40 378 c 0
 40 391 50 430 55 430 c 2
 96 430 l 2
 99 430 101 433 101 436 c 2
 101 440 l 0
 101 570 223 696 371 696 c 0
 395 696 420 678 436 678 c 0
 477 678 536 695 545 695 c 0
 551 695 557 683 558 678 c 1
 558 678 547 633 547 577 c 2
 547 396 l 2
 547 392 549 388 552 388 c 0
 554 388 556 392 558 394 c 0
 575 411 627 447 678 447 c 27
 761 447 832 388 832 300 c 2
 832 149 l 6
 832 115 832 85 839 58 c 4
 842 47 894 33 902 33 c 4
 907 33 906 2 904 -4 c 5
 863 -2 806 4 767 4 c 4
 725 4 676 -2 634 -4 c 5
 629 1 629 33 634 33 c 4
 646 33 692 47 695 58 c 4
 701 84 702 127 702 134 c 6
 702 224 l 2
 702 330 685 371 624 371 c 0
 589 371 561 343 551 328 c 0
 548 324 547 320 547 317 c 2
 547 149 l 6
 547 115 547 85 554 58 c 4
 557 47 605 33 613 33 c 4
 618 33 617 2 615 -4 c 5
 574 -2 521 4 482 4 c 4
 440 4 387 -2 345 -4 c 5
 340 1 340 33 345 33 c 4
 357 33 407 47 410 58 c 4
 416 84 417 127 417 133 c 6
EndSplineSet
Validated: 33
LCarets2: 1 354 
Ligature2: "'liga' Standard Ligatures in Latin lookup 0-1" f h
EndChar

StartChar: f_f_h
Encoding: 61706 61706 256
Width: 1245
Flags: W
HStem: -4 37<26.4365 86.3777 245.119 303.998 336.437 396.378 555.119 613.997 652.437 712.378 870.833 925.997 941.437 997.715 1156.12 1215> 370 60<45.625 101 231 411 541 657.231> 371 17<862 934> 620 62<268.999 384.029> 634 62<593.69 698.102>
VStem: 101 130<46.8035 369.997 430 538> 411 130<46.8035 369.997 430.055 527.766> 420 120<430.055 571.145> 727 130<46.8035 348.197 388.003 602.315> 1012 130<46.8035 346.244>
LayerCount: 2
Fore
SplineSet
727 133 m 2xaec0
 727 514 l 2
 727 542 725 561 713 588 c 16
 702 613 683 634 643 634 c 0
 585 634 538 551 540 475 c 2xadc0
 541 434 l 2
 541 432 544 429 546 429 c 2
 657 429 l 2
 662 429 662 428 662 422 c 0
 662 413 657 384 650 370 c 1
 547 370 l 2
 544 370 541 367 541 364 c 0
 541 274 541 149 541 149 c 2
 541 115 541 85 548 58 c 0
 551 47 603 33 611 33 c 0
 616 33 615 2 613 -4 c 1
 572 -2 515 4 476 4 c 0
 434 4 381 -2 339 -4 c 1
 334 1 334 33 339 33 c 0
 351 33 401 47 404 58 c 0
 410 84 411 127 411 134 c 2
 411 134 411 274 411 363 c 0
 411 366 409 370 406 370 c 2
 236 370 l 2
 232 370 231 367 231 364 c 0
 231 274 231 149 231 149 c 2
 231 115 231 85 238 58 c 0
 241 47 293 33 301 33 c 0
 306 33 305 2 303 -4 c 1
 262 -2 205 4 166 4 c 0
 124 4 71 -2 29 -4 c 1
 24 1 24 33 29 33 c 0
 41 33 91 47 94 58 c 0
 100 84 101 127 101 134 c 2
 101 134 101 274 101 363 c 0
 101 366 99 370 96 370 c 2
 43 370 l 2
 41 370 40 372 40 376 c 0
 40 389 50 430 55 430 c 2
 96 430 l 2
 99 430 101 433 101 436 c 2
 101 443 l 0
 101 580 227 681 337 682 c 0xd6c0
 398 682 468 675 501 642 c 1
 535 676 586 696 681 696 c 0
 705 696 730 678 746 678 c 0
 787 678 846 695 855 695 c 0
 861 695 867 683 868 678 c 1
 868 678 857 633 857 577 c 2
 857 396 l 2
 857 392 859 388 862 388 c 0
 864 388 866 392 868 394 c 0
 885 411 937 447 988 447 c 27
 1071 447 1142 388 1142 300 c 2
 1142 149 l 2
 1143 115 1142 85 1149 58 c 0
 1152 47 1204 33 1212 33 c 0
 1217 33 1216 2 1214 -4 c 1
 1173 -2 1116 4 1077 4 c 0
 1035 4 986 -2 944 -4 c 1
 939 1 939 33 944 33 c 0
 956 33 1002 47 1005 58 c 0
 1011 84 1012 127 1012 134 c 2
 1012 224 l 2
 1012 330 995 371 934 371 c 0
 899 371 871 343 861 328 c 0
 858 324 857 320 857 317 c 2
 857 149 l 2
 858 115 857 85 864 58 c 0
 867 47 915 33 923 33 c 0
 928 33 927 2 925 -4 c 1
 884 -2 831 4 792 4 c 0
 750 4 697 -2 655 -4 c 1
 650 1 650 33 655 33 c 0
 667 33 717 47 720 58 c 0
 726 84 727 127 727 133 c 2xaec0
336 620 m 0xd6c0
 251 619 228 551 230 475 c 2
 231 434 l 2
 231 432 231 430 236 430 c 2
 406 430 l 2
 409 430 411 432 411 435 c 2
 411 437 l 0xd6c0
 411 456 417 501 419 516 c 0
 419 519 420 523 420 528 c 0xd5c0
 420 536 414 557 411 562 c 0
 401 578 378 620 336 620 c 0xd6c0
EndSplineSet
Validated: 33
LCarets2: 2 0 0 
Ligature2: "'liga' Standard Ligatures in Latin lookup 0-1" f f h
EndChar

StartChar: f_j
Encoding: 61707 61707 257
Width: 579
Flags: W
HStem: -218 34<309.177 332.393> -4 34<25.0272 79.9115 241.816 292.082> 372 57<39.0468 95 225 395.159> 424 20G<536.5 541> 542 154<413.104 508.871> 634 62<277.921 381.761>
VStem: 95 130<43.8035 371.997 430.055 534.844> 397 144<563.625 617.911> 411 130<-40.2156 356.881>
LayerCount: 2
Fore
SplineSet
411 277 m 2xd280
 411 288 409 336 393 353 c 0
 377 371 362 372 334 372 c 0
 231 372 l 2
 228 372 225 369 225 366 c 0
 225 276 225 146 225 146 c 2
 225 112 226 83 233 55 c 0
 236 44 281 30 289 30 c 0
 294 30 293 2 291 -4 c 1
 250 -2 199 4 160 4 c 0
 118 4 71 -2 29 -4 c 1
 26 -1 25 7 25 15 c 3
 25 23 27 30 29 30 c 0
 41 30 85 44 88 55 c 0
 94 81 95 124 95 131 c 2
 95 131 95 276 95 365 c 0
 95 368 93 372 90 372 c 2
 37 372 l 2
 35 372 34 374 34 378 c 0
 34 391 44 430 49 430 c 2
 90 430 l 2
 93 430 95 433 95 436 c 2
 95 440 l 0
 95 570 217 696 365 696 c 0xe680
 426 696 451 693 467 690 c 0
 509 683 541 657 541 616 c 0
 541 575 508 542 467 542 c 0xcb
 433 542 408 562 397 588 c 0
 386 613 367 634 327 634 c 0
 269 634 222 551 224 475 c 2
 225 434 l 2
 225 432 228 429 230 429 c 2
 439 429 l 2xe7
 444 429 493 430 525 441 c 0
 526 441 536 444 537 444 c 0
 545 444 551 432 551 427 c 0
 547 395 541 361 541 326 c 2
 541 120 l 2
 541 36 528 -47 493 -102 c 0
 459 -156 352 -218 324 -218 c 1
 317 -214 308 -206 308 -194 c 0
 308 -192 308 -185 309 -184 c 0
 313 -182 411 -145 411 100 c 2
 411 277 l 2xd280
EndSplineSet
Validated: 33
LCarets2: 1 0 
Ligature2: "'liga' Standard Ligatures in Latin lookup 0-1" f j
EndChar

StartChar: f_f_j
Encoding: 61708 61708 258
Width: 895
Flags: W
HStem: -218 34<624.177 648.393> -4 37<26.4365 86.3777 245.119 303.998 336.437 396.378 555.119 613.997> 370 60<45.625 101 231 411 541 712.499> 424 20G<852.5 857> 542 154<729.104 824.871> 620 62<268.999 384.029> 634 62<592.892 698.189>
VStem: 101 130<46.8035 369.997 430.002 538.141> 411 130<46.8035 369.881 430.055 527.766> 420 120<430.055 571.145> 713 144<563.625 617.911> 727 130<-40.2156 356.881>
LayerCount: 2
Fore
SplineSet
411 134 m 2xd390
 411 134 411 274 411 363 c 0
 411 366 409 370 406 370 c 2
 237 370 l 2
 234 370 231 367 231 364 c 0
 231 274 231 149 231 149 c 2
 231 115 231 85 238 58 c 0
 241 47 293 33 301 33 c 0
 306 33 305 2 303 -4 c 1
 262 -2 205 4 166 4 c 0
 124 4 71 -2 29 -4 c 1
 24 1 24 33 29 33 c 0
 41 33 91 47 94 58 c 0
 100 84 101 127 101 134 c 2
 101 134 101 274 101 363 c 0
 101 366 99 370 96 370 c 2
 43 370 l 2
 41 370 40 372 40 376 c 0
 40 389 50 430 55 430 c 2
 96 430 l 2
 99 430 101 433 101 436 c 2
 101 443 l 0
 101 580 227 682 337 682 c 0xe590
 398 682 468 675 501 642 c 1
 535 676 635 696 679 696 c 0xc390
 741 696 767 693 783 690 c 0
 825 683 857 657 857 616 c 0
 857 575 824 542 783 542 c 0xc9a0
 749 542 724 562 713 588 c 0
 702 613 683 634 643 634 c 0
 585 634 538 551 540 475 c 2xc360
 541 434 l 2
 541 432 544 429 546 429 c 2
 755 429 l 2
 760 429 809 430 841 441 c 0
 842 441 852 444 853 444 c 0
 861 444 867 432 867 427 c 0
 863 395 857 361 857 326 c 2
 857 120 l 2
 857 36 844 -47 809 -102 c 0
 775 -156 667 -218 639 -218 c 1
 632 -214 623 -206 623 -194 c 0
 623 -192 624 -185 625 -184 c 0
 629 -182 727 -145 727 100 c 2
 727 277 l 2
 727 288 725 336 709 353 c 0
 693 371 678 372 650 372 c 0
 547 372 l 2
 544 372 541 369 541 365 c 0
 541 275 541 149 541 149 c 2
 541 115 541 85 548 58 c 0
 551 47 603 33 611 33 c 0
 616 33 615 2 613 -4 c 1
 572 -2 515 4 476 4 c 0
 434 4 381 -2 339 -4 c 1
 334 1 334 33 339 33 c 0
 351 33 401 47 404 58 c 0
 410 84 411 127 411 134 c 2xd390
419 516 m 0
 419 519 420 523 420 528 c 0xe540
 420 536 414 557 411 562 c 0
 401 578 378 620 336 620 c 0
 251 620 228 551 230 475 c 2
 231 434 l 2
 231 432 233 430 235 430 c 2
 406 430 l 2
 409 430 411 433 411 436 c 2
 411 437 l 0
 411 456 417 501 419 516 c 0
EndSplineSet
Validated: 33
LCarets2: 2 0 0 
Ligature2: "'liga' Standard Ligatures in Latin lookup 0-1" f f j
EndChar

StartChar: T_h
Encoding: 61709 61709 259
Width: 1185
Flags: W
HStem: -4 37<184.051 244.276 415.318 473.997 591.437 651.378 809.833 864.997 880.437 936.715 1095.12 1154> 371 17<801 873> 607 56<104.125 253.732 406.927 622.079> 675 20G<790.5 797>
VStem: 24 39<504.931 557.873> 260 140<47.4144 596.72> 666 130<46.8035 348.197 388.003 564.99> 951 130<46.8035 345.872>
LayerCount: 2
Fore
SplineSet
666 134 m 2
 666 489 l 0
 666 593 586 607 535 607 c 0
 456 607 410 597 408 589 c 0
 400 561 400 538 400 500 c 2
 400 139 l 2
 400 103 401 85 408 58 c 0
 411 47 462 33 470 33 c 0
 473 33 474 20 474 14 c 0
 474 9 473 -1 472 -4 c 1
 432 -2 377 4 333 4 c 0
 287 4 234 -2 188 -4 c 1
 186 -2 184 6 184 12 c 0
 184 18 185 33 187 33 c 0
 199 33 248 46 253 58 c 1
 259 81 260 117 260 135 c 2
 260 497 l 2
 260 537 260 575 252 589 c 0
 248 597 249 607 170 607 c 0
 118 607 82 583 63 509 c 0
 62 505 58 504 53 504 c 0
 44 504 27 508 24 511 c 1
 43 674 l 1
 59 670 98 663 112 663 c 0
 201 662 251 657 331 657 c 0
 411 657 489 661 578 663 c 0
 703 666 789 695 792 695 c 2
 794 695 l 2
 800 695 806 683 807 678 c 1
 807 678 796 633 796 577 c 2
 796 396 l 2
 796 392 798 388 801 388 c 0
 803 388 805 392 807 394 c 0
 824 411 876 447 927 447 c 27
 1010 447 1081 387 1081 300 c 2
 1081 149 l 2
 1081 115 1081 85 1088 58 c 0
 1091 47 1143 33 1151 33 c 0
 1156 33 1155 2 1153 -4 c 1
 1112 -2 1055 4 1016 4 c 0
 974 4 925 -2 883 -4 c 1
 878 1 878 33 883 33 c 0
 895 33 941 47 944 58 c 0
 950 84 951 127 951 134 c 2
 951 224 l 2
 951 331 934 371 873 371 c 0
 838 371 810 343 800 328 c 0
 797 324 796 320 796 317 c 2
 796 149 l 2
 796 115 796 85 803 58 c 0
 806 47 854 33 862 33 c 0
 867 33 866 2 864 -4 c 1
 823 -2 770 4 731 4 c 0
 689 4 636 -2 594 -4 c 1
 589 1 589 33 594 33 c 0
 606 33 656 47 659 58 c 0
 665 84 666 127 666 134 c 2
EndSplineSet
Validated: 33
LCarets2: 1 0 
Ligature2: "'liga' Standard Ligatures in Latin lookup 0-1" T h
EndChar

StartChar: bracketleft.taboldstyle
Encoding: 63575 63575 260
Width: 241
VWidth: 0
HStem: -84 48<134 206.807> 496 47<134 208.129>
VStem: 20 114<-38.3901 498.253>
LayerCount: 2
Fore
SplineSet
36 543 m 0
 119 543 192 554 221 559 c 1
 222 559 225 555 225 546 c 0
 225 529 219 525 218 524 c 0
 197 511 158 496 140 496 c 0
 136 496 134 493 134 490 c 2
 134 -31 l 2
 134 -34 136 -36 140 -36 c 0
 155 -36 193 -48 218 -64 c 0
 222 -67 225 -75 225 -86 c 0
 225 -96 223 -99 221 -100 c 1
 159 -91 117 -84 36 -84 c 0
 21 -84 20 -69 20 -68 c 2
 20 527 l 2
 20 528 21 543 36 543 c 0
EndSplineSet
Validated: 1
EndChar

StartChar: backslash.taboldstyle
Encoding: 63576 63576 261
Width: 317
VWidth: 0
Flags: W
LayerCount: 2
Fore
SplineSet
230 -16 m 1
 123 199 -41 527 -41 527 c 1
 -41 527 -37 534 -17 534 c 0
 26 534 61 527 67 516 c 2
 318 22 l 2
 319 19 320 17 320 12 c 0
 320 -3 280 -16 230 -16 c 1
EndSplineSet
Validated: 1
EndChar

StartChar: bracketright.taboldstyle
Encoding: 63577 63577 262
Width: 193
VWidth: 0
HStem: -84 48<28.957 103> 496 47<28.8188 103>
VStem: 103 86<-35.9985 495.998>
LayerCount: 2
Fore
SplineSet
12 -86 m 0
 12 -75 15 -67 19 -64 c 0
 44 -48 83 -36 98 -36 c 0
 102 -36 103 -34 103 -31 c 2
 103 490 l 2
 103 493 101 496 97 496 c 0
 79 496 40 511 19 524 c 0
 18 525 12 529 12 546 c 0
 12 555 15 559 16 559 c 1
 41 554 104 543 176 543 c 0
 189 543 189 528 189 527 c 2
 189 -68 l 2
 189 -69 189 -84 176 -84 c 0
 106 -84 70 -91 16 -100 c 1
 14 -99 12 -96 12 -86 c 0
EndSplineSet
Validated: 1
EndChar

StartChar: zero.onum
Encoding: 63280 63280 263
Width: 524
Flags: W
HStem: -7 68<218.214 317.354> 381 68<206.802 305.786>
VStem: 27 131<131.158 316.766> 366 131<125.234 310.842>
LayerCount: 2
Fore
SplineSet
256 381 m 0
 197 381 158 309 158 231 c 0
 158 139 209 61 268 61 c 0
 327 61 366 133 366 211 c 0
 366 303 315 381 256 381 c 0
262 449 m 0
 393 449 497 347 497 221 c 0
 497 95 394 -7 262 -7 c 0
 131 -7 27 95 27 221 c 0
 27 347 131 449 262 449 c 0
EndSplineSet
Validated: 1
EndChar

StartChar: one.onum
Encoding: 63281 63281 264
Width: 319
Flags: W
HStem: -4 37<29.4365 84.7087 242.687 295.997> 402 37<23.25 87.3886> 425 37<245.294 291.341>
VStem: 98 130<46.8035 396.051>
LayerCount: 2
Fore
SplineSet
156 443 m 0xd0
 196 447 244 456 286 462 c 1
 289 459 292 444 292 435 c 0
 292 430 291 425 289 425 c 0xb0
 277 424 234 406 232 395 c 0
 228 369 228 320 228 313 c 2
 228 149 l 2
 228 115 229 86 236 58 c 0
 239 47 284 33 292 33 c 0
 295 33 296 23 296 15 c 0
 296 7 295 -1 294 -4 c 1
 253 -2 202 4 163 4 c 0
 121 4 74 -2 32 -4 c 1
 27 1 27 33 32 33 c 0
 44 33 88 47 91 58 c 0
 97 84 98 127 98 134 c 2
 98 298 l 2
 98 332 97 354 88 382 c 0
 82 400 59 402 50 402 c 0
 43 402 29 401 29 401 c 0
 25 401 23 417 23 427 c 0
 23 430 23 433 25 439 c 1
 66 441 117 439 156 443 c 0xd0
EndSplineSet
Validated: 33
EndChar

StartChar: two.onum
Encoding: 63282 63282 265
Width: 457
Flags: W
HStem: 1 101<168.862 367.875> 380 83<143.051 272.232>
VStem: 246 140<271.713 357.391> 394 40<135.094 180.768>
LayerCount: 2
Fore
SplineSet
224 463 m 4
 320 463 386 404 386 330 c 0
 386 287 353 258 345 251 c 0
 283 197 220 152 169 113 c 0
 166 110 167 102 172 102 c 2
 311 102 l 2
 370 102 376 136 394 175 c 0
 396 180 398 182 404 182 c 0
 408 182 430 179 434 174 c 1
 422 123 401 50 391 0 c 1
 237 1 l 1
 237 1 40 0 33 0 c 1
 25 3 25 14 25 24 c 1
 137 134 246 235 246 303 c 0
 246 343 219 380 165 380 c 0
 93 380 54 295 47 295 c 1
 35 295 25 315 25 324 c 3
 25 332 26 336 27 337 c 0
 48 373 136 463 224 463 c 4
EndSplineSet
Validated: 1
EndChar

StartChar: three.onum
Encoding: 63283 63283 266
Width: 447
Flags: W
HStem: -183 51<91.5 222.034> 391 72<163.04 270.5>
VStem: 247 117<284.442 375.079> 289 135<-18.4801 99.7262>
LayerCount: 2
Back
SplineSet
264 460 m 4xf0
 309 460 360 417 360 355 c 4xf0
 360 297 309 221 268 200 c 5
 316 196 388 138 388 53 c 4
 388 -70 220 -182 108 -182 c 4
 94 -182 81 -180 67 -174 c 5
 62 -164 61 -154 61 -148 c 4
 61 -134 81 -112 97 -112 c 4
 128 -112 132 -132 165 -132 c 4
 247 -132 300 -54 300 33 c 4xe8
 300 87 263 145 209 145 c 4
 179 145 152 139 137 134 c 5
 130 135 129 144 129 152 c 4
 129 156 131 165 133 170 c 5
 205 192 285 256 285 324 c 4
 285 369 259 397 219 397 c 4
 163 397 125.946 355.946 112 342 c 4
 110 340 107.853 338 105 338 c 4
 101.862 338 95 349.247 95 354 c 7
 95 355.306 95.5049 360.599 97 363 c 4
 130 416 191 460 264 460 c 4xf0
EndSplineSet
Fore
SplineSet
248 463 m 4xe0
 293 463 364 442 364 360 c 0xe0
 364 289 311 242 262 197 c 1
 301 197 424 168 424 63 c 0
 424 -78 239 -183 111 -183 c 0
 72 -183 46 -173 29 -166 c 1
 25 -159 21 -146 21 -137 c 0
 21 -108 48 -82 72 -82 c 0
 115 -82 114 -132 164 -132 c 0
 227 -132 289 -69 289 21 c 0xd0
 289 96 251 140 184 140 c 0
 170 140 152 134 132 128 c 1
 125 131 122 142 122 150 c 0
 122 154 123 168 125 173 c 1
 186 197 247 236 247 322 c 0
 247 367 214 391 188 391 c 0
 146 391 124 357 111 346 c 0
 107 343 105 342 103 342 c 0
 95 342 88 356 88 365 c 3
 88 367 88 368 89 369 c 0
 126 418 170 463 248 463 c 4xe0
EndSplineSet
Validated: 1
EndChar

StartChar: four.onum
Encoding: 63284 63284 267
Width: 491
Flags: W
HStem: 6 70<117.002 287.95 412.002 466.418>
VStem: 288 124<-180.339 4.97714 76.0476 277.996>
LayerCount: 2
Fore
SplineSet
346 -184 m 0
 312 -184 288 -180 288 -171 c 2
 288 0 l 1
 287 5 282 5 279 5 c 2
 39 6 l 1
 31 14 24 26 24 54 c 1
 145 199 261 318 367 450 c 0
 374 458 386 464 394 464 c 0
 400 464 412 462 412 454 c 2
 412 84 l 2
 412 79 415 77 421 76 c 1
 453 76 l 2
 465 76 468 59 468 16 c 0
 468 10 459 6 459 6 c 1
 418 6 l 2
 414 6 412 3 412 -2 c 2
 412 -175 l 1
 412 -175 388 -184 346 -184 c 0
288 82 m 1
 288 269 l 2
 288 272 285 278 283 278 c 1
 283 278 283 277 282 276 c 2
 118 88 l 2
 117 87 117 86 117 85 c 0
 117 81 120 76 124 76 c 2
 279 75 l 1
 282 76 287 76 288 82 c 1
EndSplineSet
Validated: 1
EndChar

StartChar: five.onum
Encoding: 63285 63285 268
Width: 379
Flags: W
HStem: -183 31<21.1277 95.1817> 354 108<123.469 348.113>
VStem: 216 135<-41.0775 123.9>
LayerCount: 2
Fore
SplineSet
345 462 m 5
 349 456 353 446 353 428 c 0
 353 411 349 367 342 354 c 1
 208 350 156 352 137 351 c 0
 128 350 126 347 125 342 c 2
 118 294 l 1
 117 287 125 283 133 281 c 0
 246 259 351 165 351 60 c 0
 351 -118 194 -183 25 -183 c 1
 23 -178 21 -174 21 -164 c 0
 21 -153 26 -152 31 -152 c 0
 93 -152 216 -102 216 29 c 0
 216 144 147 194 65 207 c 0
 60 208 54 209 48 218 c 0
 87 451 l 0
 88 454 91 457 94 457 c 0
 165 457 309 454 345 462 c 5
EndSplineSet
Validated: 33
EndChar

StartChar: six.onum
Encoding: 63286 63286 269
Width: 460
Flags: W
HStem: -5 53<191.38 279.773> 332 49<195.376 268.047> 619 20G<315 397>
VStem: 27 135<109.972 305.92> 300 134<103.355 284.246>
LayerCount: 2
Fore
SplineSet
262 381 m 0
 368 381 434 286 434 188 c 0
 434 86 341 -5 235 -5 c 0
 131 -5 27 77 27 205 c 0
 27 416 239 569 391 639 c 1
 403 635 411 617 411 605 c 1
 318 559 238 474 195 365 c 1
 210 374 237 381 262 381 c 0
227 332 m 0
 199 332 180 311 176 305 c 1
 167 269 162 230 162 190 c 0
 162 100 186 48 239 48 c 0
 272 48 300 67 300 178 c 0
 300 263 277 332 227 332 c 0
EndSplineSet
Validated: 1
EndChar

